<svg>
<path d="M8.33334 10.8333H2.50001C2.27899 10.8333 2.06703 10.9212 1.91075 11.0774C1.75447 11.2337 1.66667 11.4457 1.66667 11.6667V17.5C1.66667 17.721 1.75447 17.933 1.91075 18.0892C2.06703 18.2455 2.27899 18.3333 2.50001 18.3333H8.33334C8.55434 18.3333 8.76634 18.2455 8.92259 18.0892C9.07884 17.933 9.16667 17.721 9.16667 17.5V11.6667C9.16667 11.4457 9.07884 11.2337 8.92259 11.0774C8.76634 10.9212 8.55434 10.8333 8.33334 10.8333ZM7.5 16.6667H3.33334V12.5H7.5V16.6667ZM17.5 1.66666H11.6667C11.4457 1.66666 11.2337 1.75446 11.0774 1.91074C10.9212 2.06702 10.8333 2.27898 10.8333 2.5V8.33333C10.8333 8.55433 10.9212 8.76633 11.0774 8.92258C11.2337 9.07883 11.4457 9.16666 11.6667 9.16666H17.5C17.721 9.16666 17.933 9.07883 18.0893 8.92258C18.2455 8.76633 18.3333 8.55433 18.3333 8.33333V2.5C18.3333 2.27898 18.2455 2.06702 18.0893 1.91074C17.933 1.75446 17.721 1.66666 17.5 1.66666ZM16.6667 7.5H12.5V3.33333H16.6667V7.5ZM17.5 10.8333H11.6667C11.4457 10.8333 11.2337 10.9212 11.0774 11.0774C10.9212 11.2337 10.8333 11.4457 10.8333 11.6667V17.5C10.8333 17.721 10.9212 17.933 11.0774 18.0892C11.2337 18.2455 11.4457 18.3333 11.6667 18.3333H17.5C17.721 18.3333 17.933 18.2455 18.0893 18.0892C18.2455 17.933 18.3333 17.721 18.3333 17.5V11.6667C18.3333 11.4457 18.2455 11.2337 18.0893 11.0774C17.933 10.9212 17.721 10.8333 17.5 10.8333ZM16.6667 16.6667H12.5V12.5H16.6667V16.6667ZM8.33334 1.66666H2.50001C2.27899 1.66666 2.06703 1.75446 1.91075 1.91074C1.75447 2.06702 1.66667 2.27898 1.66667 2.5V8.33333C1.66667 8.55433 1.75447 8.76633 1.91075 8.92258C2.06703 9.07883 2.27899 9.16666 2.50001 9.16666H8.33334C8.55434 9.16666 8.76634 9.07883 8.92259 8.92258C9.07884 8.76633 9.16667 8.55433 9.16667 8.33333V2.5C9.16667 2.27898 9.07884 2.06702 8.92259 1.91074C8.76634 1.75446 8.55434 1.66666 8.33334 1.66666ZM7.5 7.5H3.33334V3.33333H7.5V7.5Z" fill="currentColor"/>
</svg>
