<svg>
  <path
    d="M15.8333 16.6667H4.16666C3.94564 16.6667 3.73369 16.7545 3.5774 16.9107C3.42113 17.067 3.33333 17.279 3.33333 17.5C3.33333 17.721 3.42113 17.933 3.5774 18.0892C3.73369 18.2455 3.94564 18.3333 4.16666 18.3333H15.8333C16.0543 18.3333 16.2663 18.2455 16.4226 18.0892C16.5788 17.933 16.6667 17.721 16.6667 17.5C16.6667 17.279 16.5788 17.067 16.4226 16.9107C16.2663 16.7545 16.0543 16.6667 15.8333 16.6667ZM9.40833 14.7583C9.48758 14.8342 9.58099 14.8937 9.68333 14.9333C9.78308 14.9774 9.89091 15.0002 9.99999 15.0002C10.1091 15.0002 10.2169 14.9774 10.3167 14.9333C10.419 14.8937 10.5124 14.8342 10.5917 14.7583L13.925 11.425C14.0819 11.2681 14.1701 11.0552 14.1701 10.8333C14.1701 10.6114 14.0819 10.3986 13.925 10.2417C13.7681 10.0847 13.5552 9.99658 13.3333 9.99658C13.1114 9.99658 12.8986 10.0847 12.7417 10.2417L10.8333 12.1583V2.5C10.8333 2.27898 10.7455 2.06702 10.5892 1.91074C10.433 1.75446 10.221 1.66666 9.99999 1.66666C9.77899 1.66666 9.56699 1.75446 9.41074 1.91074C9.25449 2.06702 9.16666 2.27898 9.16666 2.5V12.1583L7.25833 10.2417C7.18063 10.164 7.08839 10.1023 6.98687 10.0602C6.88535 10.0182 6.77654 9.99658 6.66666 9.99658C6.55678 9.99658 6.44797 10.0182 6.34645 10.0602C6.24494 10.1023 6.15269 10.164 6.07499 10.2417C5.99729 10.3193 5.93566 10.4116 5.89361 10.5132C5.85156 10.6147 5.82992 10.7234 5.82992 10.8333C5.82992 10.9432 5.85156 11.052 5.89361 11.1535C5.93566 11.2551 5.99729 11.3473 6.07499 11.425L9.40833 14.7583Z"
    fill="currentColor"
  />
</svg>
