<svg>
  <path
    d="M18.2666 5.51667C18.1821 5.31304 18.0203 5.15122 17.8166 5.06667C17.7164 5.02397 17.6088 5.00132 17.4999 5H13.3333C13.1123 5 12.9003 5.0878 12.744 5.24408C12.5878 5.40036 12.4999 5.61232 12.4999 5.83333C12.4999 6.05435 12.5878 6.26631 12.744 6.42259C12.9003 6.57887 13.1123 6.66667 13.3333 6.66667H15.4916L10.8333 11.325L8.09162 8.575C8.01416 8.49692 7.92198 8.43492 7.82044 8.39258C7.71889 8.35025 7.60996 8.3285 7.49996 8.3285C7.38995 8.3285 7.28102 8.35025 7.17947 8.39258C7.07792 8.43492 6.98576 8.49692 6.90829 8.575L1.90829 13.575C1.83018 13.6525 1.76819 13.7447 1.72588 13.8462C1.68357 13.9478 1.66179 14.0567 1.66179 14.1667C1.66179 14.2767 1.68357 14.3856 1.72588 14.4872C1.76819 14.5887 1.83018 14.6808 1.90829 14.7583C1.98576 14.8364 2.07792 14.8984 2.17947 14.9407C2.28102 14.9831 2.38995 15.0048 2.49996 15.0048C2.60996 15.0048 2.71889 14.9831 2.82044 14.9407C2.92198 14.8984 3.01416 14.8364 3.09162 14.7583L7.49996 10.3417L10.2416 13.0917C10.3191 13.1697 10.4113 13.2317 10.5128 13.2741C10.6143 13.3164 10.7233 13.3382 10.8333 13.3382C10.9433 13.3382 11.0523 13.3164 11.1538 13.2741C11.2553 13.2317 11.3475 13.1697 11.4249 13.0917L16.6666 7.84167V10C16.6666 10.221 16.7544 10.433 16.9107 10.5892C17.067 10.7455 17.2789 10.8333 17.4999 10.8333C17.721 10.8333 17.9329 10.7455 18.0892 10.5892C18.2455 10.433 18.3333 10.221 18.3333 10V5.83333C18.332 5.72443 18.3093 5.61685 18.2666 5.51667Z"
    fill="currentColor"
    />
</svg>
