<svg>
  <path
    d="M2.50001 6.66667H17.5C17.721 6.66667 17.933 6.57887 18.0893 6.42259C18.2455 6.26631 18.3333 6.05435 18.3333 5.83333C18.3333 5.61232 18.2455 5.40036 18.0893 5.24408C17.933 5.0878 17.721 5 17.5 5H2.50001C2.27899 5 2.06703 5.0878 1.91075 5.24408C1.75447 5.40036 1.66667 5.61232 1.66667 5.83333C1.66667 6.05435 1.75447 6.26631 1.91075 6.42259C2.06703 6.57887 2.27899 6.66667 2.50001 6.66667ZM17.5 13.3333H2.50001C2.27899 13.3333 2.06703 13.4212 1.91075 13.5774C1.75447 13.7337 1.66667 13.9457 1.66667 14.1667C1.66667 14.3877 1.75447 14.5997 1.91075 14.7559C2.06703 14.9122 2.27899 15 2.50001 15H17.5C17.721 15 17.933 14.9122 18.0893 14.7559C18.2455 14.5997 18.3333 14.3877 18.3333 14.1667C18.3333 13.9457 18.2455 13.7337 18.0893 13.5774C17.933 13.4212 17.721 13.3333 17.5 13.3333ZM17.5 9.16667H2.50001C2.27899 9.16667 2.06703 9.2545 1.91075 9.41075C1.75447 9.567 1.66667 9.779 1.66667 10C1.66667 10.221 1.75447 10.433 1.91075 10.5892C2.06703 10.7455 2.27899 10.8333 2.50001 10.8333H17.5C17.721 10.8333 17.933 10.7455 18.0893 10.5892C18.2455 10.433 18.3333 10.221 18.3333 10C18.3333 9.779 18.2455 9.567 18.0893 9.41075C17.933 9.2545 17.721 9.16667 17.5 9.16667Z"
    fill="currentColor"
  />
</svg>
