<svg>
  <path d="M15 6.66667C15 5.34059 14.4732 4.06882 13.5355 3.13114C12.5978 2.19346 11.3261 1.66667 10 1.66667C8.67392 1.66667 7.40215 2.19346 6.46447 3.13114C5.52678 4.06882 5 5.34059 5 6.66667C5 12.5 2.5 14.1667 2.5 14.1667H17.5C17.5 14.1667 15 12.5 15 6.66667Z" stroke="currentColor" stroke-width="2" stroke-linecap="round" stroke-linejoin="round"/>
  <path d="M11.4417 17.5C11.2952 17.7526 11.0849 17.9622 10.8318 18.1079C10.5788 18.2537 10.292 18.3304 10 18.3304C9.708 18.3304 9.42117 18.2537 9.16817 18.1079C8.91517 17.9622 8.70483 17.7526 8.55833 17.5" stroke="currentColor" stroke-width="2" stroke-linecap="round" stroke-linejoin="round"/>
</svg>
