<svg width="20" height="20" viewBox="0 0 20 20" fill="none" xmlns="http://www.w3.org/2000/svg">
<path d="M10 7.5C10.1648 7.5 10.3259 7.45113 10.463 7.35956C10.6 7.26799 10.7068 7.13784 10.7699 6.98557C10.833 6.8333 10.8495 6.66574 10.8173 6.50409C10.7852 6.34244 10.7058 6.19395 10.5893 6.07741C10.4727 5.96087 10.3242 5.8815 10.1626 5.84935C10.0009 5.81719 9.83337 5.83369 9.6811 5.89677C9.52882 5.95984 9.39868 6.06665 9.30711 6.20369C9.21554 6.34073 9.16667 6.50185 9.16667 6.66667C9.16667 6.88768 9.25446 7.09964 9.41074 7.25592C9.56702 7.4122 9.77899 7.5 10 7.5ZM10 10.8333C10.1648 10.8333 10.3259 10.7845 10.463 10.6929C10.6 10.6013 10.7068 10.4712 10.7699 10.3189C10.833 10.1666 10.8495 9.99908 10.8173 9.83742C10.7852 9.67577 10.7058 9.52729 10.5893 9.41074C10.4727 9.2942 10.3242 9.21483 10.1626 9.18268C10.0009 9.15052 9.83337 9.16703 9.6811 9.2301C9.52882 9.29317 9.39868 9.39998 9.30711 9.53702C9.21554 9.67407 9.16667 9.83518 9.16667 10C9.16667 10.221 9.25446 10.433 9.41074 10.5893C9.56702 10.7455 9.77899 10.8333 10 10.8333ZM13.3333 10.8333C13.4982 10.8333 13.6593 10.7845 13.7963 10.6929C13.9333 10.6013 14.0402 10.4712 14.1032 10.3189C14.1663 10.1666 14.1828 9.99908 14.1507 9.83742C14.1185 9.67577 14.0391 9.52729 13.9226 9.41074C13.806 9.2942 13.6576 9.21483 13.4959 9.18268C13.3343 9.15052 13.1667 9.16703 13.0144 9.2301C12.8622 9.29317 12.732 9.39998 12.6404 9.53702C12.5489 9.67407 12.5 9.83518 12.5 10C12.5 10.221 12.5878 10.433 12.7441 10.5893C12.9004 10.7455 13.1123 10.8333 13.3333 10.8333ZM10 14.1667C10.1648 14.1667 10.3259 14.1178 10.463 14.0262C10.6 13.9347 10.7068 13.8045 10.7699 13.6522C10.833 13.5 10.8495 13.3324 10.8173 13.1708C10.7852 13.0091 10.7058 12.8606 10.5893 12.7441C10.4727 12.6275 10.3242 12.5482 10.1626 12.516C10.0009 12.4839 9.83337 12.5004 9.6811 12.5634C9.52882 12.6265 9.39868 12.7333 9.30711 12.8704C9.21554 13.0074 9.16667 13.1685 9.16667 13.3333C9.16667 13.5543 9.25446 13.7663 9.41074 13.9226C9.56702 14.0789 9.77899 14.1667 10 14.1667ZM16.6667 2.5H3.33333C3.11232 2.5 2.90036 2.5878 2.74408 2.74408C2.5878 2.90036 2.5 3.11232 2.5 3.33333V16.6667C2.5 16.8877 2.5878 17.0996 2.74408 17.2559C2.90036 17.4122 3.11232 17.5 3.33333 17.5H16.6667C16.8877 17.5 17.0996 17.4122 17.2559 17.2559C17.4122 17.0996 17.5 16.8877 17.5 16.6667V3.33333C17.5 3.11232 17.4122 2.90036 17.2559 2.74408C17.0996 2.5878 16.8877 2.5 16.6667 2.5ZM15.8333 15.8333H4.16667V4.16667H15.8333V15.8333ZM6.66667 10.8333C6.83148 10.8333 6.9926 10.7845 7.12964 10.6929C7.26668 10.6013 7.37349 10.4712 7.43657 10.3189C7.49964 10.1666 7.51614 9.99908 7.48399 9.83742C7.45183 9.67577 7.37247 9.52729 7.25592 9.41074C7.13938 9.2942 6.99089 9.21483 6.82924 9.18268C6.66759 9.15052 6.50004 9.16703 6.34776 9.2301C6.19549 9.29317 6.06534 9.39998 5.97378 9.53702C5.88221 9.67407 5.83333 9.83518 5.83333 10C5.83333 10.221 5.92113 10.433 6.07741 10.5893C6.23369 10.7455 6.44565 10.8333 6.66667 10.8333Z" fill="currentColor"/>
</svg>
