<svg width="20" height="20" viewBox="0 0 20 20" fill="none" xmlns="http://www.w3.org/2000/svg">
<path d="M11.668 6.66797H12.5013C12.7223 6.66797 12.9343 6.58017 13.0906 6.42389C13.2468 6.26761 13.3346 6.05565 13.3346 5.83464C13.3346 5.61362 13.2468 5.40166 13.0906 5.24538C12.9343 5.0891 12.7223 5.0013 12.5013 5.0013H11.668C11.447 5.0013 11.235 5.0891 11.0787 5.24538C10.9224 5.40166 10.8346 5.61362 10.8346 5.83464C10.8346 6.05565 10.9224 6.26761 11.0787 6.42389C11.235 6.58017 11.447 6.66797 11.668 6.66797ZM11.668 10.0013H12.5013C12.7223 10.0013 12.9343 9.9135 13.0906 9.75723C13.2468 9.60094 13.3346 9.38898 13.3346 9.16797C13.3346 8.94696 13.2468 8.73499 13.0906 8.57871C12.9343 8.42243 12.7223 8.33464 12.5013 8.33464H11.668C11.447 8.33464 11.235 8.42243 11.0787 8.57871C10.9224 8.73499 10.8346 8.94696 10.8346 9.16797C10.8346 9.38898 10.9224 9.60094 11.0787 9.75723C11.235 9.9135 11.447 10.0013 11.668 10.0013ZM7.5013 6.66797H8.33464C8.55565 6.66797 8.76761 6.58017 8.92389 6.42389C9.08017 6.26761 9.16797 6.05565 9.16797 5.83464C9.16797 5.61362 9.08017 5.40166 8.92389 5.24538C8.76761 5.0891 8.55565 5.0013 8.33464 5.0013H7.5013C7.28029 5.0013 7.06833 5.0891 6.91205 5.24538C6.75577 5.40166 6.66797 5.61362 6.66797 5.83464C6.66797 6.05565 6.75577 6.26761 6.91205 6.42389C7.06833 6.58017 7.28029 6.66797 7.5013 6.66797ZM7.5013 10.0013H8.33464C8.55565 10.0013 8.76761 9.9135 8.92389 9.75723C9.08017 9.60094 9.16797 9.38898 9.16797 9.16797C9.16797 8.94696 9.08017 8.73499 8.92389 8.57871C8.76761 8.42243 8.55565 8.33464 8.33464 8.33464H7.5013C7.28029 8.33464 7.06833 8.42243 6.91205 8.57871C6.75577 8.73499 6.66797 8.94696 6.66797 9.16797C6.66797 9.38898 6.75577 9.60094 6.91205 9.75723C7.06833 9.9135 7.28029 10.0013 7.5013 10.0013ZM17.5013 16.668H16.668V2.5013C16.668 2.28029 16.5802 2.06833 16.4239 1.91205C16.2676 1.75577 16.0556 1.66797 15.8346 1.66797H4.16797C3.94696 1.66797 3.73499 1.75577 3.57871 1.91205C3.42243 2.06833 3.33464 2.28029 3.33464 2.5013V16.668H2.5013C2.28029 16.668 2.06833 16.7558 1.91205 16.912C1.75577 17.0683 1.66797 17.2803 1.66797 17.5013C1.66797 17.7223 1.75577 17.9343 1.91205 18.0906C2.06833 18.2468 2.28029 18.3346 2.5013 18.3346H17.5013C17.7223 18.3346 17.9343 18.2468 18.0906 18.0906C18.2468 17.9343 18.3346 17.7223 18.3346 17.5013C18.3346 17.2803 18.2468 17.0683 18.0906 16.912C17.9343 16.7558 17.7223 16.668 17.5013 16.668ZM10.8346 16.668H9.16797V13.3346H10.8346V16.668ZM15.0013 16.668H12.5013V12.5013C12.5013 12.2803 12.4135 12.0683 12.2572 11.912C12.1009 11.7558 11.889 11.668 11.668 11.668H8.33464C8.11362 11.668 7.90166 11.7558 7.74538 11.912C7.5891 12.0683 7.5013 12.2803 7.5013 12.5013V16.668H5.0013V3.33464H15.0013V16.668Z" fill="currentColor"/>
</svg>
