<svg>
  <path d="M16.6593 1.66834C16.5499 1.66828 16.4415 1.68979 16.3403 1.73165C16.2393 1.77351 16.1473 1.83489 16.0699 1.91228C15.9926 1.98968 15.9312 2.08157 15.8893 2.1827C15.8475 2.28383 15.8259 2.39223 15.826 2.50168V3.03228C15.1232 3.9037 14.2349 4.60744 13.2258 5.09228C12.2167 5.57712 11.1122 5.83085 9.99267 5.83501H4.99268C4.32986 5.83573 3.69439 6.09936 3.22571 6.56804C2.75703 7.03673 2.4934 7.67219 2.49268 8.335V10.0017C2.4934 10.6645 2.75703 11.3 3.22571 11.7687C3.69439 12.2373 4.32986 12.5009 4.99268 12.5017H5.39583L3.39356 17.1737C3.33915 17.3004 3.31706 17.4387 3.32927 17.576C3.34148 17.7133 3.38762 17.8456 3.46353 17.9607C3.53945 18.0758 3.64278 18.1703 3.76422 18.2356C3.88567 18.3009 4.02143 18.3351 4.15934 18.335H7.49268C7.6558 18.3351 7.81536 18.2873 7.95152 18.1974C8.08767 18.1076 8.19441 17.9797 8.25847 17.8297L10.5283 12.5333C11.5538 12.6087 12.553 12.8933 13.4642 13.3699C14.3754 13.8465 15.1792 14.5048 15.826 15.3043V15.835C15.826 16.056 15.9138 16.268 16.0701 16.4243C16.2263 16.5806 16.4383 16.6683 16.6593 16.6683C16.8803 16.6683 17.0923 16.5806 17.2486 16.4243C17.4049 16.268 17.4927 16.056 17.4927 15.835V2.50168C17.4927 2.39223 17.4712 2.28383 17.4293 2.1827C17.3875 2.08157 17.3262 1.98968 17.2488 1.91228C17.1713 1.83488 17.0794 1.77351 16.9783 1.73165C16.8772 1.68979 16.7688 1.66828 16.6593 1.66834ZM4.99268 10.835C4.77171 10.8348 4.55983 10.747 4.40358 10.5908C4.24733 10.4345 4.15949 10.2227 4.15934 10.0017V8.335C4.15949 8.11404 4.24734 7.90217 4.40358 7.74593C4.55983 7.58968 4.77171 7.50183 4.99268 7.50168H5.82601V10.835H4.99268ZM6.94336 16.6683H5.42318L7.20866 12.5017H8.72883L6.94336 16.6683ZM15.826 12.9365C14.1829 11.5828 12.1216 10.8403 9.99267 10.835H7.49268V7.50163H9.99267C12.1216 7.49619 14.1829 6.75343 15.826 5.39968V12.9365Z" fill="currentColor"/>
</svg>
