<svg width="20" height="20" viewBox="0 0 20 20" fill="none" xmlns="http://www.w3.org/2000/svg">
<path d="M10.0013 15.832C10.1661 15.832 10.3272 15.7832 10.4643 15.6916C10.6013 15.6 10.7081 15.4699 10.7712 15.3176C10.8343 15.1653 10.8508 14.9978 10.8186 14.8361C10.7865 14.6745 10.7071 14.526 10.5906 14.4094C10.474 14.2929 10.3255 14.2135 10.1639 14.1814C10.0022 14.1492 9.83467 14.1657 9.6824 14.2288C9.53013 14.2919 9.39998 14.3987 9.30841 14.5357C9.21684 14.6728 9.16797 14.8339 9.16797 14.9987C9.16797 15.2197 9.25577 15.4317 9.41205 15.588C9.56833 15.7442 9.78029 15.832 10.0013 15.832ZM14.168 15.832C14.3328 15.832 14.4939 15.7832 14.6309 15.6916C14.768 15.6 14.8748 15.4699 14.9379 15.3176C15.0009 15.1653 15.0174 14.9978 14.9853 14.8361C14.9531 14.6745 14.8738 14.526 14.7572 14.4094C14.6407 14.2929 14.4922 14.2135 14.3305 14.1814C14.1689 14.1492 14.0013 14.1657 13.8491 14.2288C13.6968 14.2919 13.5666 14.3987 13.4751 14.5357C13.3835 14.6728 13.3346 14.8339 13.3346 14.9987C13.3346 15.2197 13.4224 15.4317 13.5787 15.588C13.735 15.7442 13.947 15.832 14.168 15.832ZM14.168 12.4987C14.3328 12.4987 14.4939 12.4498 14.6309 12.3583C14.768 12.2667 14.8748 12.1365 14.9379 11.9843C15.0009 11.832 15.0174 11.6644 14.9853 11.5028C14.9531 11.3411 14.8738 11.1927 14.7572 11.0761C14.6407 10.9596 14.4922 10.8802 14.3305 10.848C14.1689 10.8159 14.0013 10.8324 13.8491 10.8955C13.6968 10.9585 13.5666 11.0653 13.4751 11.2024C13.3835 11.3394 13.3346 11.5005 13.3346 11.6654C13.3346 11.8864 13.4224 12.0983 13.5787 12.2546C13.735 12.4109 13.947 12.4987 14.168 12.4987ZM10.0013 12.4987C10.1661 12.4987 10.3272 12.4498 10.4643 12.3583C10.6013 12.2667 10.7081 12.1365 10.7712 11.9843C10.8343 11.832 10.8508 11.6644 10.8186 11.5028C10.7865 11.3411 10.7071 11.1927 10.5906 11.0761C10.474 10.9596 10.3255 10.8802 10.1639 10.848C10.0022 10.8159 9.83467 10.8324 9.6824 10.8955C9.53013 10.9585 9.39998 11.0653 9.30841 11.2024C9.21684 11.3394 9.16797 11.5005 9.16797 11.6654C9.16797 11.8864 9.25577 12.0983 9.41205 12.2546C9.56833 12.4109 9.78029 12.4987 10.0013 12.4987ZM15.8346 2.4987H15.0013V1.66536C15.0013 1.44435 14.9135 1.23239 14.7572 1.07611C14.6009 0.919829 14.389 0.832031 14.168 0.832031C13.947 0.832031 13.735 0.919829 13.5787 1.07611C13.4224 1.23239 13.3346 1.44435 13.3346 1.66536V2.4987H6.66797V1.66536C6.66797 1.44435 6.58017 1.23239 6.42389 1.07611C6.26761 0.919829 6.05565 0.832031 5.83464 0.832031C5.61362 0.832031 5.40166 0.919829 5.24538 1.07611C5.0891 1.23239 5.0013 1.44435 5.0013 1.66536V2.4987H4.16797C3.50493 2.4987 2.86904 2.76209 2.4002 3.23093C1.93136 3.69977 1.66797 4.33566 1.66797 4.9987V16.6654C1.66797 17.3284 1.93136 17.9643 2.4002 18.4331C2.86904 18.902 3.50493 19.1654 4.16797 19.1654H15.8346C16.4977 19.1654 17.1336 18.902 17.6024 18.4331C18.0712 17.9643 18.3346 17.3284 18.3346 16.6654V4.9987C18.3346 4.33566 18.0712 3.69977 17.6024 3.23093C17.1336 2.76209 16.4977 2.4987 15.8346 2.4987ZM16.668 16.6654C16.668 16.8864 16.5802 17.0983 16.4239 17.2546C16.2676 17.4109 16.0556 17.4987 15.8346 17.4987H4.16797C3.94696 17.4987 3.73499 17.4109 3.57871 17.2546C3.42243 17.0983 3.33464 16.8864 3.33464 16.6654V9.16536H16.668V16.6654ZM16.668 7.4987H3.33464V4.9987C3.33464 4.77768 3.42243 4.56572 3.57871 4.40944C3.73499 4.25316 3.94696 4.16536 4.16797 4.16536H5.0013V4.9987C5.0013 5.21971 5.0891 5.43167 5.24538 5.58795C5.40166 5.74423 5.61362 5.83203 5.83464 5.83203C6.05565 5.83203 6.26761 5.74423 6.42389 5.58795C6.58017 5.43167 6.66797 5.21971 6.66797 4.9987V4.16536H13.3346V4.9987C13.3346 5.21971 13.4224 5.43167 13.5787 5.58795C13.735 5.74423 13.947 5.83203 14.168 5.83203C14.389 5.83203 14.6009 5.74423 14.7572 5.58795C14.9135 5.43167 15.0013 5.21971 15.0013 4.9987V4.16536H15.8346C16.0556 4.16536 16.2676 4.25316 16.4239 4.40944C16.5802 4.56572 16.668 4.77768 16.668 4.9987V7.4987ZM5.83464 12.4987C5.99945 12.4987 6.16057 12.4498 6.29761 12.3583C6.43465 12.2667 6.54146 12.1365 6.60454 11.9843C6.66761 11.832 6.68411 11.6644 6.65196 11.5028C6.6198 11.3411 6.54043 11.1927 6.42389 11.0761C6.30735 10.9596 6.15886 10.8802 5.99721 10.848C5.83556 10.8159 5.668 10.8324 5.51573 10.8955C5.36346 10.9585 5.23331 11.0653 5.14174 11.2024C5.05018 11.3394 5.0013 11.5005 5.0013 11.6654C5.0013 11.8864 5.0891 12.0983 5.24538 12.2546C5.40166 12.4109 5.61362 12.4987 5.83464 12.4987ZM5.83464 15.832C5.99945 15.832 6.16057 15.7832 6.29761 15.6916C6.43465 15.6 6.54146 15.4699 6.60454 15.3176C6.66761 15.1653 6.68411 14.9978 6.65196 14.8361C6.6198 14.6745 6.54043 14.526 6.42389 14.4094C6.30735 14.2929 6.15886 14.2135 5.99721 14.1814C5.83556 14.1492 5.668 14.1657 5.51573 14.2288C5.36346 14.2919 5.23331 14.3987 5.14174 14.5357C5.05018 14.6728 5.0013 14.8339 5.0013 14.9987C5.0013 15.2197 5.0891 15.4317 5.24538 15.588C5.40166 15.7442 5.61362 15.832 5.83464 15.832Z" fill="currentColor"/>
</svg>
