<svg>
<path d="M16.5584 7.1665C16.4963 7.02377 16.3955 6.90128 16.2673 6.81291C16.1392 6.72454 15.9889 6.67382 15.8334 6.6665H12.0167L13.0751 2.7165C13.1088 2.5929 13.1135 2.46319 13.089 2.33745C13.0644 2.21171 13.0112 2.09333 12.9334 1.9915C12.8558 1.89066 12.7561 1.80893 12.6419 1.7526C12.5278 1.69626 12.4023 1.66681 12.2751 1.6665H6.44173C6.25359 1.66006 6.06882 1.7175 5.9175 1.82948C5.76618 1.94146 5.65723 2.10137 5.60839 2.28317L3.37506 10.6165C3.34135 10.7401 3.3366 10.8698 3.36117 10.9956C3.38574 11.1213 3.43897 11.2397 3.51673 11.3415C3.59521 11.4435 3.69625 11.5259 3.81191 11.5823C3.92757 11.6386 4.05472 11.6675 4.18339 11.6665H7.40839L5.90006 17.2832C5.85064 17.4643 5.86383 17.6568 5.93748 17.8295C6.01113 18.0022 6.14094 18.1449 6.30586 18.2346C6.47078 18.3243 6.66116 18.3557 6.84615 18.3237C7.03113 18.2916 7.19988 18.1981 7.32506 18.0582L16.4084 8.05817C16.5166 7.93974 16.5882 7.79261 16.6148 7.63445C16.6414 7.47629 16.6219 7.3138 16.5584 7.1665ZM8.40006 14.3998L9.29173 11.0665C9.32543 10.9429 9.33019 10.8132 9.30562 10.6874C9.28105 10.5617 9.22782 10.4433 9.15006 10.3415C9.07243 10.2407 8.97273 10.1589 8.85861 10.1026C8.7445 10.0463 8.61899 10.0168 8.49173 10.0165H5.29173L7.07506 3.33317H11.1834L10.1251 7.28317C10.0911 7.40905 10.0871 7.54115 10.1135 7.66884C10.1398 7.79653 10.1958 7.91625 10.2769 8.01838C10.3579 8.12051 10.4618 8.2022 10.5802 8.25687C10.6985 8.31154 10.8281 8.33768 10.9584 8.33317H13.9334L8.40006 14.3998Z" fill="currentColor"/>
</svg>
