<svg>
<path d="M15.8333 7.91668H15.5667L14.525 5.31668C14.339 4.85439 14.019 4.45825 13.6062 4.1791C13.1934 3.89994 12.7067 3.75053 12.2083 3.75001H7.20833C6.62941 3.74835 6.06785 3.94767 5.61951 4.31394C5.17117 4.68021 4.86385 5.19072 4.75 5.75834L4.31666 7.91668H4.16666C3.50362 7.91668 2.86774 8.18007 2.3989 8.64892C1.93006 9.11775 1.66666 9.75367 1.66666 10.4167V12.9167C1.66666 13.1377 1.75446 13.3497 1.91074 13.5059C2.06702 13.6623 2.27898 13.75 2.5 13.75H3.33333C3.33333 14.4131 3.59672 15.0489 4.06556 15.5178C4.53441 15.9866 5.17029 16.25 5.83333 16.25C6.49637 16.25 7.13226 15.9866 7.6011 15.5178C8.06994 15.0489 8.33333 14.4131 8.33333 13.75H11.6667C11.6667 14.4131 11.9301 15.0489 12.3989 15.5178C12.8677 15.9866 13.5037 16.25 14.1667 16.25C14.8297 16.25 15.4656 15.9866 15.9344 15.5178C16.4032 15.0489 16.6667 14.4131 16.6667 13.75H17.5C17.721 13.75 17.933 13.6623 18.0892 13.5059C18.2455 13.3497 18.3333 13.1377 18.3333 12.9167V10.4167C18.3333 9.75367 18.0699 9.11775 17.6011 8.64892C17.1322 8.18007 16.4963 7.91668 15.8333 7.91668ZM10.8333 5.41668H12.2083C12.3738 5.41818 12.5351 5.46891 12.6717 5.5624C12.8082 5.6559 12.9137 5.78794 12.975 5.94168L13.7667 7.91668H10.8333V5.41668ZM6.38333 6.08334C6.42229 5.89229 6.52701 5.72093 6.67928 5.59912C6.83155 5.47731 7.02171 5.41274 7.21666 5.41668H9.16666V7.91668H6.01666L6.38333 6.08334ZM5.83333 14.5833C5.66851 14.5833 5.5074 14.5345 5.37036 14.4429C5.23331 14.3513 5.12651 14.2212 5.06343 14.0689C5.00036 13.9167 4.98386 13.7491 5.01601 13.5874C5.04816 13.4258 5.12753 13.2773 5.24407 13.1608C5.36062 13.0443 5.50911 12.9648 5.67076 12.9327C5.83241 12.9005 5.99996 12.917 6.15223 12.9801C6.30451 13.0432 6.43466 13.15 6.52622 13.287C6.61779 13.4241 6.66666 13.5852 6.66666 13.75C6.66666 13.971 6.57886 14.183 6.42259 14.3393C6.26631 14.4956 6.05435 14.5833 5.83333 14.5833ZM14.1667 14.5833C14.0018 14.5833 13.8407 14.5345 13.7037 14.4429C13.5667 14.3513 13.4598 14.2212 13.3967 14.0689C13.3337 13.9167 13.3172 13.7491 13.3493 13.5874C13.3815 13.4258 13.4608 13.2773 13.5774 13.1608C13.6939 13.0443 13.8424 12.9648 14.0041 12.9327C14.1657 12.9005 14.3333 12.917 14.4856 12.9801C14.6378 13.0432 14.768 13.15 14.8596 13.287C14.9512 13.4241 15 13.5852 15 13.75C15 13.971 14.9122 14.183 14.7559 14.3393C14.5997 14.4956 14.3877 14.5833 14.1667 14.5833ZM16.6667 12.0833H16.0167C15.7823 11.8256 15.4967 11.6196 15.1782 11.4786C14.8596 11.3377 14.515 11.2648 14.1667 11.2648C13.8183 11.2648 13.4737 11.3377 13.1552 11.4786C12.8366 11.6196 12.551 11.8256 12.3167 12.0833H7.68333C7.44901 11.8256 7.16341 11.6196 6.84481 11.4786C6.52623 11.3377 6.18171 11.2648 5.83333 11.2648C5.48496 11.2648 5.14043 11.3377 4.82185 11.4786C4.50326 11.6196 4.21765 11.8256 3.98333 12.0833H3.33333V10.4167C3.33333 10.1957 3.42113 9.98367 3.57741 9.82742C3.73369 9.67117 3.94565 9.58334 4.16666 9.58334H15.8333C16.0543 9.58334 16.2663 9.67117 16.4226 9.82742C16.5788 9.98367 16.6667 10.1957 16.6667 10.4167V12.0833Z" fill="currentColor"/>
</svg>
