<svg>
<path d="M10 5.83333C9.77901 5.83333 9.56701 5.92113 9.41076 6.07741C9.25451 6.23369 9.16667 6.44565 9.16667 6.66667V10C9.16667 10.221 9.25451 10.433 9.41076 10.5893C9.56701 10.7455 9.77901 10.8333 10 10.8333C10.221 10.8333 10.433 10.7455 10.5893 10.5893C10.7455 10.433 10.8333 10.221 10.8333 10V6.66667C10.8333 6.44565 10.7455 6.23369 10.5893 6.07741C10.433 5.92113 10.221 5.83333 10 5.83333ZM10.7667 13.0167C10.7484 12.9636 10.7233 12.9131 10.6917 12.8667L10.5917 12.7417C10.4745 12.626 10.3257 12.5477 10.164 12.5166C10.0023 12.4854 9.83509 12.5028 9.68334 12.5667C9.58234 12.6088 9.48934 12.6681 9.40834 12.7417C9.33109 12.8195 9.27001 12.9119 9.22851 13.0134C9.18709 13.1149 9.16601 13.2237 9.16667 13.3333C9.16801 13.4423 9.19067 13.5498 9.23334 13.65C9.27076 13.7534 9.33051 13.8473 9.40826 13.9251C9.48601 14.0028 9.57992 14.0626 9.68334 14.1C9.78309 14.1441 9.89092 14.1668 10 14.1668C10.1091 14.1668 10.2169 14.1441 10.3167 14.1C10.4201 14.0626 10.514 14.0028 10.5918 13.9251C10.6695 13.8473 10.7293 13.7534 10.7667 13.65C10.8093 13.5498 10.832 13.4423 10.8333 13.3333C10.8374 13.2778 10.8374 13.2222 10.8333 13.1667C10.819 13.1135 10.7965 13.0629 10.7667 13.0167ZM10 1.66667C8.35184 1.66667 6.74066 2.15541 5.37026 3.07108C3.99985 3.98677 2.93175 5.28825 2.30101 6.81098C1.67028 8.33367 1.50526 10.0093 1.8268 11.6258C2.14834 13.2423 2.94201 14.7271 4.10746 15.8926C5.27289 17.058 6.75775 17.8517 8.37426 18.1733C9.99076 18.4948 11.6663 18.3298 13.189 17.699C14.7118 17.0683 16.0133 16.0002 16.9289 14.6298C17.8446 13.2593 18.3333 11.6482 18.3333 10C18.3333 8.90567 18.1178 7.82202 17.699 6.81098C17.2803 5.79993 16.6664 4.88127 15.8926 4.10744C15.1188 3.33363 14.2001 2.71979 13.189 2.301C12.178 1.88222 11.0943 1.66667 10 1.66667ZM10 16.6667C8.68151 16.6667 7.39254 16.2757 6.29621 15.5432C5.19988 14.8106 4.3454 13.7694 3.84081 12.5513C3.33623 11.3331 3.20421 9.99258 3.46144 8.69942C3.71867 7.40619 4.35361 6.21831 5.28596 5.28596C6.21831 4.35361 7.4062 3.71867 8.69942 3.46143C9.99259 3.2042 11.3331 3.33622 12.5513 3.8408C13.7694 4.34539 14.8106 5.19987 15.5432 6.2962C16.2757 7.39253 16.6667 8.68142 16.6667 10C16.6667 11.7681 15.9643 13.4638 14.7141 14.7141C13.4638 15.9643 11.7681 16.6667 10 16.6667Z" fill="currentColor"/>
</svg>
