<svg>
<path d="M12.2667 7.325L8.69167 10.9083L7.31667 9.53333C7.24197 9.44608 7.15004 9.37525 7.04665 9.32525C6.94326 9.27525 6.83066 9.24708 6.71589 9.24267C6.60112 9.23825 6.48668 9.25758 6.37974 9.2995C6.27281 9.34133 6.17568 9.40492 6.09446 9.48608C6.01326 9.56733 5.94971 9.6645 5.90781 9.77142C5.86591 9.87833 5.84658 9.99275 5.85101 10.1076C5.85545 10.2223 5.88356 10.3349 5.93357 10.4383C5.98359 10.5417 6.05444 10.6337 6.14167 10.7083L8.10001 12.675C8.17787 12.7523 8.27022 12.8133 8.37176 12.8548C8.47326 12.8963 8.58201 12.9173 8.69167 12.9167C8.91026 12.9158 9.11976 12.8289 9.27501 12.675L13.4417 8.50833C13.5198 8.43083 13.5818 8.33867 13.6241 8.23715C13.6664 8.1356 13.6882 8.02668 13.6882 7.91667C13.6882 7.80666 13.6664 7.69773 13.6241 7.59618C13.5818 7.49463 13.5198 7.40247 13.4417 7.325C13.2855 7.16979 13.0743 7.08268 12.8542 7.08268C12.634 7.08268 12.4228 7.16979 12.2667 7.325ZM10 1.66667C8.35184 1.66667 6.74066 2.15541 5.37026 3.07108C3.99985 3.98677 2.93175 5.28825 2.30101 6.81098C1.67028 8.33367 1.50526 10.0093 1.8268 11.6258C2.14834 13.2423 2.94201 14.7271 4.10746 15.8926C5.27289 17.058 6.75775 17.8517 8.37426 18.1733C9.99076 18.4948 11.6663 18.3298 13.189 17.699C14.7118 17.0683 16.0133 16.0002 16.9289 14.6298C17.8446 13.2593 18.3333 11.6482 18.3333 10C18.3333 8.90567 18.1178 7.82202 17.699 6.81098C17.2803 5.79993 16.6664 4.88127 15.8926 4.10744C15.1188 3.33363 14.2001 2.71979 13.189 2.301C12.178 1.88222 11.0943 1.66667 10 1.66667ZM10 16.6667C8.68151 16.6667 7.39254 16.2757 6.29621 15.5432C5.19988 14.8106 4.3454 13.7694 3.84081 12.5513C3.33623 11.3331 3.20421 9.99258 3.46144 8.69942C3.71867 7.40619 4.35361 6.21831 5.28596 5.28596C6.21831 4.35361 7.4062 3.71867 8.69942 3.46143C9.99259 3.2042 11.3331 3.33622 12.5513 3.8408C13.7694 4.34539 14.8106 5.19987 15.5432 6.2962C16.2757 7.39253 16.6667 8.68142 16.6667 10C16.6667 11.7681 15.9643 13.4638 14.7141 14.7141C13.4638 15.9643 11.7681 16.6667 10 16.6667Z" fill="currentColor"/>
</svg>
