<svg width="20" height="20" viewBox="0 0 20 20" fill="none" xmlns="http://www.w3.org/2000/svg">
<path d="M12.4987 11.668H7.4987C7.27768 11.668 7.06572 11.7558 6.90944 11.912C6.75316 12.0683 6.66536 12.2803 6.66536 12.5013C6.66536 12.7223 6.75316 12.9343 6.90944 13.0906C7.06572 13.2468 7.27768 13.3346 7.4987 13.3346H12.4987C12.7197 13.3346 12.9317 13.2468 13.088 13.0906C13.2442 12.9343 13.332 12.7223 13.332 12.5013C13.332 12.2803 13.2442 12.0683 13.088 11.912C12.9317 11.7558 12.7197 11.668 12.4987 11.668ZM12.4987 8.33464H9.16536C8.94435 8.33464 8.73239 8.42243 8.57611 8.57871C8.41983 8.73499 8.33203 8.94696 8.33203 9.16797C8.33203 9.38898 8.41983 9.60094 8.57611 9.75723C8.73239 9.9135 8.94435 10.0013 9.16536 10.0013H12.4987C12.7197 10.0013 12.9317 9.9135 13.088 9.75723C13.2442 9.60094 13.332 9.38898 13.332 9.16797C13.332 8.94696 13.2442 8.73499 13.088 8.57871C12.9317 8.42243 12.7197 8.33464 12.4987 8.33464ZM14.1654 3.33464H13.182C13.0101 2.84834 12.692 2.42713 12.2713 2.12875C11.8505 1.83037 11.3478 1.66942 10.832 1.66797H9.16536C8.64958 1.66942 8.14686 1.83037 7.72614 2.12875C7.30542 2.42713 6.98729 2.84834 6.81536 3.33464H5.83203C5.16899 3.33464 4.53311 3.59803 4.06426 4.06687C3.59542 4.53571 3.33203 5.17159 3.33203 5.83464V15.8346C3.33203 16.4977 3.59542 17.1336 4.06426 17.6024C4.53311 18.0712 5.16899 18.3346 5.83203 18.3346H14.1654C14.8284 18.3346 15.4643 18.0712 15.9331 17.6024C16.402 17.1336 16.6654 16.4977 16.6654 15.8346V5.83464C16.6654 5.17159 16.402 4.53571 15.9331 4.06687C15.4643 3.59803 14.8284 3.33464 14.1654 3.33464ZM8.33203 4.16797C8.33203 3.94696 8.41983 3.73499 8.57611 3.57871C8.73239 3.42243 8.94435 3.33464 9.16536 3.33464H10.832C11.053 3.33464 11.265 3.42243 11.4213 3.57871C11.5776 3.73499 11.6654 3.94696 11.6654 4.16797V5.0013H8.33203V4.16797ZM14.9987 15.8346C14.9987 16.0556 14.9109 16.2676 14.7546 16.4239C14.5983 16.5802 14.3864 16.668 14.1654 16.668H5.83203C5.61102 16.668 5.39906 16.5802 5.24278 16.4239C5.0865 16.2676 4.9987 16.0556 4.9987 15.8346V5.83464C4.9987 5.61362 5.0865 5.40166 5.24278 5.24538C5.39906 5.0891 5.61102 5.0013 5.83203 5.0013H6.66536V5.83464C6.66536 6.05565 6.75316 6.26761 6.90944 6.42389C7.06572 6.58017 7.27768 6.66797 7.4987 6.66797H12.4987C12.7197 6.66797 12.9317 6.58017 13.088 6.42389C13.2442 6.26761 13.332 6.05565 13.332 5.83464V5.0013H14.1654C14.3864 5.0013 14.5983 5.0891 14.7546 5.24538C14.9109 5.40166 14.9987 5.61362 14.9987 5.83464V15.8346Z" fill="currentColor"/>
</svg>
