<svg width="20" height="20" viewBox="0 0 20 20" fill="none" xmlns="http://www.w3.org/2000/svg">
<path d="M9.16537 1.66797C7.51719 1.66797 5.90603 2.15671 4.53562 3.07239C3.16521 3.98807 2.0971 5.28956 1.46637 6.81227C0.835642 8.33499 0.670614 10.0105 0.992158 11.6271C1.3137 13.2436 2.10737 14.7284 3.27281 15.8939C4.43825 17.0593 5.92311 17.853 7.53962 18.1745C9.15612 18.4961 10.8317 18.331 12.3544 17.7003C13.8771 17.0696 15.1786 16.0015 16.0943 14.6311C17.01 13.2606 17.4987 11.6495 17.4987 10.0013C17.4987 8.90695 17.2832 7.82332 16.8644 6.81227C16.4456 5.80123 15.8317 4.88257 15.0579 4.10875C14.2841 3.33492 13.3654 2.7211 12.3544 2.30231C11.3434 1.88352 10.2597 1.66797 9.16537 1.66797ZM9.16537 16.668C7.84683 16.668 6.55789 16.277 5.46157 15.5444C4.36524 14.8119 3.51076 13.7707 3.00617 12.5525C2.50159 11.3344 2.36957 9.99391 2.6268 8.7007C2.88403 7.40749 3.51897 6.21961 4.45132 5.28726C5.38367 4.35491 6.57156 3.71997 7.86477 3.46273C9.15797 3.2055 10.4984 3.33752 11.7166 3.84211C12.9348 4.34669 13.976 5.20117 14.7085 6.2975C15.441 7.39383 15.832 8.68276 15.832 10.0013C15.832 11.7694 15.1297 13.4651 13.8794 14.7153C12.6292 15.9656 10.9335 16.668 9.16537 16.668ZM11.7487 10.5263L9.9987 9.51797V5.83464C9.9987 5.61362 9.9109 5.40166 9.75462 5.24538C9.59834 5.0891 9.38638 5.0013 9.16537 5.0013C8.94436 5.0013 8.73239 5.0891 8.57611 5.24538C8.41983 5.40166 8.33204 5.61362 8.33204 5.83464V10.0013C8.33204 10.0013 8.33204 10.068 8.33204 10.1013C8.33697 10.1587 8.35104 10.215 8.3737 10.268C8.39086 10.3174 8.41321 10.3649 8.44037 10.4096C8.46317 10.457 8.49112 10.5017 8.5237 10.543L8.65704 10.6513L8.73203 10.7263L10.8987 11.9763C11.0257 12.0483 11.1694 12.0856 11.3154 12.0846C11.4999 12.0859 11.6796 12.0259 11.8264 11.9141C11.9731 11.8022 12.0786 11.6448 12.1262 11.4666C12.1739 11.2883 12.1611 11.0993 12.0897 10.9291C12.0184 10.7589 11.8926 10.6173 11.732 10.5263H11.7487Z" fill="currentColor"/>
</svg>
