<svg width="20" height="20" viewBox="0 0 20 20" fill="none" xmlns="http://www.w3.org/2000/svg">
<path d="M9.16537 1.66797C7.51719 1.66797 5.90603 2.15671 4.53562 3.07239C3.16521 3.98807 2.0971 5.28956 1.46637 6.81227C0.835642 8.33499 0.670614 10.0105 0.992158 11.6271C1.3137 13.2436 2.10737 14.7284 3.27281 15.8939C4.43825 17.0593 5.92311 17.853 7.53962 18.1745C9.15612 18.4961 10.8317 18.331 12.3544 17.7003C13.8771 17.0696 15.1786 16.0015 16.0943 14.6311C17.01 13.2606 17.4987 11.6495 17.4987 10.0013C17.4987 8.90695 17.2832 7.82332 16.8644 6.81227C16.4456 5.80123 15.8317 4.88257 15.0579 4.10875C14.2841 3.33492 13.3654 2.7211 12.3544 2.30231C11.3434 1.88352 10.2597 1.66797 9.16537 1.66797ZM9.16537 16.668C7.84683 16.668 6.55789 16.277 5.46157 15.5444C4.36524 14.8119 3.51076 13.7707 3.00617 12.5525C2.50159 11.3344 2.36957 9.99391 2.6268 8.7007C2.88403 7.40749 3.51897 6.21961 4.45132 5.28726C5.38367 4.35491 6.57156 3.71997 7.86477 3.46273C9.15797 3.2055 10.4984 3.33752 11.7166 3.84211C12.9348 4.34669 13.976 5.20117 14.7085 6.2975C15.441 7.39383 15.832 8.68276 15.832 10.0013C15.832 11.7694 15.1297 13.4651 13.8794 14.7153C12.6292 15.9656 10.9335 16.668 9.16537 16.668ZM9.16537 5.0013C8.94436 5.0013 8.73239 5.0891 8.57611 5.24538C8.41983 5.40166 8.33204 5.61362 8.33204 5.83464V8.55964L7.41537 8.0263C7.22309 7.9158 6.99478 7.8862 6.78068 7.94402C6.56657 8.00185 6.38421 8.14235 6.2737 8.33464C6.16319 8.52692 6.1336 8.75522 6.19142 8.96933C6.24925 9.18343 6.38975 9.3658 6.58203 9.4763L8.7487 10.7263H8.80703H8.88204C8.96906 10.7794 9.06509 10.8162 9.16537 10.8346C9.26249 10.8319 9.35838 10.8121 9.4487 10.7763H9.51537C9.60227 10.7384 9.68138 10.6847 9.7487 10.618C9.79438 10.5685 9.83617 10.5156 9.8737 10.4596C9.8737 10.4596 9.8737 10.4596 9.8737 10.4096C9.89409 10.361 9.9108 10.3108 9.9237 10.2596C9.92762 10.2041 9.92762 10.1485 9.9237 10.093C9.9237 10.093 9.9237 10.093 9.9237 10.043V5.83464C9.92455 5.62602 9.84712 5.42468 9.70671 5.27039C9.56631 5.11609 9.37314 5.02008 9.16537 5.0013Z" fill="currentColor"/>
</svg>
