<svg>
<path d="M11.1749 9.99992L14.7582 6.42495C14.9152 6.26804 15.0033 6.0552 15.0033 5.83329C15.0033 5.61137 14.9152 5.39854 14.7582 5.24162C14.6013 5.0847 14.3885 4.99654 14.1666 4.99654C13.9447 4.99654 13.7318 5.0847 13.5749 5.24162L9.99992 8.82492L6.42495 5.24162C6.26803 5.0847 6.0552 4.99654 5.83328 4.99654C5.61137 4.99654 5.39853 5.0847 5.24162 5.24162C5.0847 5.39854 4.99654 5.61137 4.99654 5.83329C4.99654 6.0552 5.0847 6.26804 5.24162 6.42495L8.82492 9.99992L5.24162 13.5749C5.16351 13.6524 5.10152 13.7446 5.05921 13.8462C5.0169 13.9477 4.99512 14.0566 4.99512 14.1666C4.99512 14.2767 5.0169 14.3856 5.05921 14.4871C5.10152 14.5887 5.16351 14.6808 5.24162 14.7583C5.31908 14.8364 5.41125 14.8984 5.5128 14.9407C5.61435 14.983 5.72328 15.0048 5.83328 15.0048C5.94329 15.0048 6.05222 14.983 6.15377 14.9407C6.25532 14.8984 6.34748 14.8364 6.42495 14.7583L9.99992 11.1749L13.5749 14.7583C13.6524 14.8364 13.7446 14.8984 13.8462 14.9407C13.9477 14.983 14.0566 15.0048 14.1666 15.0048C14.2767 15.0048 14.3856 14.983 14.4871 14.9407C14.5887 14.8984 14.6808 14.8364 14.7582 14.7583C14.8364 14.6808 14.8984 14.5887 14.9407 14.4871C14.983 14.3856 15.0047 14.2767 15.0047 14.1666C15.0047 14.0566 14.983 13.9477 14.9407 13.8462C14.8984 13.7446 14.8364 13.6524 14.7582 13.5749L11.1749 9.99992Z" fill="currentColor"/>
</svg>
