<svg>
<path d="M17.5 15.4167H12.35C12.2256 15.0672 12.0249 14.7497 11.7626 14.4874C11.5003 14.2251 11.1828 14.0244 10.8333 13.9V11.25H13.475C14.3574 11.279 15.2198 10.9835 15.8989 10.4194C16.5781 9.85533 17.0269 9.06183 17.1603 8.18911C17.2938 7.3164 17.1028 6.42504 16.6232 5.68376C16.1437 4.94248 15.4091 4.40272 14.5583 4.16665C14.1127 3.17921 13.3584 2.36323 12.4089 1.84149C11.4595 1.31976 10.3663 1.1205 9.29384 1.27371C8.22141 1.42692 7.22773 1.9243 6.46236 2.69101C5.697 3.45771 5.20135 4.45226 5.05 5.52498C4.37183 5.71516 3.78538 6.14432 3.39897 6.73319C3.01256 7.32207 2.8523 8.03088 2.94779 8.72875C3.04327 9.42658 3.38805 10.0663 3.91844 10.5297C4.44883 10.9931 5.12901 11.249 5.83334 11.25H9.16667V13.9C8.81717 14.0244 8.49975 14.2251 8.23742 14.4874C7.9751 14.7497 7.77444 15.0672 7.65001 15.4167H2.50001C2.27899 15.4167 2.06703 15.5044 1.91075 15.6607C1.75447 15.817 1.66667 16.029 1.66667 16.25C1.66667 16.471 1.75447 16.6829 1.91075 16.8392C2.06703 16.9955 2.27899 17.0833 2.50001 17.0833H7.65001C7.82517 17.5659 8.1447 17.9829 8.56517 18.2776C8.98559 18.5723 9.48659 18.7304 10 18.7304C10.5134 18.7304 11.0144 18.5723 11.4348 18.2776C11.8553 17.9829 12.1748 17.5659 12.35 17.0833H17.5C17.721 17.0833 17.933 16.9955 18.0893 16.8392C18.2455 16.6829 18.3333 16.471 18.3333 16.25C18.3333 16.029 18.2455 15.817 18.0893 15.6607C17.933 15.5044 17.721 15.4167 17.5 15.4167ZM5.83334 9.58333C5.50182 9.58333 5.18387 9.45158 4.94946 9.21717C4.71504 8.98275 4.58334 8.66483 4.58334 8.33332C4.58334 8.00179 4.71504 7.68385 4.94946 7.44943C5.18387 7.21501 5.50182 7.08332 5.83334 7.08332C6.05435 7.08332 6.26631 6.99552 6.4226 6.83923C6.57887 6.68296 6.66667 6.47099 6.66667 6.24998C6.66449 5.45876 6.94383 4.69256 7.45475 4.08839C7.96566 3.48423 8.67484 3.08151 9.45542 2.95225C10.236 2.82298 11.0372 2.9756 11.7155 3.38282C12.3939 3.79003 12.9053 4.42529 13.1583 5.17498C13.206 5.31818 13.2916 5.44576 13.4061 5.54409C13.5206 5.64243 13.6596 5.70783 13.8083 5.73332C14.2594 5.80853 14.6689 6.04187 14.9637 6.39154C15.2583 6.74121 15.4189 7.18436 15.4167 7.64165C15.4145 8.15593 15.2092 8.6485 14.8456 9.01217C14.4819 9.37583 13.9893 9.58108 13.475 9.58333H5.83334ZM10 17.0833C9.83517 17.0833 9.67409 17.0344 9.537 16.9428C9.4 16.8513 9.29317 16.7212 9.23009 16.5689C9.16701 16.4166 9.15051 16.2491 9.18267 16.0874C9.21484 15.9257 9.29417 15.7772 9.41075 15.6607C9.52725 15.5442 9.67576 15.4648 9.83742 15.4327C9.99909 15.4005 10.1667 15.417 10.3189 15.4801C10.4712 15.5432 10.6013 15.65 10.6929 15.787C10.7845 15.9241 10.8333 16.0852 10.8333 16.25C10.8333 16.471 10.7455 16.6829 10.5893 16.8392C10.433 16.9955 10.221 17.0833 10 17.0833Z" fill="currentColor"/>
</svg>
