<svg>
<path d="M9.16666 7.5H12.5C12.721 7.5 12.933 7.4122 13.0892 7.25593C13.2455 7.09964 13.3333 6.88769 13.3333 6.66667C13.3333 6.44565 13.2455 6.23369 13.0892 6.07741C12.933 5.92114 12.721 5.83334 12.5 5.83334H10.8333V5C10.8333 4.77899 10.7455 4.56703 10.5892 4.41074C10.433 4.25447 10.221 4.16667 9.99999 4.16667C9.77899 4.16667 9.56699 4.25447 9.41074 4.41074C9.25449 4.56703 9.16666 4.77899 9.16666 5V5.83334C8.50366 5.83334 7.86774 6.09673 7.39889 6.56557C6.93005 7.03441 6.66666 7.67029 6.66666 8.33334C6.66666 8.99634 6.93005 9.63225 7.39889 10.1011C7.86774 10.5699 8.50366 10.8333 9.16666 10.8333H10.8333C11.0543 10.8333 11.2663 10.9212 11.4226 11.0774C11.5788 11.2337 11.6667 11.4457 11.6667 11.6667C11.6667 11.8877 11.5788 12.0997 11.4226 12.2559C11.2663 12.4122 11.0543 12.5 10.8333 12.5H7.49999C7.27899 12.5 7.06702 12.5878 6.91074 12.7441C6.75446 12.9003 6.66666 13.1123 6.66666 13.3333C6.66666 13.5543 6.75446 13.7663 6.91074 13.9226C7.06702 14.0788 7.27899 14.1667 7.49999 14.1667H9.16666V15C9.16666 15.221 9.25449 15.433 9.41074 15.5893C9.56699 15.7455 9.77899 15.8333 9.99999 15.8333C10.221 15.8333 10.433 15.7455 10.5892 15.5893C10.7455 15.433 10.8333 15.221 10.8333 15V14.1667C11.4964 14.1667 12.1322 13.9033 12.6011 13.4344C13.0699 12.9656 13.3333 12.3297 13.3333 11.6667C13.3333 11.0037 13.0699 10.3678 12.6011 9.89892C12.1322 9.43009 11.4964 9.16667 10.8333 9.16667H9.16666C8.94566 9.16667 8.73366 9.07884 8.57741 8.92259C8.42116 8.76634 8.33333 8.55434 8.33333 8.33334C8.33333 8.11232 8.42116 7.90036 8.57741 7.74408C8.73366 7.5878 8.94566 7.5 9.16666 7.5ZM9.99999 0.833336C8.187 0.833336 6.41472 1.37095 4.90727 2.37819C3.39982 3.38544 2.2249 4.81708 1.5311 6.49207C0.837302 8.16706 0.655768 10.0102 1.00947 11.7883C1.36316 13.5665 2.2362 15.1998 3.51819 16.4818C4.80017 17.7638 6.43351 18.6368 8.21167 18.9905C9.98983 19.3443 11.8329 19.1627 13.5079 18.4689C15.1829 17.7751 16.6146 16.6002 17.6218 15.0928C18.6291 13.5853 19.1667 11.813 19.1667 10C19.1667 7.56885 18.2009 5.23728 16.4818 3.51819C14.7627 1.79911 12.4312 0.833336 9.99999 0.833336ZM9.99999 17.5C8.51666 17.5 7.06659 17.0602 5.83322 16.236C4.59985 15.4119 3.63856 14.2406 3.0709 12.8702C2.50324 11.4997 2.35472 9.99167 2.64411 8.53684C2.93349 7.08197 3.6478 5.74559 4.69669 4.6967C5.74559 3.64781 7.08196 2.9335 8.53683 2.64411C9.99166 2.35473 11.4997 2.50325 12.8702 3.0709C14.2406 3.63856 15.4119 4.59986 16.236 5.83323C17.0602 7.06659 17.5 8.51667 17.5 10C17.5 11.9891 16.7098 13.8968 15.3033 15.3033C13.8967 16.7098 11.9892 17.5 9.99999 17.5Z" fill="currentColor"/>
</svg>
