<svg width="20" height="20" viewBox="0 0 20 20" fill="none" xmlns="http://www.w3.org/2000/svg">
<path d="M5.83464 5.83464C5.66982 5.83464 5.5087 5.88351 5.37166 5.97508C5.23462 6.06665 5.12781 6.19679 5.06474 6.34907C5.00166 6.50134 4.98516 6.66889 5.01731 6.83054C5.04947 6.99219 5.12884 7.14068 5.24538 7.25722C5.36192 7.37377 5.51041 7.45314 5.67206 7.48529C5.83371 7.51744 6.00127 7.50094 6.15354 7.43787C6.30581 7.3748 6.43596 7.26798 6.52753 7.13094C6.61909 6.9939 6.66797 6.83279 6.66797 6.66797C6.66797 6.44695 6.58017 6.23499 6.42389 6.07871C6.26761 5.92243 6.05565 5.83464 5.83464 5.83464ZM5.83464 9.16797C5.66982 9.16797 5.5087 9.21684 5.37166 9.30841C5.23462 9.39998 5.12781 9.53013 5.06474 9.6824C5.00166 9.83467 4.98516 10.0022 5.01731 10.1639C5.04947 10.3255 5.12884 10.474 5.24538 10.5906C5.36192 10.7071 5.51041 10.7865 5.67206 10.8186C5.83371 10.8508 6.00127 10.8343 6.15354 10.7712C6.30581 10.7081 6.43596 10.6013 6.52753 10.4643C6.61909 10.3272 6.66797 10.1661 6.66797 10.0013C6.66797 9.78029 6.58017 9.56833 6.42389 9.41205C6.26761 9.25577 6.05565 9.16797 5.83464 9.16797ZM14.168 9.16797H9.16797C8.94696 9.16797 8.73499 9.25577 8.57871 9.41205C8.42243 9.56833 8.33464 9.78029 8.33464 10.0013C8.33464 10.2223 8.42243 10.4343 8.57871 10.5906C8.73499 10.7468 8.94696 10.8346 9.16797 10.8346H14.168C14.389 10.8346 14.6009 10.7468 14.7572 10.5906C14.9135 10.4343 15.0013 10.2223 15.0013 10.0013C15.0013 9.78029 14.9135 9.56833 14.7572 9.41205C14.6009 9.25577 14.389 9.16797 14.168 9.16797ZM14.168 5.83464H9.16797C8.94696 5.83464 8.73499 5.92243 8.57871 6.07871C8.42243 6.23499 8.33464 6.44695 8.33464 6.66797C8.33464 6.88898 8.42243 7.10094 8.57871 7.25722C8.73499 7.4135 8.94696 7.5013 9.16797 7.5013H14.168C14.389 7.5013 14.6009 7.4135 14.7572 7.25722C14.9135 7.10094 15.0013 6.88898 15.0013 6.66797C15.0013 6.44695 14.9135 6.23499 14.7572 6.07871C14.6009 5.92243 14.389 5.83464 14.168 5.83464ZM15.8346 1.66797H4.16797C3.50493 1.66797 2.86904 1.93136 2.4002 2.4002C1.93136 2.86904 1.66797 3.50493 1.66797 4.16797V12.5013C1.66797 13.1643 1.93136 13.8002 2.4002 14.2691C2.86904 14.7379 3.50493 15.0013 4.16797 15.0013H13.8263L16.9096 18.093C16.9875 18.1702 17.0798 18.2313 17.1814 18.2728C17.2829 18.3142 17.3916 18.3353 17.5013 18.3346C17.6106 18.3375 17.7191 18.3146 17.818 18.268C17.9702 18.2055 18.1004 18.0993 18.1924 17.9629C18.2843 17.8264 18.3338 17.6658 18.3346 17.5013V4.16797C18.3346 3.50493 18.0712 2.86904 17.6024 2.4002C17.1336 1.93136 16.4977 1.66797 15.8346 1.66797ZM16.668 15.493L14.7596 13.5763C14.6818 13.4991 14.5894 13.438 14.4879 13.3965C14.3864 13.355 14.2776 13.334 14.168 13.3346H4.16797C3.94696 13.3346 3.73499 13.2468 3.57871 13.0906C3.42243 12.9343 3.33464 12.7223 3.33464 12.5013V4.16797C3.33464 3.94695 3.42243 3.73499 3.57871 3.57871C3.73499 3.42243 3.94696 3.33464 4.16797 3.33464H15.8346C16.0556 3.33464 16.2676 3.42243 16.4239 3.57871C16.5802 3.73499 16.668 3.94695 16.668 4.16797V15.493Z" fill="currentColor"/>
</svg>
