<svg>
  <path d="M15.8329 3.33312H4.16625C3.50322 3.33312 2.86733 3.59653 2.39849 4.06537C1.92965 4.53422 1.66626 5.17009 1.66626 5.83312V14.1665C1.66626 14.8295 1.92965 15.4654 2.39849 15.9342C2.86733 16.4031 3.50322 16.6665 4.16625 16.6665H15.8329C16.496 16.6665 17.1318 16.4031 17.6007 15.9342C18.0695 15.4654 18.3329 14.8295 18.3329 14.1665V5.83312C18.3329 5.17009 18.0695 4.53422 17.6007 4.06537C17.1318 3.59653 16.496 3.33312 15.8329 3.33312ZM4.16625 14.9998C3.94525 14.9998 3.73328 14.912 3.577 14.7557C3.42072 14.5994 3.33294 14.3875 3.33294 14.1665V12.1498L6.08294 9.40812C6.23869 9.25543 6.44813 9.1699 6.66625 9.1699C6.88438 9.1699 7.09381 9.25543 7.24959 9.40812L12.8412 14.9998H4.16625ZM16.6663 14.1665C16.6663 14.3875 16.5785 14.5994 16.4222 14.7557C16.2659 14.912 16.0539 14.9998 15.8329 14.9998H15.1912L12.0162 11.8081L12.7496 11.0748C12.9054 10.9221 13.1148 10.8366 13.3329 10.8366C13.5511 10.8366 13.7605 10.9221 13.9163 11.0748L16.6663 13.8165V14.1665ZM16.6663 11.4665L15.0996 9.90812C14.6247 9.45181 13.9916 9.197 13.3329 9.197C12.6743 9.197 12.0412 9.45181 11.5663 9.90812L10.8329 10.6415L8.43294 8.24147C7.95797 7.78515 7.32488 7.53031 6.66625 7.53031C6.00763 7.53031 5.37453 7.78515 4.89959 8.24147L3.33294 9.79978V5.83312C3.33294 5.61212 3.42072 5.40015 3.577 5.24387C3.73328 5.08759 3.94525 4.99978 4.16625 4.99978H15.8329C16.0539 4.99978 16.2659 5.08759 16.4222 5.24387C16.5785 5.40015 16.6663 5.61212 16.6663 5.83312V11.4665Z" fill="currentColor"/>
</svg>
