<svg>
<path d="M16.665 14.3686C17.0779 13.7319 17.2549 12.9842 17.1681 12.2428C17.0814 11.5014 16.736 10.8079 16.1859 10.2709C15.6358 9.73388 14.912 9.38371 14.1279 9.27513C13.3438 9.16655 12.5435 9.30572 11.8524 9.67084C11.1612 10.036 10.6182 10.6064 10.3083 11.293C9.99838 11.9795 9.93904 12.7434 10.1396 13.4651C10.3401 14.1867 10.7892 14.8255 11.4166 15.2813C12.0439 15.7372 12.8141 15.9844 13.6068 15.9844C14.265 15.9814 14.91 15.8107 15.4734 15.4902L16.9068 16.8471C16.9841 16.9206 17.0764 16.9789 17.1779 17.0187C17.2795 17.0586 17.3884 17.0791 17.4984 17.0791C17.6084 17.0791 17.7173 17.0586 17.8189 17.0187C17.9204 16.9789 18.0126 16.9206 18.09 16.8471C18.1681 16.7741 18.2301 16.6874 18.2725 16.5919C18.3148 16.4962 18.3365 16.3938 18.3365 16.2902C18.3365 16.1867 18.3148 16.0841 18.2725 15.9886C18.2301 15.8929 18.1681 15.8062 18.09 15.7333L16.665 14.3686ZM14.9984 13.9215C14.6311 14.2509 14.1433 14.4347 13.6359 14.4347C13.1285 14.4347 12.6406 14.2509 12.2734 13.9215C11.9136 13.5807 11.7117 13.1196 11.7117 12.6392C11.7117 12.1587 11.9136 11.6978 12.2734 11.3569C12.4522 11.1882 12.6645 11.0545 12.8984 10.9632C13.1321 10.8719 13.3828 10.825 13.6359 10.825C13.889 10.825 14.1396 10.8719 14.3734 10.9632C14.6073 11.0545 14.8196 11.1882 14.9984 11.3569C15.3581 11.6978 15.5601 12.1587 15.5601 12.6392C15.5601 13.1196 15.3581 13.5807 14.9984 13.9215ZM15.8318 2.94118H4.16504C3.502 2.94118 2.86611 3.18907 2.39728 3.63034C1.92843 4.0716 1.66504 4.67008 1.66504 5.29412V12.3529C1.66504 12.9769 1.92843 13.5754 2.39728 14.0167C2.86611 14.458 3.502 14.7059 4.16504 14.7059H7.49838C7.71939 14.7059 7.93135 14.6233 8.08763 14.4761C8.24391 14.3291 8.3317 14.1295 8.3317 13.9215C8.3317 13.7135 8.24391 13.5141 8.08763 13.3669C7.93135 13.2199 7.71939 13.1373 7.49838 13.1373H4.16504C3.94403 13.1373 3.73206 13.0546 3.57579 12.9075C3.4195 12.7605 3.3317 12.5609 3.3317 12.3529V7.64706H16.665V8.43138C16.665 8.63939 16.7529 8.83888 16.9091 8.98597C17.0654 9.13306 17.2774 9.21568 17.4984 9.21568C17.7194 9.21568 17.9314 9.13306 18.0876 8.98597C18.2439 8.83888 18.3318 8.63939 18.3318 8.43138V5.29412C18.3318 4.67008 18.0684 4.0716 17.5995 3.63034C17.1306 3.18907 16.4948 2.94118 15.8318 2.94118ZM16.665 6.07844H3.3317V5.29412C3.3317 5.08611 3.4195 4.88661 3.57579 4.73953C3.73206 4.59244 3.94403 4.5098 4.16504 4.5098H15.8318C16.0528 4.5098 16.2646 4.59244 16.421 4.73953C16.5773 4.88661 16.665 5.08611 16.665 5.29412V6.07844ZM8.3317 9.21568H5.8317C5.61069 9.21568 5.39873 9.29832 5.24245 9.44541C5.08618 9.59249 4.99838 9.79199 4.99838 10C4.99838 10.208 5.08618 10.4075 5.24245 10.5546C5.39873 10.7017 5.61069 10.7843 5.8317 10.7843H8.3317C8.55273 10.7843 8.76468 10.7017 8.92096 10.5546C9.07724 10.4075 9.16504 10.208 9.16504 10C9.16504 9.79199 9.07724 9.59249 8.92096 9.44541C8.76468 9.29832 8.55273 9.21568 8.3317 9.21568Z" fill="currentColor"/>
</svg>
