<svg>
<path d="M5.83334 12.5H8.33334C8.55434 12.5 8.76634 12.4122 8.92259 12.2559C9.07884 12.0997 9.16667 11.8877 9.16667 11.6667C9.16667 11.4457 9.07884 11.2337 8.92259 11.0774C8.76634 10.9212 8.55434 10.8333 8.33334 10.8333H5.83334C5.61232 10.8333 5.40036 10.9212 5.24408 11.0774C5.08781 11.2337 5.00001 11.4457 5.00001 11.6667C5.00001 11.8877 5.08781 12.0997 5.24408 12.2559C5.40036 12.4122 5.61232 12.5 5.83334 12.5ZM15.8333 4.16666H4.16667C3.50363 4.16666 2.86775 4.43006 2.39891 4.8989C1.93006 5.36774 1.66667 6.00362 1.66667 6.66666V14.1667C1.66667 14.8297 1.93006 15.4656 2.39891 15.9344C2.86775 16.4032 3.50363 16.6667 4.16667 16.6667H15.8333C16.4963 16.6667 17.1323 16.4032 17.6011 15.9344C18.0699 15.4656 18.3333 14.8297 18.3333 14.1667V6.66666C18.3333 6.00362 18.0699 5.36774 17.6011 4.8989C17.1323 4.43006 16.4963 4.16666 15.8333 4.16666ZM16.6667 14.1667C16.6667 14.3877 16.5788 14.5997 16.4226 14.7559C16.2663 14.9122 16.0543 15 15.8333 15H4.16667C3.94566 15 3.7337 14.9122 3.57741 14.7559C3.42114 14.5997 3.33334 14.3877 3.33334 14.1667V9.16666H16.6667V14.1667ZM16.6667 7.5H3.33334V6.66666C3.33334 6.44565 3.42114 6.23369 3.57741 6.07741C3.7337 5.92113 3.94566 5.83333 4.16667 5.83333H15.8333C16.0543 5.83333 16.2663 5.92113 16.4226 6.07741C16.5788 6.23369 16.6667 6.44565 16.6667 6.66666V7.5Z" fill="currentColor"/>
</svg>
