<svg>
<path d="M8.33333 15.0003C8.55435 15.0003 8.76631 14.9125 8.92259 14.7562C9.07887 14.6 9.16667 14.388 9.16667 14.167V9.16699C9.16667 8.94598 9.07887 8.73402 8.92259 8.57774C8.76631 8.42146 8.55435 8.33366 8.33333 8.33366C8.11232 8.33366 7.90036 8.42146 7.74408 8.57774C7.5878 8.73402 7.5 8.94598 7.5 9.16699V14.167C7.5 14.388 7.5878 14.6 7.74408 14.7562C7.90036 14.9125 8.11232 15.0003 8.33333 15.0003ZM16.6667 5.00033H13.3333V4.16699C13.3333 3.50395 13.0699 2.86807 12.6011 2.39923C12.1323 1.93038 11.4964 1.66699 10.8333 1.66699H9.16667C8.50363 1.66699 7.86774 1.93038 7.3989 2.39923C6.93006 2.86807 6.66667 3.50395 6.66667 4.16699V5.00033H3.33333C3.11232 5.00033 2.90036 5.08812 2.74408 5.2444C2.5878 5.40068 2.5 5.61265 2.5 5.83366C2.5 6.05467 2.5878 6.26663 2.74408 6.42291C2.90036 6.5792 3.11232 6.66699 3.33333 6.66699H4.16667V15.8337C4.16667 16.4967 4.43006 17.1326 4.8989 17.6014C5.36774 18.0703 6.00363 18.3337 6.66667 18.3337H13.3333C13.9964 18.3337 14.6323 18.0703 15.1011 17.6014C15.5699 17.1326 15.8333 16.4967 15.8333 15.8337V6.66699H16.6667C16.8877 6.66699 17.0996 6.5792 17.2559 6.42291C17.4122 6.26663 17.5 6.05467 17.5 5.83366C17.5 5.61265 17.4122 5.40068 17.2559 5.2444C17.0996 5.08812 16.8877 5.00033 16.6667 5.00033ZM8.33333 4.16699C8.33333 3.94598 8.42113 3.73402 8.57741 3.57774C8.73369 3.42146 8.94565 3.33366 9.16667 3.33366H10.8333C11.0543 3.33366 11.2663 3.42146 11.4226 3.57774C11.5789 3.73402 11.6667 3.94598 11.6667 4.16699V5.00033H8.33333V4.16699ZM14.1667 15.8337C14.1667 16.0547 14.0789 16.2666 13.9226 16.4229C13.7663 16.5792 13.5543 16.667 13.3333 16.667H6.66667C6.44565 16.667 6.23369 16.5792 6.07741 16.4229C5.92113 16.2666 5.83333 16.0547 5.83333 15.8337V6.66699H14.1667V15.8337ZM11.6667 15.0003C11.8877 15.0003 12.0996 14.9125 12.2559 14.7562C12.4122 14.6 12.5 14.388 12.5 14.167V9.16699C12.5 8.94598 12.4122 8.73402 12.2559 8.57774C12.0996 8.42146 11.8877 8.33366 11.6667 8.33366C11.4457 8.33366 11.2337 8.42146 11.0774 8.57774C10.9211 8.73402 10.8333 8.94598 10.8333 9.16699V14.167C10.8333 14.388 10.9211 14.6 11.0774 14.7562C11.2337 14.9125 11.4457 15.0003 11.6667 15.0003Z" fill="currentColor"/>
</svg>
