<svg>
<path d="M12.9509 9.40796L8.23425 4.69962C8.15679 4.62152 8.06462 4.55952 7.96307 4.51721C7.86152 4.47491 7.7526 4.45312 7.64259 4.45312C7.53258 4.45312 7.42366 4.47491 7.32211 4.51721C7.22056 4.55952 7.12839 4.62152 7.05092 4.69962C6.89571 4.85576 6.80859 5.06697 6.80859 5.28712C6.80859 5.50728 6.89571 5.71849 7.05092 5.87462L11.1759 10.0413L7.05092 14.1663C6.89571 14.3224 6.80859 14.5336 6.80859 14.7538C6.80859 14.9739 6.89571 15.1852 7.05092 15.3413C7.1281 15.42 7.22014 15.4827 7.3217 15.5256C7.42326 15.5685 7.53233 15.5908 7.64259 15.5913C7.75284 15.5908 7.86191 15.5685 7.96347 15.5256C8.06504 15.4827 8.15708 15.42 8.23425 15.3413L12.9509 10.633C13.0355 10.5549 13.103 10.4602 13.1492 10.3548C13.1954 10.2494 13.2192 10.1355 13.2192 10.0205C13.2192 9.90537 13.1954 9.79153 13.1492 9.68612C13.103 9.5807 13.0355 9.48599 12.9509 9.40796Z" fill="currentColor"/>
</svg>
