<svg width="20" height="20" viewBox="0 0 20 20" fill="none" xmlns="http://www.w3.org/2000/svg">
<path d="M11.6667 9.16797H10.8333V5.83464H12.5C12.721 5.83464 12.933 5.92243 13.0893 6.07871C13.2455 6.23499 13.3333 6.44696 13.3333 6.66797C13.3333 6.88898 13.4211 7.10094 13.5774 7.25722C13.7337 7.4135 13.9457 7.5013 14.1667 7.5013C14.3877 7.5013 14.5996 7.4135 14.7559 7.25722C14.9122 7.10094 15 6.88898 15 6.66797C15 6.00493 14.7366 5.36904 14.2678 4.9002C13.7989 4.43136 13.163 4.16797 12.5 4.16797H10.8333V2.5013C10.8333 2.28029 10.7455 2.06833 10.5893 1.91205C10.433 1.75577 10.221 1.66797 10 1.66797C9.77899 1.66797 9.56702 1.75577 9.41074 1.91205C9.25446 2.06833 9.16667 2.28029 9.16667 2.5013V4.16797H8.33333C7.44928 4.16797 6.60143 4.51916 5.97631 5.14428C5.35119 5.7694 5 6.61725 5 7.5013C5 8.38536 5.35119 9.2332 5.97631 9.85833C6.60143 10.4834 7.44928 10.8346 8.33333 10.8346H9.16667V14.168H7.5C7.27899 14.168 7.06702 14.0802 6.91074 13.9239C6.75446 13.7676 6.66667 13.5556 6.66667 13.3346C6.66667 13.1136 6.57887 12.9017 6.42259 12.7454C6.26631 12.5891 6.05435 12.5013 5.83333 12.5013C5.61232 12.5013 5.40036 12.5891 5.24408 12.7454C5.0878 12.9017 5 13.1136 5 13.3346C5 13.9977 5.26339 14.6336 5.73223 15.1024C6.20107 15.5712 6.83696 15.8346 7.5 15.8346H9.16667V17.5013C9.16667 17.7223 9.25446 17.9343 9.41074 18.0906C9.56702 18.2468 9.77899 18.3346 10 18.3346C10.221 18.3346 10.433 18.2468 10.5893 18.0906C10.7455 17.9343 10.8333 17.7223 10.8333 17.5013V15.8346H11.6667C12.5507 15.8346 13.3986 15.4834 14.0237 14.8583C14.6488 14.2332 15 13.3854 15 12.5013C15 11.6172 14.6488 10.7694 14.0237 10.1443C13.3986 9.51916 12.5507 9.16797 11.6667 9.16797ZM9.16667 9.16797H8.33333C7.89131 9.16797 7.46738 8.99237 7.15482 8.67981C6.84226 8.36725 6.66667 7.94333 6.66667 7.5013C6.66667 7.05927 6.84226 6.63535 7.15482 6.32279C7.46738 6.01023 7.89131 5.83464 8.33333 5.83464H9.16667V9.16797ZM11.6667 14.168H10.8333V10.8346H11.6667C12.1087 10.8346 12.5326 11.0102 12.8452 11.3228C13.1577 11.6354 13.3333 12.0593 13.3333 12.5013C13.3333 12.9433 13.1577 13.3673 12.8452 13.6798C12.5326 13.9924 12.1087 14.168 11.6667 14.168Z" fill="currentColor"/>
</svg>
