<svg width="20" height="20" viewBox="0 0 20 20" fill="none" xmlns="http://www.w3.org/2000/svg">
<path d="M18.2677 9.68153C18.2281 9.57924 18.1686 9.48579 18.0927 9.40653L14.7594 6.0732C14.6817 5.9955 14.5894 5.93387 14.4879 5.89182C14.3864 5.84977 14.2776 5.82813 14.1677 5.82813C13.9458 5.82812 13.733 5.91628 13.5761 6.0732C13.4191 6.23012 13.331 6.44295 13.331 6.66487C13.331 6.88679 13.4191 7.09961 13.5761 7.25653L15.4927 9.16487H4.50939L6.42605 7.25653C6.50375 7.17884 6.56539 7.08659 6.60744 6.98508C6.64949 6.88356 6.67113 6.77475 6.67113 6.66487C6.67113 6.55499 6.64949 6.44618 6.60744 6.34466C6.56539 6.24314 6.50375 6.1509 6.42605 6.0732C6.34835 5.9955 6.25611 5.93387 6.15459 5.89182C6.05308 5.84977 5.94427 5.82812 5.83439 5.82813C5.7245 5.82813 5.6157 5.84977 5.51418 5.89182C5.41266 5.93387 5.32042 5.9955 5.24272 6.0732L1.90939 9.40653C1.83352 9.48579 1.77405 9.57924 1.73439 9.68153C1.65104 9.88442 1.65104 10.112 1.73439 10.3149C1.77405 10.4172 1.83352 10.5106 1.90939 10.5899L5.24272 13.9232C5.32019 14.0013 5.41236 14.0633 5.51391 14.1056C5.61546 14.1479 5.72438 14.1697 5.83439 14.1697C5.9444 14.1697 6.05332 14.1479 6.15487 14.1056C6.25642 14.0633 6.34858 14.0013 6.42605 13.9232C6.50416 13.8457 6.56616 13.7536 6.60846 13.652C6.65077 13.5505 6.67255 13.4415 6.67255 13.3315C6.67255 13.2215 6.65077 13.1126 6.60846 13.0111C6.56616 12.9095 6.50416 12.8173 6.42605 12.7399L4.50939 10.8315H15.4927L13.5761 12.7399C13.4979 12.8173 13.436 12.9095 13.3936 13.0111C13.3513 13.1126 13.3296 13.2215 13.3296 13.3315C13.3296 13.4415 13.3513 13.5505 13.3936 13.652C13.436 13.7536 13.4979 13.8457 13.5761 13.9232C13.6535 14.0013 13.7457 14.0633 13.8472 14.1056C13.9488 14.1479 14.0577 14.1697 14.1677 14.1697C14.2777 14.1697 14.3867 14.1479 14.4882 14.1056C14.5898 14.0633 14.6819 14.0013 14.7594 13.9232L18.0927 10.5899C18.1686 10.5106 18.2281 10.4172 18.2677 10.3149C18.3511 10.112 18.3511 9.88442 18.2677 9.68153Z" fill="currentColor"/>
</svg>
