<svg>
<path d="M17.5 7.45033C17.4913 7.37377 17.4746 7.29835 17.45 7.22533V7.15033C17.4099 7.06464 17.3565 6.98588 17.2917 6.91699L12.2917 1.91699C12.2228 1.85217 12.144 1.79873 12.0583 1.75866C12.0335 1.75513 12.0082 1.75513 11.9833 1.75866C11.8987 1.71011 11.8052 1.67895 11.7083 1.66699H8.33333C7.67029 1.66699 7.03441 1.93038 6.56557 2.39923C6.09673 2.86807 5.83333 3.50395 5.83333 4.16699V5.00033H5C4.33696 5.00033 3.70107 5.26372 3.23223 5.73256C2.76339 6.2014 2.5 6.83728 2.5 7.50033V15.8337C2.5 16.4967 2.76339 17.1326 3.23223 17.6014C3.70107 18.0703 4.33696 18.3337 5 18.3337H11.6667C12.3297 18.3337 12.9656 18.0703 13.4344 17.6014C13.9033 17.1326 14.1667 16.4967 14.1667 15.8337V15.0003H15C15.663 15.0003 16.2989 14.7369 16.7678 14.2681C17.2366 13.7993 17.5 13.1634 17.5 12.5003V7.50033C17.5 7.50033 17.5 7.50033 17.5 7.45033ZM12.5 4.50866L14.6583 6.66699H13.3333C13.1123 6.66699 12.9004 6.5792 12.7441 6.42291C12.5878 6.26663 12.5 6.05467 12.5 5.83366V4.50866ZM12.5 15.8337C12.5 16.0547 12.4122 16.2666 12.2559 16.4229C12.0996 16.5792 11.8877 16.667 11.6667 16.667H5C4.77899 16.667 4.56702 16.5792 4.41074 16.4229C4.25446 16.2666 4.16667 16.0547 4.16667 15.8337V7.50033C4.16667 7.27931 4.25446 7.06735 4.41074 6.91107C4.56702 6.75479 4.77899 6.66699 5 6.66699H5.83333V12.5003C5.83333 13.1634 6.09673 13.7993 6.56557 14.2681C7.03441 14.7369 7.67029 15.0003 8.33333 15.0003H12.5V15.8337ZM15.8333 12.5003C15.8333 12.7213 15.7455 12.9333 15.5893 13.0896C15.433 13.2459 15.221 13.3337 15 13.3337H8.33333C8.11232 13.3337 7.90036 13.2459 7.74408 13.0896C7.5878 12.9333 7.5 12.7213 7.5 12.5003V4.16699C7.5 3.94598 7.5878 3.73402 7.74408 3.57774C7.90036 3.42146 8.11232 3.33366 8.33333 3.33366H10.8333V5.83366C10.8333 6.4967 11.0967 7.13259 11.5656 7.60143C12.0344 8.07027 12.6703 8.33366 13.3333 8.33366H15.8333V12.5003Z" fill="currentColor"/>
</svg>
