<svg>
<path d="M17.5 9.99991C17.279 9.99991 17.067 10.0877 16.9108 10.244C16.7545 10.4003 16.6667 10.6122 16.6667 10.8332V15.8332C16.6667 16.0543 16.5788 16.2662 16.4226 16.4225C16.2663 16.5788 16.0543 16.6666 15.8333 16.6666H4.16667C3.94565 16.6666 3.73369 16.5788 3.57741 16.4225C3.42113 16.2662 3.33333 16.0543 3.33333 15.8332V4.16661C3.33333 3.9456 3.42113 3.73364 3.57741 3.57736C3.73369 3.42108 3.94565 3.33328 4.16667 3.33328H9.16667C9.38767 3.33328 9.59967 3.24548 9.75592 3.08921C9.91217 2.93292 10 2.72096 10 2.49995C10 2.27893 9.91217 2.06697 9.75592 1.91069C9.59967 1.75441 9.38767 1.66661 9.16667 1.66661H4.16667C3.50363 1.66661 2.86774 1.93001 2.3989 2.39885C1.93006 2.86769 1.66667 3.50357 1.66667 4.16661V15.8332C1.66667 16.4963 1.93006 17.1322 2.3989 17.6011C2.86774 18.0699 3.50363 18.3332 4.16667 18.3332H15.8333C16.4963 18.3332 17.1323 18.0699 17.6011 17.6011C18.0699 17.1322 18.3333 16.4963 18.3333 15.8332V10.8332C18.3333 10.6122 18.2455 10.4003 18.0893 10.244C17.933 10.0877 17.721 9.99991 17.5 9.99991ZM5 10.6332V14.1666C5 14.3877 5.0878 14.5996 5.24408 14.7558C5.40036 14.9122 5.61232 14.9999 5.83333 14.9999H9.36667C9.47633 15.0006 9.58509 14.9796 9.68659 14.9381C9.78809 14.8966 9.8805 14.8355 9.95833 14.7582L15.725 8.98325L18.0917 6.66661C18.1698 6.58915 18.2318 6.49697 18.2741 6.39543C18.3164 6.29388 18.3382 6.18496 18.3382 6.07495C18.3382 5.96494 18.3164 5.85601 18.2741 5.75446C18.2318 5.65291 18.1698 5.56075 18.0917 5.48328L14.5583 1.90828C14.4808 1.83017 14.3887 1.76818 14.2872 1.72587C14.1856 1.68356 14.0767 1.66178 13.9667 1.66178C13.8567 1.66178 13.7478 1.68356 13.6462 1.72587C13.5447 1.76818 13.4525 1.83017 13.375 1.90828L11.025 4.26661L5.24167 10.0416C5.16443 10.1195 5.10333 10.2118 5.06186 10.3133C5.02038 10.4149 4.99937 10.5236 5 10.6332ZM13.9667 3.67495L16.325 6.03328L15.1417 7.21661L12.7833 4.85828L13.9667 3.67495ZM6.66667 10.9749L11.6083 6.03328L13.9667 8.39158L9.025 13.3332H6.66667V10.9749Z" fill="currentColor"/>
</svg>
