<svg width="20" height="20" viewBox="0 0 20 20" fill="none" xmlns="http://www.w3.org/2000/svg">
<path d="M18.5083 8.57577L17.0667 7.14244C17.4159 6.57595 17.6033 5.92458 17.6083 5.25911C17.6067 4.54945 17.3948 3.85619 16.9996 3.26683C16.6043 2.67746 16.0432 2.2184 15.3873 1.94759C14.7313 1.67678 14.0099 1.60635 13.3139 1.7452C12.618 1.88405 11.9788 2.22596 11.477 2.72776C10.9752 3.22956 10.6333 3.86877 10.4944 4.5647C10.3556 5.26064 10.426 5.98212 10.6968 6.63807C10.9676 7.29402 11.4267 7.85504 12.0161 8.25033C12.6054 8.64562 13.2987 8.85746 14.0083 8.85911C14.6722 8.85905 15.3235 8.67751 15.8917 8.33411L17.325 9.77577C17.4025 9.85388 17.4946 9.91588 17.5962 9.95818C17.6977 10.0005 17.8067 10.0223 17.9167 10.0223C18.0267 10.0223 18.1356 10.0005 18.2371 9.95818C18.3387 9.91588 18.4309 9.85388 18.5083 9.77577C18.589 9.69804 18.6531 9.60484 18.697 9.50175C18.7408 9.39866 18.7634 9.28779 18.7634 9.17577C18.7634 9.06376 18.7408 8.95289 18.697 8.8498C18.6531 8.74671 18.589 8.65351 18.5083 8.57577ZM15.375 6.66744C15.0077 7.01744 14.5198 7.21268 14.0125 7.21268C13.5052 7.21268 13.0173 7.01744 12.65 6.66744C12.4697 6.48855 12.3268 6.2756 12.2295 6.04099C12.1322 5.80637 12.0825 5.55476 12.0833 5.30077C12.0789 5.04479 12.1254 4.79048 12.22 4.55261C12.3147 4.31473 12.4557 4.09802 12.6347 3.91506C12.8138 3.7321 13.0275 3.58653 13.2633 3.48681C13.4991 3.38708 13.7523 3.33517 14.0083 3.33411C14.2623 3.3333 14.5139 3.38298 14.7485 3.48026C14.9832 3.57754 15.1961 3.72048 15.375 3.90077C15.555 4.07812 15.6979 4.2896 15.7952 4.52284C15.8925 4.75608 15.9423 5.00639 15.9417 5.25911C15.9481 5.52007 15.9012 5.77959 15.8037 6.02177C15.7063 6.26394 15.5604 6.48365 15.375 6.66744ZM17.0833 11.6674C16.8623 11.6674 16.6504 11.7552 16.4941 11.9115C16.3378 12.0678 16.25 12.2798 16.25 12.5008V15.8341C16.25 16.0551 16.1622 16.2671 16.0059 16.4234C15.8496 16.5796 15.6377 16.6674 15.4167 16.6674H3.75C3.52899 16.6674 3.31702 16.5796 3.16074 16.4234C3.00446 16.2671 2.91667 16.0551 2.91667 15.8341V7.84244L7.81667 12.7508C8.28542 13.2189 8.92083 13.4819 9.58333 13.4819C10.2458 13.4819 10.8812 13.2189 11.35 12.7508L12.5 11.5674C12.6569 11.4105 12.7451 11.1977 12.7451 10.9758C12.7451 10.7539 12.6569 10.541 12.5 10.3841C12.3431 10.2272 12.1303 10.139 11.9083 10.139C11.6864 10.139 11.4736 10.2272 11.3167 10.3841L10.1667 11.5674C10.0109 11.7201 9.80146 11.8057 9.58333 11.8057C9.36521 11.8057 9.15577 11.7201 9 11.5674L4.09167 6.66744H7.91667C8.13768 6.66744 8.34964 6.57964 8.50592 6.42336C8.6622 6.26708 8.75 6.05512 8.75 5.83411C8.75 5.61309 8.6622 5.40113 8.50592 5.24485C8.34964 5.08857 8.13768 5.00077 7.91667 5.00077H3.75C3.08696 5.00077 2.45107 5.26417 1.98223 5.73301C1.51339 6.20185 1.25 6.83773 1.25 7.50077V15.8341C1.25 16.4971 1.51339 17.133 1.98223 17.6019C2.45107 18.0707 3.08696 18.3341 3.75 18.3341H15.4167C16.0797 18.3341 16.7156 18.0707 17.1844 17.6019C17.6533 17.133 17.9167 16.4971 17.9167 15.8341V12.5008C17.9167 12.2798 17.8289 12.0678 17.6726 11.9115C17.5163 11.7552 17.3043 11.6674 17.0833 11.6674Z" fill="#2D2D2F"/>
</svg>
