<svg>
<path d="M15.8333 3.33334H4.16667C3.50363 3.33334 2.86775 3.59673 2.39891 4.06557C1.93006 4.53441 1.66667 5.17029 1.66667 5.83334V14.1667C1.66667 14.8297 1.93006 15.4656 2.39891 15.9344C2.86775 16.4033 3.50363 16.6667 4.16667 16.6667H15.8333C16.4963 16.6667 17.1323 16.4033 17.6011 15.9344C18.0699 15.4656 18.3333 14.8297 18.3333 14.1667V5.83334C18.3333 5.17029 18.0699 4.53441 17.6011 4.06557C17.1323 3.59673 16.4963 3.33334 15.8333 3.33334ZM4.16667 5H15.8333C16.0543 5 16.2663 5.0878 16.4226 5.24408C16.5788 5.40036 16.6667 5.61232 16.6667 5.83334L10 9.9L3.33334 5.83334C3.33334 5.61232 3.42114 5.40036 3.57741 5.24408C3.7337 5.0878 3.94566 5 4.16667 5ZM16.6667 14.1667C16.6667 14.3877 16.5788 14.5997 16.4226 14.7559C16.2663 14.9122 16.0543 15 15.8333 15H4.16667C3.94566 15 3.7337 14.9122 3.57741 14.7559C3.42114 14.5997 3.33334 14.3877 3.33334 14.1667V7.73334L9.56667 11.5417C9.69334 11.6148 9.83709 11.6533 9.98334 11.6533C10.1296 11.6533 10.2733 11.6148 10.4 11.5417L16.6667 7.73334V14.1667Z" fill="currentColor"/>
</svg>
