<svg width="20" height="20" viewBox="0 0 20 20" fill="none" xmlns="http://www.w3.org/2000/svg">
<g clip-path="url(#clip0_3175_23160)">
<path d="M14.1667 18.0234H4.16667C3.50363 18.0234 2.86774 17.76 2.3989 17.2912C1.93006 16.8224 1.66667 16.1865 1.66667 15.5234V8.85677C1.66667 8.63576 1.57887 8.4238 1.42259 8.26752C1.26631 8.11124 1.05435 8.02344 0.833333 8.02344C0.61232 8.02344 0.400358 8.11124 0.244078 8.26752C0.0877974 8.4238 0 8.63576 0 8.85677L0 15.5234C0 16.6285 0.438987 17.6883 1.22039 18.4697C2.00179 19.2511 3.0616 19.6901 4.16667 19.6901H14.1667C14.3877 19.6901 14.5996 19.6023 14.7559 19.446C14.9122 19.2897 15 19.0778 15 18.8568C15 18.6358 14.9122 18.4238 14.7559 18.2675C14.5996 18.1112 14.3877 18.0234 14.1667 18.0234ZM17.5 3.02344H5.83333C5.17029 3.02344 4.53441 3.28683 4.06557 3.75567C3.59673 4.22451 3.33333 4.8604 3.33333 5.52344V13.8568C3.33333 14.5198 3.59673 15.1557 4.06557 15.6245C4.53441 16.0934 5.17029 16.3568 5.83333 16.3568H17.5C18.163 16.3568 18.7989 16.0934 19.2678 15.6245C19.7366 15.1557 20 14.5198 20 13.8568V5.52344C20 4.8604 19.7366 4.22451 19.2678 3.75567C18.7989 3.28683 18.163 3.02344 17.5 3.02344ZM17.1583 4.6901L12.2583 9.5901C12.1809 9.66821 12.0887 9.73021 11.9871 9.77251C11.8856 9.81482 11.7767 9.8366 11.6667 9.8366C11.5567 9.8366 11.4477 9.81482 11.3462 9.77251C11.2446 9.73021 11.1525 9.66821 11.075 9.5901L6.175 4.6901H17.1583ZM18.3333 13.8568C18.3333 14.0778 18.2455 14.2897 18.0893 14.446C17.933 14.6023 17.721 14.6901 17.5 14.6901H5.83333C5.61232 14.6901 5.40036 14.6023 5.24408 14.446C5.0878 14.2897 5 14.0778 5 13.8568V5.83177L9.9 10.7318C10.3688 11.1999 11.0042 11.4629 11.6667 11.4629C12.3292 11.4629 12.9646 11.1999 13.4333 10.7318L18.3333 5.83177V13.8568Z" fill="currentColor"/>
</g>
<defs>
<clipPath id="clip0_3175_23160">
<rect width="20" height="20" fill="white"/>
</clipPath>
</defs>
</svg>
