<svg>
<path d="M9.99995 5.83335C9.77895 5.83335 9.567 5.92115 9.4107 6.07745C9.2544 6.2337 9.16665 6.44565 9.16665 6.6667V10C9.16665 10.221 9.2544 10.433 9.4107 10.5893C9.567 10.7455 9.77895 10.8333 9.99995 10.8333C10.221 10.8333 10.433 10.7455 10.5892 10.5893C10.7455 10.433 10.8333 10.221 10.8333 10V6.6667C10.8333 6.44565 10.7455 6.2337 10.5892 6.07745C10.433 5.92115 10.221 5.83335 9.99995 5.83335ZM9.99995 12.5C9.83515 12.5 9.67405 12.5489 9.537 12.6404C9.39995 12.732 9.29315 12.8622 9.23005 13.0144C9.167 13.1667 9.1505 13.3343 9.18265 13.4959C9.2148 13.6576 9.29415 13.806 9.4107 13.9226C9.52725 14.0391 9.67575 14.1185 9.8374 14.1507C9.99905 14.1828 10.1666 14.1663 10.3189 14.1032C10.4712 14.0402 10.6013 13.9333 10.6929 13.7963C10.7844 13.6593 10.8333 13.4981 10.8333 13.3333C10.8333 13.1123 10.7455 12.9004 10.5892 12.7441C10.433 12.5878 10.221 12.5 9.99995 12.5ZM18.0917 6.3L13.7 1.90835C13.5403 1.75607 13.329 1.66975 13.1083 1.66668H6.89165C6.671 1.66975 6.45965 1.75607 6.29995 1.90835L1.9083 6.3C1.75602 6.4597 1.6697 6.67105 1.66663 6.8917V13.1083C1.6697 13.329 1.75602 13.5403 1.9083 13.7L6.29995 18.0917C6.45965 18.2439 6.671 18.3303 6.89165 18.3333H13.1083C13.329 18.3303 13.5403 18.2439 13.7 18.0917L18.0917 13.7C18.2439 13.5403 18.3302 13.329 18.3333 13.1083V6.8917C18.3302 6.67105 18.2439 6.4597 18.0917 6.3ZM16.6667 12.7583L12.7583 16.6667H7.24165L3.3333 12.7583V7.2417L7.24165 3.33335H12.7583L16.6667 7.2417V12.7583Z" fill="currentColor"/>
</svg>
