<svg>
  <path
    d="M3.33203 10.0013C3.33203 10.2223 3.41983 10.4343 3.57611 10.5906C3.73239 10.7468 3.94435 10.8346 4.16536 10.8346H10.4904L8.5737 12.743C8.49559 12.8204 8.4336 12.9126 8.39129 13.0142C8.34898 13.1157 8.3272 13.2246 8.3272 13.3346C8.3272 13.4446 8.34898 13.5536 8.39129 13.6551C8.4336 13.7567 8.49559 13.8488 8.5737 13.9263C8.65117 14.0044 8.74333 14.0664 8.84488 14.1087C8.94643 14.151 9.05535 14.1728 9.16536 14.1728C9.27537 14.1728 9.3843 14.151 9.48585 14.1087C9.58739 14.0664 9.67956 14.0044 9.75703 13.9263L13.0904 10.593C13.1662 10.5137 13.2257 10.4203 13.2654 10.318C13.3487 10.1151 13.3487 9.88752 13.2654 9.68464C13.2257 9.58234 13.1662 9.48889 13.0904 9.40964L9.75703 6.0763C9.67933 5.9986 9.58709 5.93697 9.48557 5.89492C9.38405 5.85287 9.27525 5.83123 9.16536 5.83123C9.05548 5.83123 8.94667 5.85287 8.84516 5.89492C8.74364 5.93697 8.6514 5.9986 8.5737 6.0763C8.496 6.154 8.43436 6.24624 8.39231 6.34776C8.35026 6.44928 8.32862 6.55809 8.32862 6.66797C8.32862 6.77785 8.35026 6.88666 8.39231 6.98818C8.43436 7.0897 8.496 7.18194 8.5737 7.25964L10.4904 9.16797H4.16536C3.94435 9.16797 3.73239 9.25577 3.57611 9.41205C3.41983 9.56833 3.33203 9.78029 3.33203 10.0013ZM14.1654 1.66797H5.83203C5.16899 1.66797 4.53311 1.93136 4.06426 2.4002C3.59542 2.86904 3.33203 3.50493 3.33203 4.16797V6.66797C3.33203 6.88898 3.41983 7.10094 3.57611 7.25722C3.73239 7.4135 3.94435 7.5013 4.16536 7.5013C4.38638 7.5013 4.59834 7.4135 4.75462 7.25722C4.9109 7.10094 4.9987 6.88898 4.9987 6.66797V4.16797C4.9987 3.94696 5.0865 3.73499 5.24278 3.57871C5.39906 3.42243 5.61102 3.33464 5.83203 3.33464H14.1654C14.3864 3.33464 14.5983 3.42243 14.7546 3.57871C14.9109 3.73499 14.9987 3.94696 14.9987 4.16797V15.8346C14.9987 16.0556 14.9109 16.2676 14.7546 16.4239C14.5983 16.5802 14.3864 16.668 14.1654 16.668H5.83203C5.61102 16.668 5.39906 16.5802 5.24278 16.4239C5.0865 16.2676 4.9987 16.0556 4.9987 15.8346V13.3346C4.9987 13.1136 4.9109 12.9017 4.75462 12.7454C4.59834 12.5891 4.38638 12.5013 4.16536 12.5013C3.94435 12.5013 3.73239 12.5891 3.57611 12.7454C3.41983 12.9017 3.33203 13.1136 3.33203 13.3346V15.8346C3.33203 16.4977 3.59542 17.1336 4.06426 17.6024C4.53311 18.0712 5.16899 18.3346 5.83203 18.3346H14.1654C14.8284 18.3346 15.4643 18.0712 15.9331 17.6024C16.402 17.1336 16.6654 16.4977 16.6654 15.8346V4.16797C16.6654 3.50493 16.402 2.86904 15.9331 2.4002C15.4643 1.93136 14.8284 1.66797 14.1654 1.66797Z"
    fill="currentColor"
  />
</svg>
