<svg>
  <path
    d="M7.4987 8.33464H8.33203C8.55304 8.33464 8.76501 8.24684 8.92129 8.09056C9.07757 7.93428 9.16536 7.72232 9.16536 7.5013C9.16536 7.28029 9.07757 7.06833 8.92129 6.91205C8.76501 6.75577 8.55304 6.66797 8.33203 6.66797H7.4987C7.27768 6.66797 7.06572 6.75577 6.90944 6.91205C6.75316 7.06833 6.66536 7.28029 6.66536 7.5013C6.66536 7.72232 6.75316 7.93428 6.90944 8.09056C7.06572 8.24684 7.27768 8.33464 7.4987 8.33464ZM7.4987 10.0013C7.27768 10.0013 7.06572 10.0891 6.90944 10.2454C6.75316 10.4017 6.66536 10.6136 6.66536 10.8346C6.66536 11.0556 6.75316 11.2676 6.90944 11.4239C7.06572 11.5802 7.27768 11.668 7.4987 11.668H12.4987C12.7197 11.668 12.9317 11.5802 13.088 11.4239C13.2442 11.2676 13.332 11.0556 13.332 10.8346C13.332 10.6136 13.2442 10.4017 13.088 10.2454C12.9317 10.0891 12.7197 10.0013 12.4987 10.0013H7.4987ZM16.6654 7.4513C16.6567 7.37475 16.6399 7.29933 16.6154 7.2263V7.1513C16.5753 7.06562 16.5219 6.98686 16.457 6.91797L11.457 1.91797C11.3881 1.85315 11.3094 1.7997 11.2237 1.75964C11.1988 1.7561 11.1736 1.7561 11.1487 1.75964C11.064 1.71109 10.9706 1.67992 10.8737 1.66797H5.83203C5.16899 1.66797 4.53311 1.93136 4.06426 2.4002C3.59542 2.86904 3.33203 3.50493 3.33203 4.16797V15.8346C3.33203 16.4977 3.59542 17.1336 4.06426 17.6024C4.53311 18.0712 5.16899 18.3346 5.83203 18.3346H14.1654C14.8284 18.3346 15.4643 18.0712 15.9331 17.6024C16.402 17.1336 16.6654 16.4977 16.6654 15.8346V7.5013C16.6654 7.5013 16.6654 7.5013 16.6654 7.4513ZM11.6654 4.50964L13.8237 6.66797H12.4987C12.2777 6.66797 12.0657 6.58017 11.9094 6.42389C11.7532 6.26761 11.6654 6.05565 11.6654 5.83464V4.50964ZM14.9987 15.8346C14.9987 16.0556 14.9109 16.2676 14.7546 16.4239C14.5983 16.5802 14.3864 16.668 14.1654 16.668H5.83203C5.61102 16.668 5.39906 16.5802 5.24278 16.4239C5.0865 16.2676 4.9987 16.0556 4.9987 15.8346V4.16797C4.9987 3.94696 5.0865 3.73499 5.24278 3.57871C5.39906 3.42243 5.61102 3.33464 5.83203 3.33464H9.9987V5.83464C9.9987 6.49768 10.2621 7.13356 10.7309 7.6024C11.1998 8.07124 11.8357 8.33464 12.4987 8.33464H14.9987V15.8346ZM12.4987 13.3346H7.4987C7.27768 13.3346 7.06572 13.4224 6.90944 13.5787C6.75316 13.735 6.66536 13.947 6.66536 14.168C6.66536 14.389 6.75316 14.6009 6.90944 14.7572C7.06572 14.9135 7.27768 15.0013 7.4987 15.0013H12.4987C12.7197 15.0013 12.9317 14.9135 13.088 14.7572C13.2442 14.6009 13.332 14.389 13.332 14.168C13.332 13.947 13.2442 13.735 13.088 13.5787C12.9317 13.4224 12.7197 13.3346 12.4987 13.3346Z"
    fill="currentColor"
  />
</svg>
