<svg width="20" height="20" viewBox="0 0 20 20" fill="none" xmlns="http://www.w3.org/2000/svg">
<path d="M11.2487 10.418C11.2487 10.197 11.1609 9.98499 11.0046 9.82871C10.8483 9.67243 10.6364 9.58464 10.4154 9.58464H6.2487C6.02768 9.58464 5.81572 9.67243 5.65944 9.82871C5.50316 9.98499 5.41536 10.197 5.41536 10.418C5.41536 10.639 5.50316 10.8509 5.65944 11.0072C5.81572 11.1635 6.02768 11.2513 6.2487 11.2513H10.4154C10.6364 11.2513 10.8483 11.1635 11.0046 11.0072C11.1609 10.8509 11.2487 10.639 11.2487 10.418ZM15.4154 14.5846C15.0614 14.5858 14.717 14.6996 14.432 14.9096L12.9737 14.243L14.5654 13.5096C14.8169 13.6624 15.1045 13.7457 15.3987 13.7513C15.7283 13.7513 16.0506 13.6536 16.3246 13.4704C16.5987 13.2873 16.8124 13.027 16.9385 12.7224C17.0646 12.4179 17.0976 12.0828 17.0333 11.7595C16.969 11.4362 16.8103 11.1392 16.5772 10.9061C16.3441 10.673 16.0472 10.5143 15.7238 10.45C15.4005 10.3857 15.0654 10.4187 14.7609 10.5448C14.4564 10.671 14.1961 10.8846 14.0129 11.1587C13.8298 11.4328 13.732 11.755 13.732 12.0846L12.157 12.8096C11.9412 12.6565 11.6921 12.557 11.4302 12.5193C11.1683 12.4815 10.9012 12.5067 10.6509 12.5927C10.4007 12.6787 10.1745 12.823 9.99116 13.0138C9.80777 13.2045 9.67243 13.4362 9.59634 13.6896C9.52024 13.943 9.50558 14.2109 9.55356 14.4711C9.60153 14.7313 9.71078 14.9764 9.87225 15.186C10.0337 15.3956 10.2428 15.5638 10.4821 15.6766C10.7215 15.7894 10.9843 15.8435 11.2487 15.8346C11.5172 15.8348 11.7812 15.7659 12.0154 15.6346L13.7654 16.468C13.8023 16.7868 13.9305 17.0882 14.1346 17.336C14.3387 17.5837 14.61 17.7673 14.9159 17.8646C15.2218 17.9618 15.5492 17.9687 15.8589 17.8844C16.1687 17.8 16.4474 17.628 16.6617 17.3891C16.876 17.1501 17.0168 16.8543 17.0671 16.5373C17.1173 16.2203 17.075 15.8955 16.9451 15.6019C16.8153 15.3084 16.6034 15.0586 16.335 14.8826C16.0666 14.7065 15.753 14.6118 15.432 14.6096L15.4154 14.5846ZM8.7487 16.2513H4.58203C4.36102 16.2513 4.14906 16.1635 3.99278 16.0072C3.8365 15.8509 3.7487 15.639 3.7487 15.418V3.7513C3.7487 3.53029 3.8365 3.31833 3.99278 3.16205C4.14906 3.00577 4.36102 2.91797 4.58203 2.91797H8.7487V5.41797C8.7487 6.08101 9.01209 6.7169 9.48093 7.18574C9.94977 7.65458 10.5857 7.91797 11.2487 7.91797H13.7487C13.7487 8.13898 13.8365 8.35094 13.9928 8.50722C14.1491 8.6635 14.361 8.7513 14.582 8.7513C14.803 8.7513 15.015 8.6635 15.1713 8.50722C15.3276 8.35094 15.4154 8.13898 15.4154 7.91797V7.08464C15.4154 7.08464 15.4154 7.08464 15.4154 7.03464C15.4067 6.95808 15.3899 6.88266 15.3654 6.80964V6.73464C15.3253 6.64895 15.2719 6.57019 15.207 6.5013L10.207 1.5013C10.1381 1.43648 10.0594 1.38304 9.9737 1.34297C9.94613 1.33814 9.91793 1.33814 9.89036 1.34297C9.82044 1.31757 9.74768 1.30078 9.6737 1.29297H4.58203C3.91899 1.29297 3.28311 1.55636 2.81426 2.0252C2.34542 2.49404 2.08203 3.12993 2.08203 3.79297V15.4596C2.08203 16.1227 2.34542 16.7586 2.81426 17.2274C3.28311 17.6962 3.91899 17.9596 4.58203 17.9596H8.7487C8.96971 17.9596 9.18167 17.8718 9.33795 17.7156C9.49423 17.5593 9.58203 17.3473 9.58203 17.1263C9.58203 16.9053 9.49423 16.6933 9.33795 16.537C9.18167 16.3808 8.96971 16.293 8.7487 16.293V16.2513ZM10.4154 4.09297L12.5737 6.2513H11.2487C11.0277 6.2513 10.8157 6.1635 10.6594 6.00722C10.5032 5.85094 10.4154 5.63898 10.4154 5.41797V4.09297ZM6.2487 12.918C6.02768 12.918 5.81572 13.0058 5.65944 13.162C5.50316 13.3183 5.41536 13.5303 5.41536 13.7513C5.41536 13.9723 5.50316 14.1843 5.65944 14.3406C5.81572 14.4968 6.02768 14.5846 6.2487 14.5846H7.08203C7.30305 14.5846 7.51501 14.4968 7.67129 14.3406C7.82757 14.1843 7.91536 13.9723 7.91536 13.7513C7.91536 13.5303 7.82757 13.3183 7.67129 13.162C7.51501 13.0058 7.30305 12.918 7.08203 12.918H6.2487ZM6.2487 7.91797H7.08203C7.30305 7.91797 7.51501 7.83017 7.67129 7.67389C7.82757 7.51761 7.91536 7.30565 7.91536 7.08464C7.91536 6.86362 7.82757 6.65166 7.67129 6.49538C7.51501 6.3391 7.30305 6.2513 7.08203 6.2513H6.2487C6.02768 6.2513 5.81572 6.3391 5.65944 6.49538C5.50316 6.65166 5.41536 6.86362 5.41536 7.08464C5.41536 7.30565 5.50316 7.51761 5.65944 7.67389C5.81572 7.83017 6.02768 7.91797 6.2487 7.91797Z" fill="currentColor"/>
</svg>
