<svg width="20" height="20" viewBox="0 0 20 20" fill="none" xmlns="http://www.w3.org/2000/svg">
<path d="M12.4987 13.3346H7.4987C7.27768 13.3346 7.06572 13.4224 6.90944 13.5787C6.75316 13.735 6.66536 13.947 6.66536 14.168C6.66536 14.389 6.75316 14.6009 6.90944 14.7572C7.06572 14.9135 7.27768 15.0013 7.4987 15.0013H12.4987C12.7197 15.0013 12.9317 14.9135 13.088 14.7572C13.2442 14.6009 13.332 14.389 13.332 14.168C13.332 13.947 13.2442 13.735 13.088 13.5787C12.9317 13.4224 12.7197 13.3346 12.4987 13.3346ZM7.4987 8.33464H8.33203C8.55304 8.33464 8.76501 8.24684 8.92129 8.09056C9.07757 7.93428 9.16536 7.72232 9.16536 7.5013C9.16536 7.28029 9.07757 7.06833 8.92129 6.91205C8.76501 6.75577 8.55304 6.66797 8.33203 6.66797H7.4987C7.27768 6.66797 7.06572 6.75577 6.90944 6.91205C6.75316 7.06833 6.66536 7.28029 6.66536 7.5013C6.66536 7.72232 6.75316 7.93428 6.90944 8.09056C7.06572 8.24684 7.27768 8.33464 7.4987 8.33464ZM12.4987 10.0013H7.4987C7.27768 10.0013 7.06572 10.0891 6.90944 10.2454C6.75316 10.4017 6.66536 10.6136 6.66536 10.8346C6.66536 11.0556 6.75316 11.2676 6.90944 11.4239C7.06572 11.5802 7.27768 11.668 7.4987 11.668H12.4987C12.7197 11.668 12.9317 11.5802 13.088 11.4239C13.2442 11.2676 13.332 11.0556 13.332 10.8346C13.332 10.6136 13.2442 10.4017 13.088 10.2454C12.9317 10.0891 12.7197 10.0013 12.4987 10.0013ZM16.4237 12.743C16.3444 12.6671 16.251 12.6076 16.1487 12.568C16.0492 12.5229 15.9413 12.4995 15.832 12.4995C15.7228 12.4995 15.6148 12.5229 15.5154 12.568C15.4131 12.6076 15.3196 12.6671 15.2404 12.743C15.1668 12.824 15.1076 12.917 15.0654 13.018C15.0015 13.1697 14.9841 13.337 15.0153 13.4986C15.0464 13.6603 15.1247 13.8091 15.2404 13.9263C15.3182 14.0035 15.4106 14.0646 15.5121 14.1061C15.6136 14.1476 15.7224 14.1686 15.832 14.168C15.9409 14.1667 16.0485 14.144 16.1487 14.1013C16.2497 14.0591 16.3427 13.9999 16.4237 13.9263C16.5393 13.8091 16.6177 13.6603 16.6488 13.4986C16.6799 13.337 16.6625 13.1697 16.5987 13.018C16.5565 12.917 16.4973 12.824 16.4237 12.743ZM16.6654 7.4513C16.6567 7.37475 16.6399 7.29933 16.6154 7.2263V7.1513C16.5753 7.06562 16.5219 6.98686 16.457 6.91797L11.457 1.91797C11.3881 1.85315 11.3094 1.7997 11.2237 1.75964C11.1988 1.7561 11.1736 1.7561 11.1487 1.75964C11.064 1.71109 10.9706 1.67992 10.8737 1.66797H5.83203C5.16899 1.66797 4.53311 1.93136 4.06426 2.4002C3.59542 2.86904 3.33203 3.50493 3.33203 4.16797V15.8346C3.33203 16.4977 3.59542 17.1336 4.06426 17.6024C4.53311 18.0712 5.16899 18.3346 5.83203 18.3346H12.4987C12.7197 18.3346 12.9317 18.2468 13.088 18.0906C13.2442 17.9343 13.332 17.7223 13.332 17.5013C13.332 17.2803 13.2442 17.0683 13.088 16.912C12.9317 16.7558 12.7197 16.668 12.4987 16.668H5.83203C5.61102 16.668 5.39906 16.5802 5.24278 16.4239C5.0865 16.2676 4.9987 16.0556 4.9987 15.8346V4.16797C4.9987 3.94696 5.0865 3.73499 5.24278 3.57871C5.39906 3.42243 5.61102 3.33464 5.83203 3.33464H9.9987V5.83464C9.9987 6.49768 10.2621 7.13356 10.7309 7.6024C11.1998 8.07124 11.8357 8.33464 12.4987 8.33464H14.9987V10.0013C14.9987 10.2223 15.0865 10.4343 15.2428 10.5906C15.3991 10.7468 15.611 10.8346 15.832 10.8346C16.053 10.8346 16.265 10.7468 16.4213 10.5906C16.5776 10.4343 16.6654 10.2223 16.6654 10.0013V7.5013C16.6654 7.5013 16.6654 7.5013 16.6654 7.4513ZM12.4987 6.66797C12.2777 6.66797 12.0657 6.58017 11.9094 6.42389C11.7532 6.26761 11.6654 6.05565 11.6654 5.83464V4.50964L13.8237 6.66797H12.4987ZM15.832 15.0013C15.611 15.0013 15.3991 15.0891 15.2428 15.2454C15.0865 15.4017 14.9987 15.6136 14.9987 15.8346V17.5013C14.9987 17.7223 15.0865 17.9343 15.2428 18.0906C15.3991 18.2468 15.611 18.3346 15.832 18.3346C16.053 18.3346 16.265 18.2468 16.4213 18.0906C16.5776 17.9343 16.6654 17.7223 16.6654 17.5013V15.8346C16.6654 15.6136 16.5776 15.4017 16.4213 15.2454C16.265 15.0891 16.053 15.0013 15.832 15.0013Z" fill="currentColor"/>
</svg>
