<svg>
<path d="M6.81669 3.33329L2.50002 3.33329C2.279 3.33329 2.06705 3.42104 1.91076 3.57737C1.75449 3.73362 1.66669 3.94562 1.66669 4.16662C1.66669 4.38762 1.75449 4.59962 1.91076 4.75587C2.06705 4.91212 2.279 4.99996 2.50002 4.99996L6.81669 4.99996C6.99185 5.48254 7.31138 5.89954 7.73182 6.19421C8.15227 6.48896 8.65327 6.64704 9.16669 6.64704C9.6801 6.64704 10.1811 6.48896 10.6015 6.19421C11.022 5.89954 11.3415 5.48254 11.5167 4.99996L17.5 4.99996C17.721 4.99996 17.933 4.91212 18.0893 4.75587C18.2455 4.59962 18.3334 4.38762 18.3334 4.16662C18.3334 3.94562 18.2455 3.73362 18.0893 3.57737C17.933 3.42104 17.721 3.33329 17.5 3.33329L11.5167 3.33329C11.3415 2.85062 11.022 2.43362 10.6015 2.13896C10.1811 1.84429 9.6801 1.68621 9.16669 1.68621C8.65327 1.68621 8.15227 1.84429 7.73182 2.13896C7.31138 2.43362 6.99185 2.85062 6.81669 3.33329ZM10 4.16662C10 4.33146 9.95119 4.49254 9.8596 4.62962C9.76802 4.76662 9.63785 4.87346 9.4856 4.93654C9.33335 4.99962 9.16577 5.01612 9.0041 4.98396C8.84244 4.95179 8.69394 4.87237 8.57744 4.75587C8.46085 4.63929 8.38152 4.49087 8.34935 4.32921C8.31721 4.16754 8.33369 3.99996 8.39677 3.84771C8.45985 3.69546 8.56669 3.56529 8.70369 3.47371C8.84077 3.38212 9.00185 3.33329 9.16669 3.33329C9.38769 3.33329 9.59969 3.42104 9.75594 3.57737C9.91219 3.73362 10 3.94562 10 4.16662ZM11.8167 9.16663L2.50002 9.16663C2.279 9.16663 2.06705 9.25437 1.91076 9.41071C1.75449 9.56696 1.66669 9.77896 1.66669 9.99996C1.66669 10.221 1.75449 10.433 1.91076 10.5892C2.06705 10.7455 2.279 10.8333 2.50002 10.8333L11.8167 10.8333C11.9919 11.3159 12.3114 11.7329 12.7319 12.0276C13.1523 12.3223 13.6533 12.4803 14.1667 12.4803C14.6801 12.4803 15.1811 12.3223 15.6015 12.0276C16.022 11.7329 16.3415 11.3159 16.5167 10.8333L17.5 10.8333C17.721 10.8333 17.933 10.7455 18.0893 10.5892C18.2455 10.433 18.3334 10.221 18.3334 9.99996C18.3334 9.77896 18.2455 9.56696 18.0893 9.41071C17.933 9.25437 17.721 9.16663 17.5 9.16663L16.5167 9.16663C16.3415 8.68396 16.022 8.26696 15.6015 7.97229C15.1811 7.67762 14.6801 7.51954 14.1667 7.51954C13.6533 7.51954 13.1523 7.67762 12.7319 7.97229C12.3114 8.26696 11.9919 8.68396 11.8167 9.16663ZM15 9.99996C15 10.1648 14.9512 10.3259 14.8596 10.463C14.768 10.6 14.6379 10.7068 14.4856 10.7699C14.3334 10.833 14.1658 10.8495 14.0041 10.8173C13.8424 10.7851 13.6939 10.7057 13.5774 10.5892C13.4609 10.4726 13.3815 10.3242 13.3494 10.1625C13.3172 10.0009 13.3337 9.83329 13.3968 9.68104C13.4599 9.52879 13.5667 9.39862 13.7037 9.30704C13.8408 9.21546 14.0019 9.16663 14.1667 9.16663C14.3877 9.16663 14.5997 9.25437 14.7559 9.41071C14.9122 9.56696 15 9.77896 15 9.99996ZM5.15002 14.9999L2.50002 14.9999C2.279 14.9999 2.06705 15.0877 1.91076 15.244C1.75449 15.4003 1.66669 15.6123 1.66669 15.8333C1.66669 16.0543 1.75449 16.2663 1.91076 16.4225C2.06705 16.5788 2.279 16.6666 2.50002 16.6666L5.15002 16.6666C5.32519 17.1492 5.64471 17.5662 6.06516 17.8609C6.4856 18.1556 6.98659 18.3137 7.50002 18.3137C8.01345 18.3137 8.51444 18.1556 8.93485 17.8609C9.35535 17.5662 9.67485 17.1492 9.85002 16.6666L17.5 16.6666C17.721 16.6666 17.933 16.5788 18.0893 16.4225C18.2455 16.2663 18.3334 16.0543 18.3334 15.8333C18.3334 15.6123 18.2455 15.4003 18.0893 15.244C17.933 15.0877 17.721 14.9999 17.5 14.9999L9.85002 14.9999C9.67485 14.5173 9.35535 14.1003 8.93485 13.8056C8.51444 13.511 8.01345 13.3529 7.50002 13.3529C6.98659 13.3529 6.4856 13.511 6.06516 13.8056C5.64471 14.1003 5.32519 14.5173 5.15002 14.9999ZM8.33335 15.8333C8.33335 15.9981 8.28448 16.1592 8.19291 16.2963C8.10134 16.4333 7.9712 16.5401 7.81892 16.6032C7.66665 16.6663 7.49909 16.6828 7.33744 16.6506C7.1758 16.6184 7.02731 16.5391 6.91076 16.4225C6.79422 16.306 6.71485 16.1575 6.68269 15.9959C6.65055 15.8342 6.66705 15.6666 6.73012 15.5144C6.7932 15.3621 6.9 15.232 7.03705 15.1404C7.17409 15.0488 7.3352 14.9999 7.50002 14.9999C7.72104 14.9999 7.933 15.0877 8.08928 15.244C8.24555 15.4003 8.33335 15.6123 8.33335 15.8333Z" fill="currentColor"/>
</svg>
