<svg>
<path d="M7.0565 6.99537L7.05462 6.9969L7.05284 6.99863L7.0565 6.99537ZM15.3516 6.83993C15.2936 6.78406 15.2293 6.73517 15.1599 6.69426C15.0618 6.63647 14.9527 6.59945 14.8397 6.58546C14.7267 6.57147 14.6119 6.58082 14.5026 6.61293C14.3933 6.64505 14.2917 6.69924 14.2042 6.77216C14.1167 6.84507 14.0451 6.93517 13.9937 7.03687C13.7067 7.60245 13.3107 8.10578 12.8287 8.518C12.9025 8.10267 12.9397 7.68167 12.9398 7.25985C12.9414 5.9766 12.6028 4.71586 11.9587 3.60599C11.3146 2.49612 10.3878 1.57676 9.27283 0.941516C9.15 0.871891 9.0115 0.834608 8.87033 0.833173C8.72917 0.831736 8.58992 0.866191 8.46567 0.9333C8.3415 1.00042 8.23635 1.09798 8.16017 1.21686C8.08398 1.33573 8.03925 1.47202 8.03017 1.61291C7.98353 2.40306 7.77697 3.17551 7.42299 3.88347C7.06902 4.59142 6.57499 5.22015 5.97086 5.73154L5.7788 5.88779C5.14707 6.31287 4.58788 6.83687 4.12272 7.43971C3.39965 8.35067 2.89876 9.4175 2.65977 10.5557C2.42077 11.6939 2.45026 12.8721 2.74588 13.9969C3.0415 15.1218 3.59512 16.1623 4.36286 17.0358C5.13058 17.9095 6.0913 18.5922 7.16881 19.0299C7.29532 19.0816 7.43262 19.1013 7.56857 19.0874C7.70454 19.0735 7.83498 19.0264 7.94842 18.9502C8.06185 18.8739 8.15477 18.7709 8.219 18.6503C8.28322 18.5297 8.31677 18.3951 8.31669 18.2584C8.3161 18.17 8.3021 18.0822 8.27519 17.998C8.08875 17.2972 8.03507 16.5677 8.1169 15.8471C8.90542 17.3343 10.1712 18.5132 11.7107 19.1942C11.8986 19.2783 12.111 19.2897 12.3067 19.226C13.5231 18.8334 14.6187 18.1363 15.4898 17.2011C16.3608 16.2657 16.9783 15.1233 17.2833 13.8821C17.5884 12.641 17.5711 11.3424 17.233 10.1098C16.8949 8.87733 16.2472 7.75168 15.3516 6.83993ZM12.0976 17.5325C11.3712 17.1643 10.7304 16.6474 10.2169 16.0154C9.70342 15.3833 9.32867 14.6503 9.11708 13.8638C9.05242 13.5991 9.00242 13.3309 8.96733 13.0607C8.9435 12.8885 8.8665 12.7282 8.74708 12.6019C8.62767 12.4757 8.47175 12.39 8.30122 12.3567C8.24867 12.3463 8.19525 12.3412 8.14169 12.3412C7.99522 12.3412 7.85134 12.3797 7.72453 12.4531C7.59773 12.5263 7.4925 12.6318 7.41944 12.7587C6.728 13.9513 6.38027 15.3121 6.4148 16.6902C5.80667 16.2174 5.29842 15.6286 4.91953 14.9579C4.54063 14.2872 4.29862 13.548 4.20752 12.7831C4.11642 12.0182 4.17805 11.2427 4.38882 10.5018C4.59959 9.76092 4.95532 9.06917 5.43539 8.46675C5.79991 7.99328 6.23963 7.58282 6.73706 7.25175C6.7586 7.23785 6.77925 7.22263 6.79891 7.20617C6.79891 7.20617 7.04617 7.00158 7.05462 6.9969C8.24187 5.9927 9.08625 4.64319 9.47025 3.13635C10.3782 3.97571 10.9837 5.09137 11.1925 6.31011C11.4014 7.52884 11.2021 8.78242 10.6254 9.87625C10.5492 10.0222 10.518 10.1875 10.5356 10.3512C10.5532 10.5148 10.6189 10.6697 10.7244 10.7961C10.8299 10.9225 10.9705 11.0148 11.1284 11.0614C11.2863 11.108 11.4545 11.1068 11.6117 11.0579C12.8882 10.6577 14.0115 9.87617 14.8303 8.81833C15.3224 9.54525 15.6442 10.3738 15.7716 11.2424C15.8989 12.1109 15.8287 12.997 15.566 13.8347C15.3033 14.6723 14.855 15.4398 14.2545 16.0801C13.6539 16.7203 12.9167 17.2168 12.0976 17.5325Z" fill="currentColor"/>
</svg>
