<svg width="20" height="20" viewBox="0 0 20 20" fill="none" xmlns="http://www.w3.org/2000/svg">
<path d="M10.0013 11.2487C9.78029 11.2487 9.56833 11.3365 9.41205 11.4928C9.25577 11.6491 9.16797 11.861 9.16797 12.0821V13.7487C9.16797 13.9697 9.25577 14.1817 9.41205 14.338C9.56833 14.4943 9.78029 14.5821 10.0013 14.5821C10.2223 14.5821 10.4343 14.4943 10.5906 14.338C10.7468 14.1817 10.8346 13.9697 10.8346 13.7487V12.0821C10.8346 11.861 10.7468 11.6491 10.5906 11.4928C10.4343 11.3365 10.2223 11.2487 10.0013 11.2487ZM15.8346 4.58205H10.6013L10.3346 3.74872C10.1618 3.25974 9.84109 2.83664 9.41705 2.53802C8.99301 2.2394 8.4866 2.08005 7.96797 2.08205H4.16797C3.50493 2.08205 2.86904 2.34544 2.4002 2.81428C1.93136 3.28312 1.66797 3.91901 1.66797 4.58205V15.4154C1.66797 16.0784 1.93136 16.7143 2.4002 17.1832C2.86904 17.652 3.50493 17.9154 4.16797 17.9154H15.8346C16.4977 17.9154 17.1336 17.652 17.6024 17.1832C18.0712 16.7143 18.3346 16.0784 18.3346 15.4154V7.08205C18.3346 6.41901 18.0712 5.78312 17.6024 5.31428C17.1336 4.84544 16.4977 4.58205 15.8346 4.58205ZM16.668 15.4154C16.668 15.6364 16.5802 15.8484 16.4239 16.0046C16.2676 16.1609 16.0556 16.2487 15.8346 16.2487H4.16797C3.94696 16.2487 3.73499 16.1609 3.57871 16.0046C3.42243 15.8484 3.33464 15.6364 3.33464 15.4154V4.58205C3.33464 4.36104 3.42243 4.14907 3.57871 3.99279C3.73499 3.83651 3.94696 3.74872 4.16797 3.74872H7.96797C8.14267 3.74827 8.3131 3.80273 8.45516 3.90442C8.59722 4.0061 8.70373 4.14987 8.75964 4.31538L9.20964 5.68205C9.26554 5.84757 9.37205 5.99133 9.51411 6.09302C9.65617 6.1947 9.8266 6.24917 10.0013 6.24872H15.8346C16.0556 6.24872 16.2676 6.33651 16.4239 6.49279C16.5802 6.64908 16.668 6.86104 16.668 7.08205V15.4154ZM10.593 8.99038C10.4758 8.87475 10.327 8.79642 10.1653 8.76528C10.0037 8.73413 9.83639 8.75157 9.68464 8.81538C9.5816 8.85356 9.48786 8.91321 9.40964 8.99038C9.25736 9.15008 9.17104 9.36141 9.16797 9.58205C9.16889 9.80067 9.25568 10.0102 9.40964 10.1654C9.4871 10.2435 9.57927 10.3055 9.68082 10.3478C9.78237 10.3901 9.89129 10.4119 10.0013 10.4119C10.1113 10.4119 10.2202 10.3901 10.3218 10.3478C10.4233 10.3055 10.5155 10.2435 10.593 10.1654C10.7469 10.0102 10.8337 9.80067 10.8346 9.58205C10.8333 9.47315 10.8107 9.36557 10.768 9.26538C10.7298 9.16235 10.6701 9.06861 10.593 8.99038Z" fill="currentColor"/>
</svg>
