<svg>
<path d="M9.99999 1.66667C8.35182 1.66667 6.74065 2.15541 5.37024 3.07109C3.99983 3.98677 2.93173 5.28826 2.301 6.81098C1.67027 8.33367 1.50524 10.0093 1.82678 11.6258C2.14832 13.2423 2.942 14.7271 4.10744 15.8926C5.27287 17.058 6.75773 17.8517 8.37424 18.1733C9.99074 18.4948 11.6663 18.3298 13.189 17.699C14.7117 17.0683 16.0132 16.0002 16.9289 14.6298C17.8446 13.2593 18.3333 11.6482 18.3333 10C18.3333 8.90567 18.1177 7.82202 17.699 6.81098C17.2802 5.79993 16.6664 4.88127 15.8926 4.10745C15.1187 3.33363 14.2001 2.7198 13.189 2.30101C12.178 1.88222 11.0943 1.66667 9.99999 1.66667ZM9.99999 16.6667C8.68145 16.6667 7.39252 16.2757 6.29619 15.5432C5.19987 14.8106 4.34538 13.7694 3.8408 12.5513C3.33622 11.3331 3.20419 9.99259 3.46142 8.69942C3.71866 7.4062 4.3536 6.21831 5.28595 5.28596C6.2183 4.35361 7.40618 3.71867 8.69939 3.46144C9.99257 3.2042 11.3331 3.33622 12.5512 3.84081C13.7694 4.3454 14.8106 5.19987 15.5432 6.2962C16.2757 7.39253 16.6667 8.68142 16.6667 10C16.6667 11.7681 15.9643 13.4638 14.7141 14.7141C13.4638 15.9643 11.7681 16.6667 9.99999 16.6667ZM9.99999 5.00001C9.77899 5.00001 9.56699 5.08781 9.41074 5.24408C9.25449 5.40036 9.16666 5.61232 9.16666 5.83334V9.51667L7.41666 10.525C7.25612 10.616 7.13032 10.7577 7.05897 10.9278C6.98763 11.098 6.97478 11.287 7.02245 11.4653C7.07011 11.6435 7.17559 11.8009 7.32234 11.9128C7.46909 12.0247 7.64882 12.0846 7.83332 12.0833C7.97931 12.0843 8.12299 12.047 8.24999 11.975L10.4167 10.725L10.4917 10.65L10.625 10.5417C10.6576 10.5004 10.6855 10.4557 10.7083 10.4083C10.7355 10.3636 10.7578 10.3161 10.775 10.2667C10.7977 10.2137 10.8117 10.1574 10.8167 10.1L10.8333 10V5.83334C10.8333 5.61232 10.7455 5.40036 10.5892 5.24408C10.433 5.08781 10.221 5.00001 9.99999 5.00001Z" fill="currentColor"/>
</svg>
