<svg>
<path d="M16.5833 10.55C16.4497 10.3979 16.376 10.2024 16.376 10C16.376 9.79759 16.4497 9.60209 16.5833 9.45001L17.6499 8.25002C17.7674 8.11892 17.8404 7.95394 17.8584 7.77877C17.8763 7.60362 17.8384 7.42726 17.7499 7.27502L16.0833 4.39169C15.9957 4.23962 15.8623 4.11908 15.7022 4.04726C15.5421 3.97543 15.3634 3.95599 15.1916 3.99169L13.6249 4.30836C13.4256 4.34955 13.218 4.31635 13.0415 4.21502C12.8649 4.1137 12.7316 3.95126 12.6666 3.75836L12.1583 2.23336C12.1023 2.06784 11.9958 1.92407 11.8538 1.82239C11.7118 1.72071 11.5413 1.66624 11.3666 1.66669H8.03325C7.85153 1.65721 7.6717 1.70746 7.52122 1.80978C7.37075 1.91211 7.2579 2.06087 7.19992 2.23336L6.73325 3.75836C6.66825 3.95126 6.5349 4.1137 6.35835 4.21502C6.1818 4.31635 5.97426 4.34955 5.77492 4.30836L4.16659 3.99169C4.00371 3.96867 3.83767 3.99437 3.68937 4.06556C3.54108 4.13673 3.41717 4.25022 3.33325 4.39169L1.66659 7.27502C1.57589 7.42557 1.5351 7.60092 1.55007 7.77604C1.56504 7.95116 1.63499 8.11706 1.74992 8.25002L2.80825 9.45001C2.94185 9.60209 3.01553 9.79759 3.01553 10C3.01553 10.2024 2.94185 10.3979 2.80825 10.55L1.74992 11.75C1.63499 11.883 1.56504 12.0489 1.55007 12.224C1.5351 12.3991 1.57589 12.5745 1.66659 12.725L3.33325 15.6083C3.42083 15.7604 3.55419 15.8809 3.7143 15.9528C3.8744 16.0246 4.0531 16.0441 4.22492 16.0083L5.79159 15.6917C5.99093 15.6505 6.19846 15.6837 6.37501 15.785C6.55156 15.8863 6.68492 16.0488 6.74992 16.2417L7.25825 17.7667C7.31624 17.9392 7.42908 18.0879 7.57955 18.1903C7.73003 18.2926 7.90986 18.3428 8.09159 18.3333H11.4249C11.5996 18.3338 11.7701 18.2793 11.9121 18.1777C12.0542 18.076 12.1607 17.9322 12.2166 17.7667L12.7249 16.2417C12.7899 16.0488 12.9233 15.8863 13.0998 15.785C13.2763 15.6837 13.4839 15.6505 13.6833 15.6917L15.2499 16.0083C15.4218 16.0441 15.6004 16.0246 15.7605 15.9528C15.9207 15.8809 16.054 15.7604 16.1416 15.6083L17.8083 12.725C17.8968 12.5728 17.9347 12.3964 17.9168 12.2213C17.8988 12.0461 17.8258 11.8811 17.7083 11.75L16.5833 10.55ZM15.3416 11.6667L16.0083 12.4167L14.9416 14.2667L13.9583 14.0667C13.3581 13.944 12.7338 14.0459 12.2038 14.3532C11.6738 14.6604 11.275 15.1516 11.0833 15.7333L10.7666 16.6667H8.63325L8.33325 15.7167C8.14146 15.1349 7.74274 14.6438 7.21275 14.3365C6.68277 14.0293 6.05844 13.9273 5.45825 14.05L4.47492 14.25L3.39159 12.4083L4.05825 11.6583C4.46821 11.2 4.69486 10.6066 4.69486 9.99167C4.69486 9.37676 4.46821 8.78334 4.05825 8.32502L3.39159 7.57502L4.45825 5.74169L5.44159 5.94169C6.04177 6.06437 6.6661 5.96242 7.19609 5.65519C7.72607 5.34795 8.1248 4.85682 8.31659 4.27502L8.63325 3.33336H10.7666L11.0833 4.28336C11.275 4.86516 11.6738 5.35628 12.2038 5.66352C12.7338 5.97076 13.3581 6.07271 13.9583 5.95002L14.9416 5.75002L16.0083 7.60002L15.3416 8.35001C14.9363 8.80734 14.7124 9.39726 14.7124 10.0083C14.7124 10.6194 14.9363 11.2094 15.3416 11.6667ZM9.69992 6.66669C9.04067 6.66669 8.39617 6.86218 7.84801 7.22846C7.29985 7.59472 6.87261 8.11532 6.62032 8.72442C6.36803 9.33351 6.30201 10.0038 6.43063 10.6503C6.55925 11.2969 6.87672 11.8908 7.3429 12.357C7.80907 12.8233 8.403 13.1407 9.04959 13.2693C9.69625 13.3979 10.3664 13.3319 10.9755 13.0796C11.5846 12.8273 12.1052 12.4001 12.4715 11.8519C12.8378 11.3038 13.0333 10.6593 13.0333 10C13.0333 9.11601 12.6821 8.26812 12.0569 7.643C11.4318 7.01787 10.584 6.66669 9.69992 6.66669ZM9.69992 11.6667C9.37025 11.6667 9.04809 11.5689 8.774 11.3858C8.49992 11.2027 8.28626 10.9423 8.16012 10.6378C8.03397 10.3333 8.00097 9.99817 8.06528 9.67484C8.12959 9.35159 8.28832 9.05459 8.52142 8.82151C8.7545 8.58842 9.0515 8.42967 9.37475 8.36534C9.69809 8.30107 10.0332 8.33409 10.3378 8.46026C10.6423 8.58634 10.9026 8.80001 11.0857 9.07409C11.2688 9.34817 11.3666 9.67042 11.3666 10C11.3666 10.442 11.191 10.866 10.8784 11.1785C10.5658 11.4911 10.1419 11.6667 9.69992 11.6667Z" fill="currentColor"/>
</svg>
