<svg width="20" height="20" viewBox="0 0 20 20" fill="none" xmlns="http://www.w3.org/2000/svg">
<path d="M15.8346 10.8322C15.6136 10.8322 15.4017 10.92 15.2454 11.0762C15.0891 11.2325 15.0013 11.4445 15.0013 11.6655V11.9905L13.768 10.7572C13.3325 10.3251 12.7439 10.0827 12.1305 10.0827C11.517 10.0827 10.9284 10.3251 10.493 10.7572L9.90964 11.3405L7.84297 9.2655C7.3995 8.84891 6.81392 8.61701 6.20547 8.61701C5.59702 8.61701 5.01144 8.84891 4.56797 9.2655L3.33464 10.5072V5.83216C3.33464 5.61115 3.42243 5.39919 3.57871 5.24291C3.73499 5.08663 3.94695 4.99883 4.16797 4.99883H7.5013C7.72232 4.99883 7.93428 4.91103 8.09056 4.75475C8.24684 4.59847 8.33464 4.38651 8.33464 4.1655C8.33464 3.94448 8.24684 3.73252 8.09056 3.57624C7.93428 3.41996 7.72232 3.33216 7.5013 3.33216H4.16797C3.50493 3.33216 2.86904 3.59556 2.4002 4.0644C1.93136 4.53324 1.66797 5.16912 1.66797 5.83216V15.8322C1.66797 16.4952 1.93136 17.1311 2.4002 17.5999C2.86904 18.0688 3.50493 18.3322 4.16797 18.3322H14.168C14.831 18.3322 15.4669 18.0688 15.9357 17.5999C16.4046 17.1311 16.668 16.4952 16.668 15.8322V11.6655C16.668 11.4445 16.5802 11.2325 16.4239 11.0762C16.2676 10.92 16.0556 10.8322 15.8346 10.8322ZM4.16797 16.6655C3.94695 16.6655 3.73499 16.5777 3.57871 16.4214C3.42243 16.2651 3.33464 16.0532 3.33464 15.8322V12.8572L5.7513 10.4488C5.87373 10.3322 6.03636 10.2671 6.20547 10.2671C6.37458 10.2671 6.53721 10.3322 6.65964 10.4488L9.3013 13.0905L12.8763 16.6655H4.16797ZM15.0013 15.8322C14.9959 15.9935 14.9438 16.1499 14.8513 16.2822L11.093 12.4988L11.6763 11.9238C11.736 11.8629 11.8074 11.8144 11.8861 11.7813C11.9648 11.7483 12.0493 11.7312 12.1346 11.7312C12.22 11.7312 12.3045 11.7483 12.3832 11.7813C12.4619 11.8144 12.5332 11.8629 12.593 11.9238L15.0013 14.3488V15.8322ZM18.093 8.57383L16.668 7.1405C17.0212 6.56584 17.2055 5.90332 17.1997 5.2288C17.1939 4.55428 16.9983 3.89502 16.6352 3.32651C16.2722 2.758 15.7563 2.30322 15.1468 2.01425C14.5373 1.72527 13.8587 1.61378 13.1888 1.69254C12.5189 1.77129 11.8847 2.03712 11.3588 2.45957C10.8329 2.88202 10.4366 3.44402 10.2153 4.08123C9.99399 4.71844 9.95659 5.40509 10.1074 6.06256C10.2582 6.72004 10.5911 7.32176 11.068 7.79883C11.7301 8.46507 12.6287 8.8425 13.568 8.84883C14.2397 8.85719 14.9005 8.67828 15.4763 8.33216L16.9096 9.77383C16.9871 9.85194 17.0793 9.91393 17.1808 9.95624C17.2824 9.99855 17.3913 10.0203 17.5013 10.0203C17.6113 10.0203 17.7202 9.99855 17.8218 9.95624C17.9233 9.91393 18.0155 9.85194 18.093 9.77383C18.1736 9.69609 18.2378 9.6029 18.2816 9.4998C18.3254 9.39671 18.348 9.28585 18.348 9.17383C18.348 9.06181 18.3254 8.95095 18.2816 8.84786C18.2378 8.74477 18.1736 8.65157 18.093 8.57383ZM15.0013 6.6655C14.7314 6.93717 14.387 7.12259 14.0116 7.19823C13.6362 7.27388 13.2468 7.23635 12.8928 7.0904C12.5388 6.94445 12.2361 6.69666 12.0231 6.37844C11.8101 6.06023 11.6963 5.68592 11.6963 5.303C11.6963 4.92007 11.8101 4.54577 12.0231 4.22755C12.2361 3.90934 12.5388 3.66155 12.8928 3.5156C13.2468 3.36965 13.6362 3.33212 14.0116 3.40776C14.387 3.48341 14.7314 3.66882 15.0013 3.9405C15.3611 4.30269 15.563 4.79248 15.563 5.303C15.563 5.81351 15.3611 6.30331 15.0013 6.6655Z" fill="#2D2D2F"/>
</svg>
