<svg>
  <path d="M14.1667 18.3333H4.16666C3.50361 18.3333 2.86773 18.0699 2.39889 17.6011C1.93005 17.1323 1.66666 16.4963 1.66666 15.8333V7.49998C1.66666 6.83694 1.93005 6.20104 2.39889 5.7322C2.86773 5.26337 3.50361 4.99998 4.16666 4.99998H4.99999C5.01401 4.29384 5.25195 3.6104 5.6795 3.04824C6.10706 2.48609 6.70211 2.07426 7.37886 1.87217C8.0556 1.67007 8.77907 1.68815 9.44482 1.9238C10.1107 2.15945 10.6844 2.60049 11.0833 3.18331C11.457 3.71593 11.6604 4.34936 11.6667 4.99998H14.1667C14.3877 4.99998 14.5997 5.08777 14.7559 5.24405C14.9122 5.40033 15 5.61229 15 5.83331V8.33331C15.7062 8.34734 16.3896 8.58525 16.9517 9.01284C17.5139 9.44034 17.9257 10.0354 18.1278 10.7122C18.3299 11.3889 18.3118 12.1123 18.0762 12.7782C17.8405 13.444 17.3995 14.0177 16.8167 14.4167C16.2841 14.7903 15.6506 14.9938 15 15V17.5C15 17.721 14.9122 17.9329 14.7559 18.0893C14.5997 18.2455 14.3877 18.3333 14.1667 18.3333ZM4.16666 6.66664C3.94564 6.66664 3.73368 6.75444 3.5774 6.91072C3.42112 7.06699 3.33332 7.27896 3.33332 7.49998V15.8333C3.33332 16.0543 3.42112 16.2663 3.5774 16.4226C3.73368 16.5788 3.94564 16.6667 4.16666 16.6667H13.3333V14.0167C13.3326 13.883 13.364 13.7512 13.4249 13.6323C13.4858 13.5133 13.5745 13.4108 13.6833 13.3333C13.7918 13.2559 13.9173 13.2057 14.0493 13.1868C14.1812 13.168 14.3158 13.1811 14.4417 13.225C14.6792 13.3218 14.9378 13.3552 15.1921 13.3215C15.4464 13.2879 15.6875 13.1886 15.8917 13.0333C16.0949 12.9094 16.2692 12.7433 16.4028 12.5464C16.5366 12.3495 16.6265 12.1263 16.6667 11.8917C16.6988 11.655 16.6797 11.4143 16.6107 11.1857C16.5417 10.9571 16.4243 10.7459 16.2667 10.5667C16.0534 10.3076 15.7629 10.1234 15.4377 10.0409C15.1124 9.9585 14.7692 9.98209 14.4583 10.1083C14.3325 10.1523 14.1979 10.1653 14.066 10.1464C13.934 10.1276 13.8085 10.0773 13.7 10C13.5912 9.9225 13.5025 9.81992 13.4416 9.701C13.3807 9.58209 13.3492 9.45025 13.35 9.31667V6.66664H10.6833C10.5464 6.6744 10.4096 6.64824 10.2852 6.59046C10.1607 6.53269 10.0526 6.44509 9.97007 6.33544C9.88766 6.2258 9.83357 6.0975 9.81266 5.96194C9.79166 5.82637 9.80449 5.68772 9.84999 5.55831C9.94691 5.32081 9.98016 5.06216 9.94657 4.80788C9.91291 4.55359 9.81357 4.31247 9.65832 4.10831C9.53532 3.89928 9.36682 3.72061 9.16532 3.58555C8.96382 3.45049 8.73457 3.36249 8.49449 3.32808C8.25438 3.29366 8.00961 3.31371 7.77831 3.38674C7.54702 3.45978 7.33512 3.58392 7.15832 3.74998C6.99414 3.91282 6.86563 4.10805 6.78099 4.32325C6.69634 4.53845 6.65741 4.76891 6.66666 4.99998C6.66859 5.19112 6.7053 5.38031 6.77499 5.55831C6.81905 5.68432 6.83218 5.81908 6.8133 5.95123C6.79441 6.08338 6.74405 6.20906 6.66646 6.31769C6.58886 6.42632 6.48631 6.51471 6.36743 6.57544C6.24855 6.63617 6.11681 6.66744 5.98332 6.66664H4.16666Z" fill="currentColor"/>
</svg>
