<svg>
  <path
    d="M2.08497 7.38222L9.58497 11.7156C9.71165 11.7887 9.85535 11.8272 10.0016 11.8272C10.1479 11.8272 10.2916 11.7887 10.4183 11.7156L17.9183 7.38222C18.0442 7.30951 18.149 7.2051 18.2221 7.07937C18.2952 6.95365 18.3341 6.81098 18.335 6.66555C18.3355 6.51871 18.2973 6.37432 18.2241 6.24701C18.151 6.11969 18.0455 6.01397 17.9183 5.94055L10.4183 1.61555C10.2916 1.54241 10.1479 1.50391 10.0016 1.50391C9.85535 1.50391 9.71165 1.54241 9.58497 1.61555L2.08497 5.94055C1.9578 6.01397 1.85228 6.11969 1.77911 6.24701C1.70595 6.37432 1.66772 6.51871 1.6683 6.66555C1.66918 6.81098 1.7081 6.95365 1.78119 7.07937C1.85429 7.2051 1.95902 7.30951 2.08497 7.38222ZM10.0016 3.33222L15.835 6.66555L10.0016 9.99889L4.1683 6.66555L10.0016 3.33222ZM17.085 9.30722L10.0016 13.3322L2.9183 9.27389C2.82319 9.21879 2.71812 9.18305 2.60913 9.16873C2.50015 9.15441 2.38941 9.16179 2.2833 9.19045C2.17718 9.21911 2.07778 9.26848 1.99083 9.33572C1.90387 9.40295 1.83107 9.48673 1.77663 9.58222C1.66799 9.77357 1.63943 10.0001 1.6972 10.2124C1.75496 10.4248 1.89436 10.6056 2.08497 10.7156L9.58497 15.0489C9.71165 15.122 9.85535 15.1605 10.0016 15.1605C10.1479 15.1605 10.2916 15.122 10.4183 15.0489L17.9183 10.7156C18.1089 10.6056 18.2483 10.4248 18.3061 10.2124C18.3638 10.0001 18.3353 9.77357 18.2266 9.58222C18.1722 9.48673 18.0994 9.40295 18.0124 9.33572C17.9255 9.26848 17.8261 9.21911 17.72 9.19045C17.6139 9.16179 17.5031 9.15441 17.3941 9.16873C17.2851 9.18305 17.1801 9.21879 17.085 9.27389V9.30722ZM17.085 12.6406L10.0016 16.6656L2.9183 12.6072C2.82319 12.5521 2.71812 12.5164 2.60913 12.5021C2.50015 12.4877 2.38941 12.4951 2.2833 12.5238C2.17718 12.5524 2.07778 12.6018 1.99083 12.6691C1.90387 12.7363 1.83107 12.8201 1.77663 12.9156C1.66799 13.1069 1.63943 13.3335 1.6972 13.5458C1.75496 13.7581 1.89436 13.939 2.08497 14.0489L9.58497 18.3822C9.71165 18.4554 9.85535 18.4939 10.0016 18.4939C10.1479 18.4939 10.2916 18.4554 10.4183 18.3822L17.9183 14.0489C18.1089 13.939 18.2483 13.7581 18.3061 13.5458C18.3638 13.3335 18.3353 13.1069 18.2266 12.9156C18.1722 12.8201 18.0994 12.7363 18.0124 12.6691C17.9255 12.6018 17.8261 12.5524 17.72 12.5238C17.6139 12.4951 17.5031 12.4877 17.3941 12.5021C17.2851 12.5164 17.1801 12.5521 17.085 12.6072V12.6406Z"
    fill="currentColor"
  />
</svg>
