<svg>
<path d="M2.08562 8.86988L9.58562 12.9484C9.71231 13.0172 9.85601 13.0534 10.0023 13.0534C10.1486 13.0534 10.2923 13.0172 10.419 12.9484L17.919 8.86988C18.0453 8.80093 18.1501 8.70198 18.2229 8.58291C18.2958 8.46385 18.3341 8.32885 18.3341 8.19145C18.3341 8.05403 18.2958 7.91905 18.2229 7.79999C18.1501 7.68092 18.0453 7.58195 17.919 7.51301L10.419 3.43458C10.2923 3.36574 10.1486 3.32951 10.0023 3.32951C9.85601 3.32951 9.71231 3.36574 9.58562 3.43458L2.08562 7.51301C1.95935 7.58195 1.85453 7.68092 1.78166 7.79999C1.7088 7.91905 1.67044 8.05403 1.67044 8.19145C1.67044 8.32885 1.7088 8.46385 1.78166 8.58291C1.85453 8.70198 1.95935 8.80093 2.08562 8.86988ZM10.0023 5.01889L15.8356 8.15615L10.0023 11.3326L4.16896 8.18752L10.0023 5.01889ZM17.0856 11.1287L10.0023 14.9796L2.91896 11.1287C2.82435 11.0765 2.71973 11.0424 2.61108 11.0284C2.50244 11.0143 2.39191 11.0206 2.28585 11.0468C2.1798 11.0731 2.08027 11.1187 1.99301 11.1812C1.90574 11.2437 1.83244 11.3218 1.7773 11.4111C1.7222 11.5006 1.68646 11.5995 1.67214 11.702C1.65783 11.8046 1.6652 11.9088 1.69386 12.0087C1.72253 12.1086 1.77189 12.2021 1.83913 12.284C1.90636 12.3658 1.99014 12.4344 2.08562 12.4855L9.58562 16.564C9.71231 16.6328 9.85601 16.6691 10.0023 16.6691C10.1486 16.6691 10.2923 16.6328 10.419 16.564L17.919 12.4855C18.0145 12.4344 18.0983 12.3658 18.1655 12.284C18.2328 12.2021 18.2821 12.1086 18.3107 12.0087C18.3394 11.9088 18.3468 11.8046 18.3325 11.702C18.3181 11.5995 18.2824 11.5006 18.2273 11.4111C18.1721 11.3218 18.0989 11.2437 18.0116 11.1812C17.9244 11.1187 17.8248 11.0731 17.7188 11.0468C17.6126 11.0206 17.5021 11.0143 17.3935 11.0284C17.2849 11.0424 17.1802 11.0765 17.0856 11.1287Z" fill="currentColor"/>
</svg>
