<svg>
<path d="M9.99999 9C10.3297 9 10.6518 8.90225 10.9259 8.71909C11.2 8.536 11.4137 8.27569 11.5398 7.97114C11.6659 7.66659 11.6989 7.33149 11.6347 7.00819C11.5703 6.68488 11.4116 6.38791 11.1785 6.15482C10.9454 5.92174 10.6484 5.763 10.3252 5.69869C10.0018 5.63439 9.66674 5.66739 9.36216 5.79354C9.05766 5.91968 8.79733 6.1333 8.61424 6.40739C8.43108 6.68146 8.33333 7.00369 8.33333 7.33334C8.33333 7.77536 8.50891 8.19929 8.82149 8.51184C9.13408 8.82442 9.55799 9 9.99999 9ZM9.40833 14.7583C9.48583 14.8364 9.578 14.8984 9.6795 14.9408C9.78108 14.9831 9.88999 15.0048 9.99999 15.0048C10.11 15.0048 10.2189 14.9831 10.3205 14.9408C10.422 14.8984 10.5142 14.8364 10.5917 14.7583L14 11.3417C14.7917 10.5504 15.3308 9.54225 15.5494 8.44459C15.768 7.34686 15.6561 6.209 15.2279 5.17491C14.7997 4.14081 14.0745 3.25693 13.1439 2.63504C12.2133 2.01317 11.1192 1.68124 9.99999 1.68124C8.88074 1.68124 7.78666 2.01317 6.85609 2.63504C5.92551 3.25693 5.20027 4.14081 4.77209 5.17491C4.34391 6.209 4.23204 7.34686 4.4506 8.44459C4.66917 9.54225 5.20837 10.5504 5.99999 11.3417L9.40833 14.7583ZM6.02499 6.95C6.08194 6.35584 6.27084 5.78191 6.57793 5.27009C6.88502 4.75828 7.30254 4.3215 7.79999 3.99167C8.45349 3.56258 9.21824 3.33397 9.99999 3.33397C10.7817 3.33397 11.5465 3.56258 12.2 3.99167C12.6942 4.32038 13.1092 4.7545 13.4156 5.26282C13.7219 5.77114 13.9118 6.34103 13.9716 6.93149C14.0313 7.52195 13.9595 8.11832 13.7612 8.67775C13.563 9.23709 13.2432 9.74559 12.825 10.1667L9.99999 12.9917L7.17499 10.1667C6.75626 9.74967 6.43577 9.24459 6.23684 8.68817C6.03789 8.13173 5.96553 7.53794 6.02499 6.95ZM15.8333 16.6667H4.16666C3.94564 16.6667 3.73369 16.7545 3.5774 16.9108C3.42113 17.067 3.33333 17.279 3.33333 17.5C3.33333 17.721 3.42113 17.933 3.5774 18.0893C3.73369 18.2455 3.94564 18.3333 4.16666 18.3333H15.8333C16.0543 18.3333 16.2663 18.2455 16.4226 18.0893C16.5788 17.933 16.6667 17.721 16.6667 17.5C16.6667 17.279 16.5788 17.067 16.4226 16.9108C16.2663 16.7545 16.0543 16.6667 15.8333 16.6667Z" fill="currentColor"/>
</svg>
