<svg>
  <path
    d="M5.00001 9.16667C4.83519 9.16667 4.67408 9.21554 4.53703 9.30711C4.39999 9.39868 4.29318 9.52882 4.23011 9.6811C4.16704 9.83337 4.15053 10.0009 4.18269 10.1626C4.21484 10.3242 4.29421 10.4727 4.41075 10.5893C4.5273 10.7058 4.67578 10.7852 4.83743 10.8173C4.99909 10.8495 5.16664 10.833 5.31891 10.7699C5.47118 10.7068 5.60133 10.6 5.6929 10.463C5.78447 10.3259 5.83334 10.1648 5.83334 10C5.83334 9.77899 5.74555 9.56702 5.58927 9.41074C5.43298 9.25446 5.22102 9.16667 5.00001 9.16667ZM15 9.16667C14.8352 9.16667 14.6741 9.21554 14.537 9.30711C14.4 9.39868 14.2932 9.52882 14.2301 9.6811C14.167 9.83337 14.1505 10.0009 14.1827 10.1626C14.2148 10.3242 14.2942 10.4727 14.4108 10.5893C14.5273 10.7058 14.6758 10.7852 14.8374 10.8173C14.9991 10.8495 15.1666 10.833 15.3189 10.7699C15.4712 10.7068 15.6013 10.6 15.6929 10.463C15.7845 10.3259 15.8333 10.1648 15.8333 10C15.8333 9.77899 15.7455 9.56702 15.5893 9.41074C15.433 9.25446 15.221 9.16667 15 9.16667ZM16.6667 4.16667H3.33334C2.6703 4.16667 2.03442 4.43006 1.56558 4.8989C1.09674 5.36774 0.833344 6.00362 0.833344 6.66667V13.3333C0.833344 13.9964 1.09674 14.6323 1.56558 15.1011C2.03442 15.5699 2.6703 15.8333 3.33334 15.8333H16.6667C17.3297 15.8333 17.9656 15.5699 18.4344 15.1011C18.9033 14.6323 19.1667 13.9964 19.1667 13.3333V6.66667C19.1667 6.00362 18.9033 5.36774 18.4344 4.8989C17.9656 4.43006 17.3297 4.16667 16.6667 4.16667ZM17.5 13.3333C17.5 13.5543 17.4122 13.7663 17.2559 13.9226C17.0997 14.0789 16.8877 14.1667 16.6667 14.1667H3.33334C3.11233 14.1667 2.90037 14.0789 2.74409 13.9226C2.58781 13.7663 2.50001 13.5543 2.50001 13.3333V6.66667C2.50001 6.44565 2.58781 6.23369 2.74409 6.07741C2.90037 5.92113 3.11233 5.83333 3.33334 5.83333H16.6667C16.8877 5.83333 17.0997 5.92113 17.2559 6.07741C17.4122 6.23369 17.5 6.44565 17.5 6.66667V13.3333ZM10 7.5C9.50556 7.5 9.02221 7.64662 8.61108 7.92133C8.19996 8.19603 7.87953 8.58648 7.69031 9.04329C7.50109 9.50011 7.45158 10.0028 7.54805 10.4877C7.64451 10.9727 7.88261 11.4181 8.23224 11.7678C8.58187 12.1174 9.02733 12.3555 9.51228 12.452C9.99724 12.5484 10.4999 12.4989 10.9567 12.3097C11.4135 12.1205 11.804 11.8 12.0787 11.3889C12.3534 10.9778 12.5 10.4945 12.5 10C12.5 9.33696 12.2366 8.70107 11.7678 8.23223C11.2989 7.76339 10.6631 7.5 10 7.5ZM10 10.8333C9.83519 10.8333 9.67407 10.7845 9.53703 10.6929C9.39999 10.6013 9.29318 10.4712 9.23011 10.3189C9.16704 10.1666 9.15053 9.99907 9.18269 9.83742C9.21484 9.67577 9.29421 9.52729 9.41075 9.41074C9.5273 9.2942 9.67578 9.21483 9.83743 9.18268C9.99908 9.15052 10.1666 9.16703 10.3189 9.2301C10.4712 9.29317 10.6013 9.39998 10.6929 9.53702C10.7845 9.67406 10.8333 9.83518 10.8333 10C10.8333 10.221 10.7455 10.433 10.5893 10.5893C10.433 10.7455 10.221 10.8333 10 10.8333Z"
    fill="currentColor"
  />
</svg>
