<svg>
  <path
    d="M 18.332031 8.332031 L 5.675781 8.332031 L 11.179688 2.855469 C 11.492188 2.539062 11.671875 2.117188 11.671875 1.671875 C 11.671875 1.230469 11.492188 0.804688 11.179688 0.488281 C 10.867188 0.175781 10.441406 0 9.996094 0 C 9.550781 0 9.125 0.175781 8.8125 0.488281 L 0.476562 8.816406 C 0.324219 8.972656 0.203125 9.160156 0.125 9.367188 C -0.0429688 9.769531 -0.0429688 10.226562 0.125 10.632812 C 0.203125 10.835938 0.324219 11.023438 0.476562 11.179688 L 8.8125 19.507812 C 8.96875 19.664062 9.152344 19.789062 9.355469 19.871094 C 9.558594 19.957031 9.777344 20 9.996094 20 C 10.214844 20 10.433594 19.957031 10.636719 19.871094 C 10.839844 19.789062 11.023438 19.664062 11.179688 19.507812 C 11.335938 19.351562 11.460938 19.167969 11.542969 18.964844 C 11.628906 18.761719 11.671875 18.542969 11.671875 18.324219 C 11.671875 18.105469 11.628906 17.886719 11.542969 17.683594 C 11.460938 17.480469 11.335938 17.296875 11.179688 17.144531 L 5.675781 11.664062 L 18.332031 11.664062 C 18.773438 11.664062 19.199219 11.488281 19.511719 11.175781 C 19.824219 10.863281 20 10.441406 20 10 C 20 9.558594 19.824219 9.132812 19.511719 8.820312 C 19.199219 8.507812 18.773438 8.332031 18.332031 8.332031 Z M 18.332031 8.332031 "
    fill="currentColor"
  />
</svg>
