<svg width="20" height="20" viewBox="0 0 20 20" fill="none" xmlns="http://www.w3.org/2000/svg">
<path d="M13.3333 11.668H6.66667C6.44565 11.668 6.23369 11.7558 6.07741 11.912C5.92113 12.0683 5.83333 12.2803 5.83333 12.5013C5.83333 12.7223 5.92113 12.9343 6.07741 13.0906C6.23369 13.2468 6.44565 13.3346 6.66667 13.3346H13.3333C13.5543 13.3346 13.7663 13.2468 13.9226 13.0906C14.0789 12.9343 14.1667 12.7223 14.1667 12.5013C14.1667 12.2803 14.0789 12.0683 13.9226 11.912C13.7663 11.7558 13.5543 11.668 13.3333 11.668ZM13.3333 8.33464H8.33333C8.11232 8.33464 7.90036 8.42243 7.74408 8.57871C7.5878 8.73499 7.5 8.94696 7.5 9.16797C7.5 9.38898 7.5878 9.60094 7.74408 9.75723C7.90036 9.9135 8.11232 10.0013 8.33333 10.0013H13.3333C13.5543 10.0013 13.7663 9.9135 13.9226 9.75723C14.0789 9.60094 14.1667 9.38898 14.1667 9.16797C14.1667 8.94696 14.0789 8.73499 13.9226 8.57871C13.7663 8.42243 13.5543 8.33464 13.3333 8.33464ZM16.6667 3.33464H14.1667V2.5013C14.1667 2.28029 14.0789 2.06833 13.9226 1.91205C13.7663 1.75577 13.5543 1.66797 13.3333 1.66797C13.1123 1.66797 12.9004 1.75577 12.7441 1.91205C12.5878 2.06833 12.5 2.28029 12.5 2.5013V3.33464H10.8333V2.5013C10.8333 2.28029 10.7455 2.06833 10.5893 1.91205C10.433 1.75577 10.221 1.66797 10 1.66797C9.77899 1.66797 9.56702 1.75577 9.41074 1.91205C9.25446 2.06833 9.16667 2.28029 9.16667 2.5013V3.33464H7.5V2.5013C7.5 2.28029 7.4122 2.06833 7.25592 1.91205C7.09964 1.75577 6.88768 1.66797 6.66667 1.66797C6.44565 1.66797 6.23369 1.75577 6.07741 1.91205C5.92113 2.06833 5.83333 2.28029 5.83333 2.5013V3.33464H3.33333C3.11232 3.33464 2.90036 3.42243 2.74408 3.57871C2.5878 3.73499 2.5 3.94696 2.5 4.16797V15.8346C2.5 16.4977 2.76339 17.1336 3.23223 17.6024C3.70107 18.0712 4.33696 18.3346 5 18.3346H15C15.663 18.3346 16.2989 18.0712 16.7678 17.6024C17.2366 17.1336 17.5 16.4977 17.5 15.8346V4.16797C17.5 3.94696 17.4122 3.73499 17.2559 3.57871C17.0996 3.42243 16.8877 3.33464 16.6667 3.33464ZM15.8333 15.8346C15.8333 16.0556 15.7455 16.2676 15.5893 16.4239C15.433 16.5802 15.221 16.668 15 16.668H5C4.77899 16.668 4.56702 16.5802 4.41074 16.4239C4.25446 16.2676 4.16667 16.0556 4.16667 15.8346V5.0013H5.83333V5.83464C5.83333 6.05565 5.92113 6.26761 6.07741 6.42389C6.23369 6.58017 6.44565 6.66797 6.66667 6.66797C6.88768 6.66797 7.09964 6.58017 7.25592 6.42389C7.4122 6.26761 7.5 6.05565 7.5 5.83464V5.0013H9.16667V5.83464C9.16667 6.05565 9.25446 6.26761 9.41074 6.42389C9.56702 6.58017 9.77899 6.66797 10 6.66797C10.221 6.66797 10.433 6.58017 10.5893 6.42389C10.7455 6.26761 10.8333 6.05565 10.8333 5.83464V5.0013H12.5V5.83464C12.5 6.05565 12.5878 6.26761 12.7441 6.42389C12.9004 6.58017 13.1123 6.66797 13.3333 6.66797C13.5543 6.66797 13.7663 6.58017 13.9226 6.42389C14.0789 6.26761 14.1667 6.05565 14.1667 5.83464V5.0013H15.8333V15.8346Z" fill="currentColor"/>
</svg>
