<svg width="20" height="20" viewBox="0 0 20 20" fill="none" xmlns="http://www.w3.org/2000/svg">
<path d="M15 0.832031H8.33333C7.67029 0.832031 7.03441 1.09542 6.56557 1.56426C6.09673 2.03311 5.83333 2.66899 5.83333 3.33203H5C4.33696 3.33203 3.70107 3.59542 3.23223 4.06426C2.76339 4.5331 2.5 5.16899 2.5 5.83203V8.33203C2.5 8.99507 2.76339 9.63096 3.23223 10.0998C3.70107 10.5686 4.33696 10.832 5 10.832H10C10.221 10.832 10.433 10.9198 10.5893 11.0761C10.7455 11.2324 10.8333 11.4444 10.8333 11.6654V12.4987C10.3913 12.4987 9.96738 12.6743 9.65482 12.9869C9.34226 13.2994 9.16667 13.7233 9.16667 14.1654V17.4987C9.16667 17.9407 9.34226 18.3646 9.65482 18.6772C9.96738 18.9898 10.3913 19.1654 10.8333 19.1654H12.5C12.942 19.1654 13.3659 18.9898 13.6785 18.6772C13.9911 18.3646 14.1667 17.9407 14.1667 17.4987V14.1654C14.1667 13.7233 13.9911 13.2994 13.6785 12.9869C13.3659 12.6743 12.942 12.4987 12.5 12.4987V11.6654C12.5 11.0023 12.2366 10.3664 11.7678 9.8976C11.2989 9.42876 10.663 9.16536 10 9.16536H5C4.77899 9.16536 4.56702 9.07757 4.41074 8.92129C4.25446 8.76501 4.16667 8.55304 4.16667 8.33203V5.83203C4.16667 5.61102 4.25446 5.39906 4.41074 5.24278C4.56702 5.08649 4.77899 4.9987 5 4.9987H5.83333C5.83333 5.66174 6.09673 6.29762 6.56557 6.76646C7.03441 7.23531 7.67029 7.4987 8.33333 7.4987H15C15.663 7.4987 16.2989 7.23531 16.7678 6.76646C17.2366 6.29762 17.5 5.66174 17.5 4.9987V3.33203C17.5 2.66899 17.2366 2.03311 16.7678 1.56426C16.2989 1.09542 15.663 0.832031 15 0.832031ZM12.5 14.1654V17.4987H10.8333V14.1654H12.5ZM15.8333 4.9987C15.8333 5.21971 15.7455 5.43167 15.5893 5.58795C15.433 5.74423 15.221 5.83203 15 5.83203H8.33333C8.11232 5.83203 7.90036 5.74423 7.74408 5.58795C7.5878 5.43167 7.5 5.21971 7.5 4.9987V3.33203C7.5 3.11102 7.5878 2.89906 7.74408 2.74278C7.90036 2.5865 8.11232 2.4987 8.33333 2.4987H15C15.221 2.4987 15.433 2.5865 15.5893 2.74278C15.7455 2.89906 15.8333 3.11102 15.8333 3.33203V4.9987Z" fill="currentColor"/>
</svg>
