<svg width="20" height="20" viewBox="0 0 20 20" fill="none" xmlns="http://www.w3.org/2000/svg">
<path d="M18.3347 6.03465C18.3353 5.92498 18.3143 5.81626 18.2728 5.71473C18.2313 5.6132 18.1702 5.52085 18.093 5.44298L14.5596 1.90965C14.4818 1.83241 14.3894 1.77131 14.2879 1.72984C14.1864 1.68837 14.0777 1.66735 13.968 1.66798C13.8583 1.66735 13.7496 1.68837 13.6481 1.72984C13.5465 1.77131 13.4542 1.83241 13.3763 1.90965L11.018 4.26798L1.90965 13.3763C1.83241 13.4542 1.77131 13.5465 1.72984 13.6481C1.68837 13.7496 1.66735 13.8583 1.66798 13.968V17.5013C1.66798 17.7223 1.75578 17.9343 1.91206 18.0906C2.06834 18.2469 2.2803 18.3347 2.50132 18.3347H6.03465C6.15126 18.341 6.26789 18.3228 6.377 18.2811C6.4861 18.2395 6.58524 18.1754 6.66798 18.093L15.7263 8.98465L18.093 6.66798C18.169 6.58722 18.231 6.49426 18.2763 6.39298C18.2843 6.32656 18.2843 6.25941 18.2763 6.19298C18.2802 6.15419 18.2802 6.11511 18.2763 6.07632L18.3347 6.03465ZM5.69298 16.668H3.33465V14.3097L11.6096 6.03465L13.968 8.39298L5.69298 16.668ZM15.143 7.21798L12.7846 4.85965L13.968 3.68465L16.318 6.03465L15.143 7.21798Z" fill="currentColor"/>
</svg>
