<svg>
<path d="M15.8333 10H10V4.16666C10 3.66666 9.66667 3.33333 9.16667 3.33333C5.00001 3.33333 1.66667 6.66666 1.66667 10.8333C1.66667 15 5.00001 18.3333 9.16667 18.3333C13.3333 18.3333 16.6667 15 16.6667 10.8333C16.6667 10.3333 16.3333 10 15.8333 10ZM10 16.5833C6.83334 17.0833 3.83334 14.8333 3.41667 11.6667C2.91667 8.5 5.16667 5.5 8.33334 5.08333V10.8333C8.33334 11.3333 8.66667 11.6667 9.16667 11.6667H14.9167C14.5833 14.25 12.5833 16.25 10 16.5833ZM12.5 1.66666C12 1.66666 11.6667 2 11.6667 2.5V7.5C11.6667 8 12 8.33333 12.5 8.33333H17.5C18 8.33333 18.3333 8 18.3333 7.5C18.3333 4.25 15.75 1.66666 12.5 1.66666ZM13.3333 6.66666V3.41666C15 3.75 16.25 5 16.5833 6.66666H13.3333Z" fill="currentColor"/>
</svg>
