<svg>
  <path d="M17.8417 7.2C17.8417 7.2 17.8417 7.2 17.8417 7.15834C17.2545 5.55519 16.1891 4.17107 14.7896 3.19322C13.39 2.21537 11.7239 1.69098 10.0167 1.69098C8.30936 1.69098 6.64327 2.21537 5.24375 3.19322C3.84423 4.17107 2.77882 5.55519 2.19166 7.15834C2.19166 7.15834 2.19166 7.15834 2.19166 7.2C1.53593 9.00908 1.53593 10.9909 2.19166 12.8C2.19166 12.8 2.19166 12.8 2.19166 12.8417C2.77882 14.4448 3.84423 15.8289 5.24375 16.8068C6.64327 17.7846 8.30936 18.309 10.0167 18.309C11.7239 18.309 13.39 17.7846 14.7896 16.8068C16.1891 15.8289 17.2545 14.4448 17.8417 12.8417C17.8417 12.8417 17.8417 12.8417 17.8417 12.8C18.4974 10.9909 18.4974 9.00908 17.8417 7.2V7.2ZM3.54999 11.6667C3.26101 10.5743 3.26101 9.42566 3.54999 8.33334H5.09999C4.96668 9.44045 4.96668 10.5596 5.09999 11.6667H3.54999ZM4.23332 13.3333H5.39999C5.59559 14.0765 5.87517 14.7951 6.23332 15.475C5.41607 14.9183 4.7329 14.1867 4.23332 13.3333ZM5.39999 6.66667H4.23332C4.72572 5.81591 5.40015 5.08456 6.20832 4.525C5.85879 5.20604 5.58761 5.92452 5.39999 6.66667V6.66667ZM9.16666 16.4167C8.14313 15.6656 7.42428 14.571 7.14166 13.3333H9.16666V16.4167ZM9.16666 11.6667H6.78332C6.62782 10.561 6.62782 9.43901 6.78332 8.33334H9.16666V11.6667ZM9.16666 6.66667H7.14166C7.42428 5.42898 8.14313 4.33444 9.16666 3.58334V6.66667ZM15.7667 6.66667H14.6C14.4044 5.92347 14.1248 5.20495 13.7667 4.525C14.5839 5.08173 15.2671 5.81329 15.7667 6.66667ZM10.8333 3.58334C11.8569 4.33444 12.5757 5.42898 12.8583 6.66667H10.8333V3.58334ZM10.8333 16.4167V13.3333H12.8583C12.5757 14.571 11.8569 15.6656 10.8333 16.4167V16.4167ZM13.2167 11.6667H10.8333V8.33334H13.2167C13.3722 9.43901 13.3722 10.561 13.2167 11.6667ZM13.7917 15.475C14.1498 14.7951 14.4294 14.0765 14.625 13.3333H15.7917C15.2921 14.1867 14.6089 14.9183 13.7917 15.475ZM16.45 11.6667H14.9C14.9678 11.1137 15.0012 10.5571 15 10C15.0009 9.44292 14.9675 8.88631 14.9 8.33334H16.45C16.739 9.42566 16.739 10.5743 16.45 11.6667Z" fill="currentColor"/>
</svg>
