<svg>
  <path d="M11.667 6.66675H12.5003C12.7213 6.66675 12.9333 6.57895 13.0896 6.42267C13.2459 6.26639 13.3337 6.05443 13.3337 5.83342C13.3337 5.6124 13.2459 5.40044 13.0896 5.24416C12.9333 5.08788 12.7213 5.00008 12.5003 5.00008H11.667C11.446 5.00008 11.234 5.08788 11.0777 5.24416C10.9215 5.40044 10.8337 5.6124 10.8337 5.83342C10.8337 6.05443 10.9215 6.26639 11.0777 6.42267C11.234 6.57895 11.446 6.66675 11.667 6.66675ZM11.667 10.0001H12.5003C12.7213 10.0001 12.9333 9.91228 13.0896 9.756C13.2459 9.59972 13.3337 9.38776 13.3337 9.16675C13.3337 8.94573 13.2459 8.73377 13.0896 8.57749C12.9333 8.42121 12.7213 8.33342 12.5003 8.33342H11.667C11.446 8.33342 11.234 8.42121 11.0777 8.57749C10.9215 8.73377 10.8337 8.94573 10.8337 9.16675C10.8337 9.38776 10.9215 9.59972 11.0777 9.756C11.234 9.91228 11.446 10.0001 11.667 10.0001ZM7.50033 6.66675H8.33366C8.55467 6.66675 8.76663 6.57895 8.92291 6.42267C9.0792 6.26639 9.16699 6.05443 9.16699 5.83342C9.16699 5.6124 9.0792 5.40044 8.92291 5.24416C8.76663 5.08788 8.55467 5.00008 8.33366 5.00008H7.50033C7.27931 5.00008 7.06735 5.08788 6.91107 5.24416C6.75479 5.40044 6.66699 5.6124 6.66699 5.83342C6.66699 6.05443 6.75479 6.26639 6.91107 6.42267C7.06735 6.57895 7.27931 6.66675 7.50033 6.66675ZM7.50033 10.0001H8.33366C8.55467 10.0001 8.76663 9.91228 8.92291 9.756C9.0792 9.59972 9.16699 9.38776 9.16699 9.16675C9.16699 8.94573 9.0792 8.73377 8.92291 8.57749C8.76663 8.42121 8.55467 8.33342 8.33366 8.33342H7.50033C7.27931 8.33342 7.06735 8.42121 6.91107 8.57749C6.75479 8.73377 6.66699 8.94573 6.66699 9.16675C6.66699 9.38776 6.75479 9.59972 6.91107 9.756C7.06735 9.91228 7.27931 10.0001 7.50033 10.0001ZM17.5003 16.6667H16.667V2.50008C16.667 2.27907 16.5792 2.06711 16.4229 1.91083C16.2666 1.75455 16.0547 1.66675 15.8337 1.66675H4.16699C3.94598 1.66675 3.73402 1.75455 3.57774 1.91083C3.42146 2.06711 3.33366 2.27907 3.33366 2.50008V16.6667H2.50033C2.27931 16.6667 2.06735 16.7545 1.91107 16.9108C1.75479 17.0671 1.66699 17.2791 1.66699 17.5001C1.66699 17.7211 1.75479 17.9331 1.91107 18.0893C2.06735 18.2456 2.27931 18.3334 2.50033 18.3334H17.5003C17.7213 18.3334 17.9333 18.2456 18.0896 18.0893C18.2459 17.9331 18.3337 17.7211 18.3337 17.5001C18.3337 17.2791 18.2459 17.0671 18.0896 16.9108C17.9333 16.7545 17.7213 16.6667 17.5003 16.6667ZM10.8337 16.6667H9.16699V13.3334H10.8337V16.6667ZM15.0003 16.6667H12.5003V12.5001C12.5003 12.2791 12.4125 12.0671 12.2562 11.9108C12.1 11.7545 11.888 11.6667 11.667 11.6667H8.33366C8.11265 11.6667 7.90068 11.7545 7.7444 11.9108C7.58812 12.0671 7.50033 12.2791 7.50033 12.5001V16.6667H5.00033V3.33341H15.0003V16.6667Z" fill="currentColor"/>
</svg>
