<svg>
  <path d="M18.8342 1.71837C18.7966 1.57564 18.7218 1.44544 18.6174 1.34107C18.513 1.2367 18.3828 1.1619 18.2401 1.1243C16.5307 0.680284 14.7305 0.728107 13.047 1.26226C11.3635 1.79641 9.86509 2.79516 8.72434 4.14351L7.79522 5.24671L5.62455 4.72297C5.09684 4.539 4.52037 4.55218 4.00162 4.7601C3.48286 4.968 3.05686 5.35661 2.80229 5.85412L0.968794 9.104C0.904552 9.21783 0.867986 9.34525 0.862061 9.47583C0.856144 9.60641 0.881019 9.7365 0.934694 9.85566C0.98836 9.97491 1.06932 10.0797 1.17103 10.1619C1.27273 10.244 1.39232 10.301 1.52014 10.3283L4.08077 10.8772C3.86386 11.5376 3.70898 12.2167 3.61813 12.9057C3.60165 13.0322 3.61448 13.1609 3.65561 13.2818C3.69674 13.4027 3.76507 13.5124 3.85534 13.6027L6.43876 16.1861C6.51611 16.2635 6.60795 16.3249 6.70904 16.3668C6.81014 16.4087 6.91849 16.4302 7.02793 16.4302C7.05194 16.4302 7.07594 16.4291 7.10036 16.427C7.80481 16.3637 8.50067 16.2268 9.17667 16.0187L9.71309 18.5213C9.7405 18.6492 9.79759 18.7687 9.87967 18.8703C9.96184 18.972 10.0667 19.0529 10.1858 19.1066C10.305 19.1602 10.4351 19.1852 10.5657 19.1792C10.6963 19.1734 10.8236 19.1368 10.9374 19.0727L14.1918 17.2372C14.6498 16.9588 15.0077 16.5422 15.2136 16.0474C15.4195 15.5526 15.463 15.0052 15.3377 14.4841L14.7804 12.1849L15.8113 11.237C17.1647 10.0994 18.1673 8.60091 18.7024 6.91583C19.2376 5.23076 19.2833 3.42839 18.8342 1.71837ZM2.97685 8.936L4.27364 6.63619C4.35419 6.48005 4.49142 6.36065 4.65719 6.30247C4.82295 6.24429 5.0047 6.25173 5.16516 6.32328L6.59634 6.67011L6.05467 7.31327C5.54114 7.92875 5.09698 8.59891 4.73024 9.31166L2.97685 8.936ZM13.3687 15.7878L11.1055 17.0642L10.7476 15.3937C11.4731 15.0318 12.1491 14.5782 12.7588 14.0437L13.3783 13.4741L13.7146 14.8612C13.7582 15.0325 13.7484 15.2131 13.6866 15.3787C13.6248 15.5442 13.5138 15.687 13.3687 15.7878ZM14.7139 9.98333L11.6434 12.8052C10.4281 13.8563 8.92892 14.5244 7.33476 14.7254L5.33118 12.7218C5.60028 11.1235 6.29094 9.62583 7.33191 8.3835L8.7305 6.72291C8.75384 6.69853 8.77559 6.67271 8.79567 6.64561L9.99142 5.22587C10.8756 4.18161 12.021 3.39071 13.3108 2.93391C14.6005 2.47711 15.9884 2.37077 17.3328 2.62577C17.5939 3.97429 17.4887 5.36816 17.0281 6.6622C16.5675 7.95625 15.7683 9.10316 14.7139 9.98333ZM13.9448 4.8469C13.6975 4.8469 13.4558 4.92021 13.2503 5.05756C13.0448 5.19491 12.8845 5.39014 12.7899 5.61855C12.6953 5.84695 12.6705 6.09829 12.7188 6.34076C12.767 6.58324 12.886 6.80597 13.0608 6.98079C13.2357 7.1556 13.4584 7.27466 13.7009 7.32288C13.9433 7.37111 14.1947 7.34636 14.4231 7.25176C14.6515 7.15714 14.8468 6.99693 14.9841 6.79136C15.1214 6.5858 15.1948 6.34413 15.1948 6.0969C15.1948 5.93275 15.1624 5.77019 15.0996 5.61852C15.0368 5.46686 14.9448 5.32905 14.8287 5.21298C14.7126 5.0969 14.5748 5.00482 14.4231 4.94201C14.2714 4.8792 14.1089 4.84689 13.9448 4.8469Z" fill="currentColor"/>
</svg>
