<svg>
<path d="M15.8333 9.16667H10.8333V4.16667C10.8333 3.94565 10.7455 3.73369 10.5892 3.57741C10.433 3.42114 10.221 3.33334 9.99999 3.33334C9.77899 3.33334 9.56699 3.42114 9.41074 3.57741C9.25449 3.73369 9.16666 3.94565 9.16666 4.16667V9.16667H4.16666C3.94564 9.16667 3.73369 9.2545 3.5774 9.41075C3.42113 9.567 3.33333 9.779 3.33333 10C3.33333 10.221 3.42113 10.433 3.5774 10.5893C3.73369 10.7455 3.94564 10.8333 4.16666 10.8333H9.16666V15.8333C9.16666 16.0543 9.25449 16.2663 9.41074 16.4226C9.56699 16.5788 9.77899 16.6667 9.99999 16.6667C10.221 16.6667 10.433 16.5788 10.5892 16.4226C10.7455 16.2663 10.8333 16.0543 10.8333 15.8333V10.8333H15.8333C16.0543 10.8333 16.2663 10.7455 16.4226 10.5893C16.5788 10.433 16.6667 10.221 16.6667 10C16.6667 9.779 16.5788 9.567 16.4226 9.41075C16.2663 9.2545 16.0543 9.16667 15.8333 9.16667Z" fill="currentColor"/>
</svg>
