<svg>
<path d="M14.1667 9.16667H7.84169L10.5917 6.425C10.7486 6.26808 10.8368 6.05525 10.8368 5.83333C10.8368 5.61142 10.7486 5.39858 10.5917 5.24167C10.4348 5.08475 10.2219 4.99659 10 4.99659C9.77809 4.99659 9.56526 5.08475 9.40834 5.24167L5.24169 9.40833C5.16583 9.48758 5.10635 9.581 5.06669 9.68333C4.98334 9.88625 4.98334 10.1138 5.06669 10.3167C5.10635 10.419 5.16583 10.5124 5.24169 10.5917L9.40834 14.7583C9.48584 14.8364 9.57801 14.8984 9.67951 14.9407C9.78109 14.9831 9.89001 15.0048 10 15.0048C10.11 15.0048 10.2189 14.9831 10.3205 14.9407C10.4221 14.8984 10.5143 14.8364 10.5917 14.7583C10.6698 14.6808 10.7318 14.5887 10.7741 14.4872C10.8164 14.3856 10.8382 14.2767 10.8382 14.1667C10.8382 14.0567 10.8164 13.9478 10.7741 13.8462C10.7318 13.7447 10.6698 13.6525 10.5917 13.575L7.84169 10.8333H14.1667C14.3877 10.8333 14.5997 10.7455 14.7559 10.5892C14.9123 10.433 15 10.221 15 10C15 9.779 14.9123 9.567 14.7559 9.41075C14.5997 9.2545 14.3877 9.16667 14.1667 9.16667Z" fill="currentColor"/>
</svg>
