<svg>
<path d="M16.5917 12.925H12.8167C12.5957 12.925 12.3837 13.0128 12.2274 13.1691C12.0712 13.3253 11.9833 13.5373 11.9833 13.7583C11.9833 13.9793 12.0712 14.1913 12.2274 14.3476C12.3837 14.5038 12.5957 14.5917 12.8167 14.5917H14.8167C13.8974 15.5523 12.712 16.2161 11.4127 16.4978C10.1132 16.7796 8.75932 16.6663 7.52481 16.1727C6.29027 15.6791 5.23155 14.8276 4.48465 13.7277C3.73775 12.6277 3.33681 11.3296 3.33332 10C3.33332 9.779 3.24552 9.567 3.08925 9.41075C2.93296 9.2545 2.72101 9.16667 2.49999 9.16667C2.27897 9.16667 2.06701 9.2545 1.91073 9.41075C1.75446 9.567 1.66666 9.779 1.66666 10C1.67106 11.6273 2.15184 13.2178 3.04966 14.575C3.94748 15.9323 5.22305 16.997 6.71894 17.6377C8.21484 18.2784 9.86557 18.4671 11.4675 18.1805C13.0694 17.8939 14.5523 17.1446 15.7333 16.025V17.5C15.7333 17.721 15.8212 17.933 15.9774 18.0893C16.1337 18.2455 16.3457 18.3333 16.5667 18.3333C16.7877 18.3333 16.9997 18.2455 17.1559 18.0893C17.3122 17.933 17.4 17.721 17.4 17.5V13.75C17.3979 13.5347 17.3127 13.3286 17.1619 13.1748C17.0112 13.0209 16.8069 12.9314 16.5917 12.925ZM9.99999 1.66667C7.86365 1.67276 5.81123 2.49909 4.26666 3.975V2.5C4.26666 2.27898 4.17886 2.06703 4.02258 1.91074C3.8663 1.75447 3.65434 1.66667 3.43332 1.66667C3.21231 1.66667 3.00035 1.75447 2.84406 1.91074C2.68779 2.06703 2.59999 2.27898 2.59999 2.5V6.25C2.59999 6.47102 2.68779 6.68298 2.84406 6.83926C3.00035 6.99553 3.21231 7.08333 3.43332 7.08333H7.18332C7.40434 7.08333 7.6163 6.99553 7.77258 6.83926C7.92886 6.68298 8.01666 6.47102 8.01666 6.25C8.01666 6.02898 7.92886 5.81703 7.77258 5.66074C7.6163 5.50447 7.40434 5.41667 7.18332 5.41667H5.18332C6.10205 4.45656 7.28673 3.79292 8.58532 3.51093C9.88391 3.22893 11.2372 3.34146 12.4713 3.83405C13.7055 4.32665 14.7643 5.17684 15.5118 6.2755C16.2594 7.37417 16.6615 8.67117 16.6667 10C16.6667 10.221 16.7545 10.433 16.9107 10.5893C17.067 10.7455 17.279 10.8333 17.5 10.8333C17.721 10.8333 17.933 10.7455 18.0892 10.5893C18.2455 10.433 18.3333 10.221 18.3333 10C18.3333 8.90567 18.1177 7.82202 17.699 6.81098C17.2802 5.79993 16.6664 4.88127 15.8926 4.10744C15.1187 3.33363 14.2001 2.71979 13.189 2.301C12.178 1.88222 11.0943 1.66667 9.99999 1.66667Z" fill="currentColor"/>
</svg>
