<svg>
    <g clip-path="url(#clip0_4923_14299)">
        <path d="M6.66732 17.4997H3.33398C3.11297 17.4997 2.90101 17.4119 2.74473 17.2556C2.58845 17.0993 2.50065 16.8874 2.50065 16.6663V13.333C2.50065 13.112 2.41285 12.9 2.25657 12.7438C2.10029 12.5875 1.88833 12.4997 1.66732 12.4997C1.4463 12.4997 1.23434 12.5875 1.07806 12.7438C0.921782 12.9 0.833984 13.112 0.833984 13.333V16.6663C0.833984 17.3294 1.09738 17.9653 1.56622 18.4341C2.03506 18.9029 2.67094 19.1663 3.33398 19.1663H6.66732C6.88833 19.1663 7.10029 19.0785 7.25657 18.9223C7.41285 18.766 7.50065 18.554 7.50065 18.333C7.50065 18.112 7.41285 17.9 7.25657 17.7437C7.10029 17.5875 6.88833 17.4997 6.66732 17.4997ZM18.334 12.4997C18.113 12.4997 17.901 12.5875 17.7447 12.7438C17.5884 12.9 17.5006 13.112 17.5006 13.333V16.6663C17.5006 16.8874 17.4129 17.0993 17.2566 17.2556C17.1003 17.4119 16.8883 17.4997 16.6673 17.4997H13.334C13.113 17.4997 12.901 17.5875 12.7447 17.7437C12.5884 17.9 12.5007 18.112 12.5007 18.333C12.5007 18.554 12.5884 18.766 12.7447 18.9223C12.901 19.0785 13.113 19.1663 13.334 19.1663H16.6673C17.3304 19.1663 17.9662 18.9029 18.4351 18.4341C18.9039 17.9653 19.1673 17.3294 19.1673 16.6663V13.333C19.1673 13.112 19.0795 12.9 18.9232 12.7438C18.767 12.5875 18.555 12.4997 18.334 12.4997ZM16.6673 0.833008H13.334C13.113 0.833008 12.901 0.920805 12.7447 1.07709C12.5884 1.23337 12.5007 1.44533 12.5007 1.66634C12.5007 1.88735 12.5884 2.09932 12.7447 2.2556C12.901 2.41188 13.113 2.49967 13.334 2.49967H16.6673C16.8883 2.49967 17.1003 2.58747 17.2566 2.74375C17.4129 2.90003 17.5006 3.11199 17.5006 3.33301V6.66634C17.5006 6.88735 17.5884 7.09932 17.7447 7.2556C17.901 7.41188 18.113 7.49967 18.334 7.49967C18.555 7.49967 18.767 7.41188 18.9232 7.2556C19.0795 7.09932 19.1673 6.88735 19.1673 6.66634V3.33301C19.1673 2.66997 18.9039 2.03408 18.4351 1.56524C17.9662 1.0964 17.3304 0.833008 16.6673 0.833008ZM1.66732 7.49967C1.88833 7.49967 2.10029 7.41188 2.25657 7.2556C2.41285 7.09932 2.50065 6.88735 2.50065 6.66634V3.33301C2.50065 3.11199 2.58845 2.90003 2.74473 2.74375C2.90101 2.58747 3.11297 2.49967 3.33398 2.49967H6.66732C6.88833 2.49967 7.10029 2.41188 7.25657 2.2556C7.41285 2.09932 7.50065 1.88735 7.50065 1.66634C7.50065 1.44533 7.41285 1.23337 7.25657 1.07709C7.10029 0.920805 6.88833 0.833008 6.66732 0.833008H3.33398C2.67094 0.833008 2.03506 1.0964 1.56622 1.56524C1.09738 2.03408 0.833984 2.66997 0.833984 3.33301V6.66634C0.833984 6.88735 0.921782 7.09932 1.07806 7.2556C1.23434 7.41188 1.4463 7.49967 1.66732 7.49967ZM8.33398 4.16634H5.00065C4.77964 4.16634 4.56768 4.25414 4.4114 4.41042C4.25511 4.5667 4.16732 4.77866 4.16732 4.99967V8.33301C4.16732 8.55402 4.25511 8.76598 4.4114 8.92226C4.56768 9.07854 4.77964 9.16634 5.00065 9.16634H8.33398C8.555 9.16634 8.76696 9.07854 8.92324 8.92226C9.07952 8.76598 9.16732 8.55402 9.16732 8.33301V4.99967C9.16732 4.77866 9.07952 4.5667 8.92324 4.41042C8.76696 4.25414 8.555 4.16634 8.33398 4.16634ZM7.50065 7.49967H5.83398V5.83301H7.50065V7.49967ZM11.6673 9.16634H15.0006C15.2217 9.16634 15.4336 9.07854 15.5899 8.92226C15.7462 8.76598 15.834 8.55402 15.834 8.33301V4.99967C15.834 4.77866 15.7462 4.5667 15.5899 4.41042C15.4336 4.25414 15.2217 4.16634 15.0006 4.16634H11.6673C11.4463 4.16634 11.2343 4.25414 11.0781 4.41042C10.9218 4.5667 10.834 4.77866 10.834 4.99967V8.33301C10.834 8.55402 10.9218 8.76598 11.0781 8.92226C11.2343 9.07854 11.4463 9.16634 11.6673 9.16634ZM12.5007 5.83301H14.1673V7.49967H12.5007V5.83301ZM8.33398 10.833H5.00065C4.77964 10.833 4.56768 10.9208 4.4114 11.0771C4.25511 11.2334 4.16732 11.4453 4.16732 11.6663V14.9997C4.16732 15.2207 4.25511 15.4326 4.4114 15.5889C4.56768 15.7452 4.77964 15.833 5.00065 15.833H8.33398C8.555 15.833 8.76696 15.7452 8.92324 15.5889C9.07952 15.4326 9.16732 15.2207 9.16732 14.9997V11.6663C9.16732 11.4453 9.07952 11.2334 8.92324 11.0771C8.76696 10.9208 8.555 10.833 8.33398 10.833ZM7.50065 14.1663H5.83398V12.4997H7.50065V14.1663ZM11.6673 13.333C11.8883 13.333 12.1003 13.2452 12.2566 13.0889C12.4129 12.9326 12.5007 12.7207 12.5007 12.4997C12.7217 12.4997 12.9336 12.4119 13.0899 12.2556C13.2462 12.0993 13.334 11.8874 13.334 11.6663C13.334 11.4453 13.2462 11.2334 13.0899 11.0771C12.9336 10.9208 12.7217 10.833 12.5007 10.833H11.6673C11.4463 10.833 11.2343 10.9208 11.0781 11.0771C10.9218 11.2334 10.834 11.4453 10.834 11.6663V12.4997C10.834 12.7207 10.9218 12.9326 11.0781 13.0889C11.2343 13.2452 11.4463 13.333 11.6673 13.333ZM15.0006 10.833C14.7796 10.833 14.5677 10.9208 14.4114 11.0771C14.2551 11.2334 14.1673 11.4453 14.1673 11.6663V14.1663C13.9463 14.1663 13.7343 14.2541 13.5781 14.4104C13.4218 14.5667 13.334 14.7787 13.334 14.9997C13.334 15.2207 13.4218 15.4326 13.5781 15.5889C13.7343 15.7452 13.9463 15.833 14.1673 15.833H15.0006C15.2217 15.833 15.4336 15.7452 15.5899 15.5889C15.7462 15.4326 15.834 15.2207 15.834 14.9997V11.6663C15.834 11.4453 15.7462 11.2334 15.5899 11.0771C15.4336 10.9208 15.2217 10.833 15.0006 10.833ZM11.6673 14.1663C11.5025 14.1663 11.3414 14.2152 11.2043 14.3068C11.0673 14.3983 10.9605 14.5285 10.8974 14.6808C10.8343 14.833 10.8178 15.0006 10.85 15.1622C10.8821 15.3239 10.9615 15.4724 11.0781 15.5889C11.1946 15.7055 11.3431 15.7848 11.5047 15.817C11.6664 15.8491 11.8339 15.8326 11.9862 15.7696C12.1385 15.7065 12.2686 15.5997 12.3602 15.4626C12.4518 15.3256 12.5007 15.1645 12.5007 14.9997C12.5007 14.7787 12.4129 14.5667 12.2566 14.4104C12.1003 14.2541 11.8883 14.1663 11.6673 14.1663Z" fill="currentColor"/>
    </g>
    <defs>
        <clipPath id="clip0_4923_14299">
            <rect width="20" height="20" fill="currentColor"/>
        </clipPath>
    </defs>
</svg>
