<svg>
<path d="M13.5 25.4998H12V14.4998H19.8L19 15.2898C18.8117 15.4768 18.7054 15.7309 18.7044 15.9963C18.7035 16.2616 18.808 16.5165 18.995 16.7048C19.182 16.8931 19.4361 16.9994 19.7015 17.0004C19.9668 17.0013 20.2217 16.8968 20.41 16.7098L22.91 14.2098C23.0037 14.1169 23.0781 14.0063 23.1289 13.8844C23.1797 13.7625 23.2058 13.6318 23.2058 13.4998C23.2058 13.3678 23.1797 13.2371 23.1289 13.1152C23.0781 12.9934 23.0037 12.8828 22.91 12.7898L20.41 10.2898C20.2226 10.1036 19.9692 9.99902 19.705 9.99902C19.4408 9.99902 19.1874 10.1036 19 10.2898C18.9063 10.3828 18.8319 10.4934 18.7811 10.6152C18.7303 10.7371 18.7042 10.8678 18.7042 10.9998C18.7042 11.1318 18.7303 11.2625 18.7811 11.3844C18.8319 11.5063 18.9063 11.6169 19 11.7098L19.79 12.4998H11C10.7348 12.4998 10.4804 12.6052 10.2929 12.7927C10.1054 12.9802 10 13.2346 10 13.4998V26.4998C10 26.765 10.1054 27.0194 10.2929 27.2069C10.4804 27.3945 10.7348 27.4998 11 27.4998H13.5C13.7652 27.4998 14.0196 27.3945 14.2071 27.2069C14.3946 27.0194 14.5 26.765 14.5 26.4998C14.5 26.2346 14.3946 25.9802 14.2071 25.7927C14.0196 25.6052 13.7652 25.4998 13.5 25.4998ZM29 12.4998H26.5C26.2348 12.4998 25.9804 12.6052 25.7929 12.7927C25.6054 12.9802 25.5 13.2346 25.5 13.4998C25.5 13.765 25.6054 14.0194 25.7929 14.2069C25.9804 14.3945 26.2348 14.4998 26.5 14.4998H28V25.4998H19.63L20.42 24.7098C20.5137 24.6169 20.5881 24.5063 20.6389 24.3844C20.6897 24.2625 20.7158 24.1318 20.7158 23.9998C20.7158 23.8678 20.6897 23.7371 20.6389 23.6152C20.5881 23.4934 20.5137 23.3828 20.42 23.2898C20.2326 23.1036 19.9792 22.999 19.715 22.999C19.4508 22.999 19.1974 23.1036 19.01 23.2898L16.51 25.7898C16.4163 25.8828 16.3419 25.9934 16.2911 26.1152C16.2403 26.2371 16.2142 26.3678 16.2142 26.4998C16.2142 26.6318 16.2403 26.7625 16.2911 26.8844C16.3419 27.0063 16.4163 27.1169 16.51 27.2098L19.01 29.7098C19.1983 29.8968 19.4532 30.0013 19.7185 30.0004C19.9839 29.9994 20.238 29.8931 20.425 29.7048C20.612 29.5165 20.7165 29.2616 20.7156 28.9963C20.7146 28.7309 20.6083 28.4768 20.42 28.2898L19.63 27.4998H29C29.2652 27.4998 29.5196 27.3945 29.7071 27.2069C29.8946 27.0194 30 26.765 30 26.4998V13.4998C30 13.2346 29.8946 12.9802 29.7071 12.7927C29.5196 12.6052 29.2652 12.4998 29 12.4998Z" fill="currentColor"/>
</svg>
