<svg>
<path d="M4.58332 14.5834H3.33332V5.41672H9.83332L9.16666 6.07505C9.00974 6.23087 8.92116 6.44264 8.92032 6.66377C8.91957 6.88491 9.00666 7.0973 9.16249 7.25422C9.31832 7.41114 9.53007 7.49974 9.75124 7.50052C9.97232 7.50129 10.1847 7.4142 10.3417 7.25839L12.425 5.17505C12.5031 5.09759 12.5651 5.00542 12.6074 4.90387C12.6497 4.80232 12.6715 4.69339 12.6715 4.58339C12.6715 4.47338 12.6497 4.36445 12.6074 4.2629C12.5651 4.16135 12.5031 4.06919 12.425 3.99172L10.3417 1.90839C10.1855 1.75318 9.97432 1.66606 9.75416 1.66606C9.53399 1.66606 9.32282 1.75318 9.16666 1.90839C9.08857 1.98585 9.02657 2.07802 8.98424 2.17957C8.94191 2.28112 8.92016 2.39004 8.92016 2.50005C8.92016 2.61006 8.94191 2.71899 8.98424 2.82054C9.02657 2.92209 9.08857 3.01425 9.16666 3.09172L9.82499 3.75005H2.49999C2.27897 3.75005 2.06701 3.83785 1.91073 3.99413C1.75446 4.15041 1.66666 4.36237 1.66666 4.58339V15.4168C1.66666 15.6378 1.75446 15.8497 1.91073 16.006C2.06701 16.1623 2.27897 16.2501 2.49999 16.2501H4.58332C4.80434 16.2501 5.0163 16.1623 5.17258 16.006C5.32886 15.8497 5.41666 15.6378 5.41666 15.4168C5.41666 15.1957 5.32886 14.9838 5.17258 14.8275C5.0163 14.6712 4.80434 14.5834 4.58332 14.5834ZM17.5 3.75005H15.4167C15.1957 3.75005 14.9837 3.83785 14.8274 3.99413C14.6712 4.15041 14.5833 4.36237 14.5833 4.58339C14.5833 4.8044 14.6712 5.01636 14.8274 5.17264C14.9837 5.32892 15.1957 5.41672 15.4167 5.41672H16.6667V14.5834H9.69166L10.35 13.9251C10.4281 13.8476 10.4901 13.7554 10.5324 13.6538C10.5747 13.5523 10.5965 13.4434 10.5965 13.3334C10.5965 13.2233 10.5747 13.1144 10.5324 13.0129C10.4901 12.9113 10.4281 12.8192 10.35 12.7418C10.1938 12.5865 9.98266 12.4994 9.76249 12.4994C9.54232 12.4994 9.33116 12.5865 9.17499 12.7418L7.09166 14.8251C7.01355 14.9025 6.95156 14.9947 6.90925 15.0963C6.86694 15.1978 6.84516 15.3067 6.84516 15.4168C6.84516 15.5268 6.86694 15.6357 6.90925 15.7372C6.95156 15.8388 7.01355 15.9309 7.09166 16.0084L9.17499 18.0918C9.33191 18.2475 9.54432 18.3347 9.76541 18.3338C9.98657 18.3331 10.1983 18.2445 10.3542 18.0876C10.51 17.9307 10.5971 17.7183 10.5963 17.4971C10.5955 17.276 10.5069 17.0642 10.35 16.9084L9.69166 16.2501H17.5C17.721 16.2501 17.933 16.1623 18.0892 16.006C18.2455 15.8497 18.3333 15.6378 18.3333 15.4168V4.58339C18.3333 4.36237 18.2455 4.15041 18.0892 3.99413C17.933 3.83785 17.721 3.75005 17.5 3.75005Z" fill="currentColor"/>
</svg>
