<svg width="20" height="20" viewBox="0 0 20 20" fill="none" xmlns="http://www.w3.org/2000/svg">
<path d="M18.268 2.18464C18.1834 1.98101 18.0216 1.8192 17.818 1.73464C17.7178 1.69193 17.6102 1.66929 17.5013 1.66797H12.5013C12.2803 1.66797 12.0683 1.75577 11.912 1.91205C11.7558 2.06833 11.668 2.28029 11.668 2.5013C11.668 2.72232 11.7558 2.93428 11.912 3.09056C12.0683 3.24684 12.2803 3.33464 12.5013 3.33464H15.493L3.33464 15.493V12.5013C3.33464 12.2803 3.24684 12.0683 3.09056 11.912C2.93428 11.7558 2.72232 11.668 2.5013 11.668C2.28029 11.668 2.06833 11.7558 1.91205 11.912C1.75577 12.0683 1.66797 12.2803 1.66797 12.5013V17.5013C1.66929 17.6102 1.69193 17.7178 1.73464 17.818C1.8192 18.0216 1.98101 18.1834 2.18464 18.268C2.28482 18.3107 2.3924 18.3333 2.5013 18.3346H7.5013C7.72232 18.3346 7.93428 18.2468 8.09056 18.0906C8.24684 17.9343 8.33464 17.7223 8.33464 17.5013C8.33464 17.2803 8.24684 17.0683 8.09056 16.912C7.93428 16.7558 7.72232 16.668 7.5013 16.668H4.50964L16.668 4.50964V7.5013C16.668 7.72232 16.7558 7.93428 16.912 8.09056C17.0683 8.24684 17.2803 8.33464 17.5013 8.33464C17.7223 8.33464 17.9343 8.24684 18.0906 8.09056C18.2468 7.93428 18.3346 7.72232 18.3346 7.5013V2.5013C18.3333 2.3924 18.3107 2.28482 18.268 2.18464Z" fill="currentColor"/>
</svg>
