<svg>
  <path d="M18.3333 4.16666H1.66668C1.44566 4.16666 1.2337 4.25446 1.07742 4.41074C0.921141 4.56702 0.833344 4.77898 0.833344 4.99999V8.33333C0.834793 8.84911 0.995742 9.35183 1.29413 9.77255C1.59251 10.1933 2.01372 10.5114 2.50001 10.6833V18.3333C2.50001 18.5543 2.58781 18.7663 2.74409 18.9226C2.90037 19.0789 3.11233 19.1667 3.33334 19.1667H16.6667C16.8877 19.1667 17.0997 19.0789 17.2559 18.9226C17.4122 18.7663 17.5 18.5543 17.5 18.3333V10.6833C17.9863 10.5114 18.4075 10.1933 18.7059 9.77255C19.0043 9.35183 19.1652 8.84911 19.1667 8.33333V4.99999C19.1667 4.77898 19.0789 4.56702 18.9226 4.41074C18.7663 4.25446 18.5544 4.16666 18.3333 4.16666ZM12.5 5.83333H14.1667V8.33333C14.1667 8.55434 14.0789 8.7663 13.9226 8.92258C13.7663 9.07886 13.5544 9.16666 13.3333 9.16666C13.1123 9.16666 12.9004 9.07886 12.7441 8.92258C12.5878 8.7663 12.5 8.55434 12.5 8.33333V5.83333ZM9.16668 5.83333H10.8333V8.33333C10.8333 8.55434 10.7455 8.7663 10.5893 8.92258C10.433 9.07886 10.221 9.16666 10 9.16666C9.779 9.16666 9.56703 9.07886 9.41075 8.92258C9.25447 8.7663 9.16668 8.55434 9.16668 8.33333V5.83333ZM5.83334 5.83333H7.50001V8.33333C7.50001 8.55434 7.41221 8.7663 7.25593 8.92258C7.09965 9.07886 6.88769 9.16666 6.66668 9.16666C6.44566 9.16666 6.2337 9.07886 6.07742 8.92258C5.92114 8.7663 5.83334 8.55434 5.83334 8.33333V5.83333ZM3.33334 9.16666C3.11233 9.16666 2.90037 9.07886 2.74409 8.92258C2.58781 8.7663 2.50001 8.55434 2.50001 8.33333V5.83333H4.16668V8.33333C4.16668 8.55434 4.07888 8.7663 3.9226 8.92258C3.76632 9.07886 3.55436 9.16666 3.33334 9.16666ZM11.6667 17.5H8.33334V15.8333C8.33334 15.3913 8.50894 14.9674 8.8215 14.6548C9.13406 14.3423 9.55798 14.1667 10 14.1667C10.442 14.1667 10.866 14.3423 11.1785 14.6548C11.4911 14.9674 11.6667 15.3913 11.6667 15.8333V17.5ZM15.8333 17.5H13.3333V15.8333C13.3333 14.9493 12.9822 14.1014 12.357 13.4763C11.7319 12.8512 10.8841 12.5 10 12.5C9.11595 12.5 8.26811 12.8512 7.64299 13.4763C7.01787 14.1014 6.66668 14.9493 6.66668 15.8333V17.5H4.16668V10.6833C4.47298 10.5696 4.75554 10.4001 5.00001 10.1833C5.45836 10.5933 6.05173 10.8199 6.66668 10.8199C7.28162 10.8199 7.87499 10.5933 8.33334 10.1833C8.79169 10.5933 9.38507 10.8199 10 10.8199C10.615 10.8199 11.2083 10.5933 11.6667 10.1833C12.125 10.5933 12.7184 10.8199 13.3333 10.8199C13.9483 10.8199 14.5417 10.5933 15 10.1833C15.2445 10.4001 15.527 10.5696 15.8333 10.6833V17.5ZM17.5 8.33333C17.5 8.55434 17.4122 8.7663 17.2559 8.92258C17.0997 9.07886 16.8877 9.16666 16.6667 9.16666C16.4457 9.16666 16.2337 9.07886 16.0774 8.92258C15.9211 8.7663 15.8333 8.55434 15.8333 8.33333V5.83333H17.5V8.33333ZM3.58334 2.49999H16.6667C16.8877 2.49999 17.0997 2.4122 17.2559 2.25592C17.4122 2.09964 17.5 1.88768 17.5 1.66666C17.5 1.44565 17.4122 1.23369 17.2559 1.07741C17.0997 0.921126 16.8877 0.833328 16.6667 0.833328H3.58334C3.36233 0.833328 3.15037 0.921126 2.99409 1.07741C2.83781 1.23369 2.75001 1.44565 2.75001 1.66666C2.75001 1.88768 2.83781 2.09964 2.99409 2.25592C3.15037 2.4122 3.36233 2.49999 3.58334 2.49999V2.49999Z" fill="currentColor"/>
</svg>
