<svg>
  <path d="M15.5916 6.00832C15.5142 5.93021 15.422 5.86822 15.3204 5.82591C15.2189 5.7836 15.11 5.76182 14.9999 5.76182C14.8899 5.76182 14.781 5.7836 14.6795 5.82591C14.5779 5.86822 14.4857 5.93021 14.4083 6.00832L8.19995 12.225L5.59161 9.60833C5.51118 9.53058 5.41623 9.4695 5.31218 9.4285C5.20814 9.3875 5.09703 9.36742 4.98521 9.36933C4.8734 9.37125 4.76306 9.39525 4.66049 9.43983C4.55793 9.48433 4.46515 9.54875 4.38745 9.62917C4.30975 9.70958 4.24866 9.8045 4.20765 9.90858C4.16665 10.0127 4.14654 10.1237 4.14847 10.2356C4.15041 10.3473 4.17435 10.4578 4.21892 10.5603C4.26351 10.6628 4.32785 10.7556 4.40828 10.8333L7.60828 14.0333C7.68575 14.1114 7.77791 14.1734 7.87946 14.2158C7.98101 14.258 8.08994 14.2798 8.19995 14.2798C8.30996 14.2798 8.41891 14.258 8.52041 14.2158C8.62199 14.1734 8.71416 14.1114 8.79166 14.0333L15.5916 7.23332C15.6762 7.15528 15.7437 7.06057 15.7899 6.95516C15.8361 6.84974 15.8599 6.7359 15.8599 6.62082C15.8599 6.50573 15.8361 6.3919 15.7899 6.28648C15.7437 6.18107 15.6762 6.08636 15.5916 6.00832Z" fill="currentColor"/>
</svg>
