<svg width="20" height="20" viewBox="0 0 20 20" fill="none" xmlns="http://www.w3.org/2000/svg">
<path d="M17.6013 8.92632L10.593 1.90965C10.5151 1.83241 10.4228 1.77131 10.3212 1.72984C10.2197 1.68837 10.111 1.66735 10.0013 1.66798H2.50132C2.2803 1.66798 2.06834 1.75578 1.91206 1.91206C1.75578 2.06834 1.66798 2.2803 1.66798 2.50132V10.0013C1.66735 10.111 1.68837 10.2197 1.72984 10.3212C1.77131 10.4228 1.83241 10.5151 1.90965 10.593L8.92632 17.6013C9.39507 18.0695 10.0305 18.3325 10.693 18.3325C11.3555 18.3325 11.9909 18.0695 12.4597 17.6013L17.6013 12.5013C18.0695 12.0326 18.3325 11.3972 18.3325 10.7347C18.3325 10.0721 18.0695 9.43673 17.6013 8.96798V8.92632ZM16.4263 11.2763L11.2763 16.418C11.1202 16.5732 10.909 16.6603 10.6888 16.6603C10.4687 16.6603 10.2575 16.5732 10.1013 16.418L3.33465 9.65965V3.33465H9.65965L16.4263 10.1013C16.5036 10.1792 16.5647 10.2715 16.6061 10.3731C16.6476 10.4746 16.6686 10.5833 16.668 10.693C16.6671 10.9116 16.5803 11.1211 16.4263 11.2763Z" fill="currentColor"/>
</svg>
