<svg>
  <path d="M6.43583 12.576C6.28328 12.4235 6.07633 12.3378 5.86061 12.3378C5.64483 12.3378 5.43792 12.4235 5.28536 12.576C5.1328 12.7286 5.04709 12.9355 5.04709 13.1513C5.04709 13.367 5.1328 13.574 5.28536 13.7265L6.14417 14.5853C6.21945 14.6612 6.30906 14.7215 6.40778 14.7626C6.50656 14.8038 6.61245 14.825 6.71939 14.825C6.82633 14.825 6.93222 14.8038 7.03095 14.7626C7.12967 14.7215 7.21928 14.6612 7.29461 14.5853C7.37056 14.51 7.43083 14.4203 7.47195 14.3216C7.51311 14.2229 7.53428 14.117 7.53428 14.0101C7.53428 13.9031 7.51311 13.7972 7.47195 13.6985C7.43083 13.5997 7.37056 13.5102 7.29461 13.4348L6.43583 12.576ZM3.36522 8.20101L2.50642 9.05984C2.44299 9.12034 2.39087 9.19167 2.35248 9.27045C2.23582 9.32679 2.13436 9.41029 2.05661 9.5139C1.97887 9.61756 1.92712 9.73834 1.90569 9.86612C1.88426 9.99384 1.89379 10.1249 1.93347 10.2482C1.97314 10.3716 2.04182 10.4836 2.13373 10.5749L2.99253 11.4337C3.06785 11.5096 3.15746 11.5699 3.25618 11.611C3.35491 11.6522 3.46081 11.6733 3.56776 11.6733C3.67472 11.6733 3.78061 11.6522 3.87934 11.611C3.97807 11.5699 4.06768 11.5096 4.14299 11.4337C4.21893 11.3583 4.27921 11.2687 4.32034 11.17C4.36147 11.0713 4.38265 10.9654 4.38265 10.8585C4.38265 10.7515 4.36147 10.6456 4.32034 10.5468C4.27921 10.4481 4.21893 10.3585 4.14299 10.2832L3.85133 9.99962L4.50758 9.3434C4.64031 9.1884 4.70966 8.98906 4.70179 8.78512C4.69391 8.58123 4.60938 8.38778 4.4651 8.24351C4.32081 8.09923 4.12738 8.01467 3.92348 8.00684C3.71957 7.99895 3.52021 8.06828 3.36522 8.20101ZM6.75989 8.84106C6.545 8.84106 6.33894 8.92645 6.187 9.0784C6.03506 9.23034 5.94972 9.4364 5.94972 9.65128V10.8666C5.94972 11.0814 6.03506 11.2875 6.187 11.4395C6.33894 11.5914 6.545 11.6767 6.75989 11.6767C6.97478 11.6767 7.18083 11.5914 7.33278 11.4395C7.48472 11.2875 7.57006 11.0814 7.57006 10.8666V9.65128C7.57006 9.4364 7.48472 9.23034 7.33278 9.0784C7.18083 8.92645 6.97478 8.84106 6.75989 8.84106ZM17.8676 9.4244L13.8166 5.37349C13.7027 5.26107 13.558 5.18491 13.4008 5.15464C13.2437 5.12435 13.0811 5.14131 12.9335 5.20335C12.7856 5.26413 12.6589 5.36735 12.5695 5.49999C12.4801 5.63262 12.432 5.78879 12.4312 5.94873V14.0506C12.432 14.2105 12.4801 14.3667 12.5695 14.4993C12.6589 14.632 12.7856 14.7352 12.9335 14.796C13.0297 14.8413 13.1351 14.8635 13.2414 14.8607C13.348 14.8614 13.4537 14.841 13.5524 14.8006C13.6511 14.7603 13.7409 14.7009 13.8166 14.6258L17.8676 10.5749C17.9434 10.4996 18.0037 10.41 18.0449 10.3112C18.086 10.2125 18.1072 10.1066 18.1072 9.99962C18.1072 9.89267 18.086 9.78679 18.0449 9.68806C18.0037 9.58934 17.9434 9.49973 17.8676 9.4244ZM14.0516 12.098V7.90129L16.1499 9.99962L14.0516 12.098ZM10.0006 1.8978C9.78578 1.8978 9.57967 1.98315 9.42772 2.13509C9.27583 2.28703 9.19045 2.4931 9.19045 2.70798V17.2913C9.19045 17.5062 9.27583 17.7123 9.42772 17.8642C9.57967 18.0161 9.78578 18.1015 10.0006 18.1015C10.2155 18.1015 10.4216 18.0161 10.5735 17.8642C10.7254 17.7123 10.8108 17.5062 10.8108 17.2913V2.70798C10.8108 2.4931 10.7254 2.28703 10.5735 2.13509C10.4216 1.98315 10.2155 1.8978 10.0006 1.8978ZM7.06778 5.20335C6.92022 5.14131 6.75761 5.12435 6.60045 5.15464C6.44328 5.18491 6.29861 5.26107 6.18467 5.37349L5.65806 5.94873C5.50715 6.10051 5.42245 6.30584 5.42245 6.5199C5.42245 6.73395 5.50715 6.93928 5.65806 7.09106C5.80761 7.24373 6.01145 7.33112 6.22517 7.33412C6.352 7.3334 6.47689 7.30284 6.58978 7.24501C6.7115 7.27134 6.83761 7.26923 6.95839 7.2389C7.07917 7.20856 7.19133 7.15078 7.28617 7.07006C7.381 6.98934 7.45595 6.88784 7.50517 6.77345C7.55445 6.65906 7.57661 6.5349 7.57006 6.41051V5.94873C7.56928 5.78879 7.52117 5.63262 7.43178 5.49999C7.34239 5.36735 7.21572 5.26413 7.06778 5.20335Z" fill="currentColor"/>
</svg>
