<svg>
<path d="M9.99999 13.3333C9.83516 13.3333 9.67399 13.3822 9.53699 13.4738C9.39991 13.5653 9.29316 13.6955 9.23008 13.8477C9.167 14.0001 9.15049 14.1676 9.18266 14.3292C9.21483 14.4909 9.29416 14.6394 9.41074 14.7559C9.52724 14.8725 9.67574 14.9518 9.83741 14.984C9.99908 15.0162 10.1666 14.9997 10.3189 14.9366C10.4712 14.8735 10.6013 14.7667 10.6928 14.6297C10.7844 14.4926 10.8333 14.3315 10.8333 14.1667C10.8333 13.9457 10.7455 13.7337 10.5892 13.5774C10.4329 13.4212 10.221 13.3333 9.99999 13.3333ZM18.8917 14.5583L12.1833 2.89169C11.9665 2.50295 11.6498 2.17915 11.266 1.95375C10.8822 1.72834 10.4451 1.6095 9.99999 1.6095C9.55483 1.6095 9.11783 1.72834 8.73399 1.95375C8.35016 2.17915 8.03346 2.50295 7.81664 2.89169L1.14997 14.5583C0.925628 14.9367 0.805087 15.3675 0.800505 15.8073C0.795923 16.2472 0.90747 16.6805 1.12387 17.0634C1.34028 17.4463 1.65389 17.7654 2.03304 17.9884C2.41219 18.2113 2.84345 18.3303 3.2833 18.3333H16.7167C17.16 18.3377 17.5966 18.2241 17.9816 18.0041C18.3666 17.7842 18.6861 17.4657 18.9074 17.0815C19.1288 16.6973 19.244 16.2612 19.2412 15.8178C19.2384 15.3744 19.1178 14.9397 18.8917 14.5583ZM17.45 16.225C17.3769 16.355 17.2703 16.463 17.1414 16.5377C17.0124 16.6125 16.8657 16.6512 16.7167 16.65H3.2833C3.13423 16.6512 2.98755 16.6125 2.85857 16.5377C2.72958 16.463 2.62301 16.355 2.54997 16.225C2.47683 16.0983 2.43832 15.9547 2.43832 15.8083C2.43832 15.6621 2.47683 15.5183 2.54997 15.3917L9.21666 3.72502C9.28658 3.58852 9.39283 3.47396 9.52366 3.39397C9.65449 3.31398 9.80491 3.27166 9.95833 3.27166C10.1117 3.27166 10.2621 3.31398 10.3929 3.39397C10.5238 3.47396 10.6301 3.58852 10.7 3.72502L17.4083 15.3917C17.491 15.5166 17.5385 15.6614 17.5458 15.811C17.5532 15.9606 17.5201 16.1093 17.45 16.2417V16.225ZM9.99999 6.66669C9.77899 6.66669 9.56699 6.75448 9.41074 6.91076C9.25441 7.06705 9.16666 7.27901 9.16666 7.50002V10.8333C9.16666 11.0543 9.25441 11.2663 9.41074 11.4226C9.56699 11.5789 9.77899 11.6667 9.99999 11.6667C10.221 11.6667 10.4329 11.5789 10.5892 11.4226C10.7455 11.2663 10.8333 11.0543 10.8333 10.8333V7.50002C10.8333 7.27901 10.7455 7.06705 10.5892 6.91076C10.4329 6.75448 10.221 6.66669 9.99999 6.66669Z" fill="currentColor"/>
</svg>
