<svg width="20" height="20" viewBox="0 0 20 20" fill="none" xmlns="http://www.w3.org/2000/svg">
<path d="M19.168 10.4154V14.582C19.168 14.803 19.0802 15.015 18.9239 15.1713C18.7676 15.3276 18.5556 15.4154 18.3346 15.4154H17.5013C17.5013 16.0784 17.2379 16.7143 16.7691 17.1831C16.3002 17.652 15.6643 17.9154 15.0013 17.9154C14.3383 17.9154 13.7024 17.652 13.2335 17.1831C12.7647 16.7143 12.5013 16.0784 12.5013 15.4154H7.5013C7.5013 16.0784 7.23791 16.7143 6.76907 17.1831C6.30023 17.652 5.66434 17.9154 5.0013 17.9154C4.33826 17.9154 3.70238 17.652 3.23354 17.1831C2.7647 16.7143 2.5013 16.0784 2.5013 15.4154H1.66797C1.44696 15.4154 1.23499 15.3276 1.07871 15.1713C0.922434 15.015 0.834637 14.803 0.834637 14.582V4.58203C0.834637 3.91899 1.09803 3.28311 1.56687 2.81426C2.03571 2.34542 2.6716 2.08203 3.33464 2.08203H10.8346C11.4977 2.08203 12.1336 2.34542 12.6024 2.81426C13.0712 3.28311 13.3346 3.91899 13.3346 4.58203V6.2487H15.0013C15.3894 6.2487 15.7722 6.33906 16.1193 6.51263C16.4665 6.6862 16.7684 6.93821 17.0013 7.2487L19.0013 9.91536C19.0257 9.95159 19.0453 9.9908 19.0596 10.032L19.1096 10.1237C19.1464 10.2166 19.1662 10.3154 19.168 10.4154ZM5.83464 15.4154C5.83464 15.2505 5.78576 15.0894 5.6942 14.9524C5.60263 14.8153 5.47248 14.7085 5.32021 14.6455C5.16793 14.5824 5.00038 14.5659 4.83873 14.598C4.67708 14.6302 4.52859 14.7096 4.41205 14.8261C4.2955 14.9427 4.21614 15.0911 4.18398 15.2528C4.15183 15.4144 4.16833 15.582 4.2314 15.7343C4.29448 15.8865 4.40129 16.0167 4.53833 16.1083C4.67537 16.1998 4.83649 16.2487 5.0013 16.2487C5.22232 16.2487 5.43428 16.1609 5.59056 16.0046C5.74684 15.8483 5.83464 15.6364 5.83464 15.4154ZM11.668 4.58203C11.668 4.36102 11.5802 4.14906 11.4239 3.99278C11.2676 3.8365 11.0556 3.7487 10.8346 3.7487H3.33464C3.11362 3.7487 2.90166 3.8365 2.74538 3.99278C2.5891 4.14906 2.5013 4.36102 2.5013 4.58203V13.7487H3.1513C3.38562 13.4909 3.67123 13.2849 3.98982 13.144C4.3084 13.003 4.65293 12.9302 5.0013 12.9302C5.34968 12.9302 5.6942 13.003 6.01279 13.144C6.33138 13.2849 6.61699 13.4909 6.8513 13.7487H11.668V4.58203ZM13.3346 9.58203H16.668L15.668 8.2487C15.5903 8.1452 15.4897 8.0612 15.374 8.00334C15.2583 7.94549 15.1307 7.91536 15.0013 7.91536H13.3346V9.58203ZM15.8346 15.4154C15.8346 15.2505 15.7858 15.0894 15.6942 14.9524C15.6026 14.8153 15.4725 14.7085 15.3202 14.6455C15.1679 14.5824 15.0004 14.5659 14.8387 14.598C14.6771 14.6302 14.5286 14.7096 14.412 14.8261C14.2955 14.9427 14.2161 15.0911 14.184 15.2528C14.1518 15.4144 14.1683 15.582 14.2314 15.7343C14.2945 15.8865 14.4013 16.0167 14.5383 16.1083C14.6754 16.1998 14.8365 16.2487 15.0013 16.2487C15.2223 16.2487 15.4343 16.1609 15.5906 16.0046C15.7468 15.8483 15.8346 15.6364 15.8346 15.4154ZM17.5013 11.2487H13.3346V13.5654C13.8264 13.1258 14.472 12.8985 15.1307 12.9328C15.7894 12.9671 16.4079 13.2604 16.8513 13.7487H17.5013V11.2487Z" fill="currentColor"/>
</svg>
