<svg>
<path d="M13.0918 6.9084C13.0143 6.83029 12.9221 6.7683 12.8206 6.72599C12.719 6.68368 12.6101 6.6619 12.5001 6.6619C12.3901 6.6619 12.2812 6.68368 12.1796 6.72599C12.078 6.7683 11.9858 6.83029 11.9084 6.9084L10.0001 8.82508L8.09174 6.9084C7.93482 6.75148 7.72199 6.66332 7.50007 6.66332C7.27815 6.66332 7.06532 6.75148 6.9084 6.9084C6.75149 7.06532 6.66333 7.27815 6.66333 7.50007C6.66333 7.72198 6.75149 7.93482 6.9084 8.09173L8.82509 10.0001L6.9084 11.9084C6.8303 11.9858 6.7683 12.078 6.726 12.1796C6.68369 12.2812 6.6619 12.3901 6.6619 12.5001C6.6619 12.6101 6.68369 12.719 6.726 12.8206C6.7683 12.9221 6.8303 13.0143 6.9084 13.0918C6.98587 13.1698 7.07804 13.2318 7.17959 13.2742C7.28114 13.3164 7.39006 13.3382 7.50007 13.3382C7.61008 13.3382 7.719 13.3164 7.82055 13.2742C7.9221 13.2318 8.01427 13.1698 8.09174 13.0918L10.0001 11.1751L11.9084 13.0918C11.9858 13.1698 12.078 13.2318 12.1796 13.2742C12.2812 13.3164 12.3901 13.3382 12.5001 13.3382C12.6101 13.3382 12.719 13.3164 12.8206 13.2742C12.9221 13.2318 13.0143 13.1698 13.0918 13.0918C13.1698 13.0143 13.2318 12.9221 13.2742 12.8206C13.3164 12.719 13.3383 12.6101 13.3383 12.5001C13.3383 12.3901 13.3164 12.2812 13.2742 12.1796C13.2318 12.078 13.1698 11.9858 13.0918 11.9084L11.1751 10.0001L13.0918 8.09173C13.1698 8.01427 13.2318 7.9221 13.2742 7.82055C13.3164 7.719 13.3383 7.61008 13.3383 7.50007C13.3383 7.39006 13.3164 7.28113 13.2742 7.17958C13.2318 7.07803 13.1698 6.98587 13.0918 6.9084ZM15.8918 4.1084C15.123 3.31248 14.2035 2.67763 13.1868 2.24089C12.1701 1.80415 11.0766 1.57426 9.97009 1.56464C8.86359 1.55503 7.76625 1.76587 6.74212 2.18488C5.71799 2.60389 4.78755 3.22267 4.00511 4.00511C3.22267 4.78755 2.6039 5.71798 2.18489 6.74212C1.76588 7.76625 1.55504 8.86358 1.56465 9.97008C1.57426 11.0766 1.80415 12.1701 2.2409 13.1867C2.67764 14.2035 3.31249 15.123 4.1084 15.8918C4.87713 16.6877 5.79666 17.3225 6.81336 17.7593C7.83006 18.196 8.92359 18.4258 10.0301 18.4355C11.1366 18.4451 12.2339 18.2342 13.258 17.8152C14.2822 17.3962 15.2126 16.7775 15.995 15.995C16.7775 15.2126 17.3963 14.2822 17.8153 13.258C18.2343 12.2339 18.4451 11.1366 18.4355 10.0301C18.4258 8.92358 18.196 7.83006 17.7593 6.81336C17.3225 5.79666 16.6877 4.87712 15.8918 4.1084ZM14.7168 14.7168C13.6268 15.8079 12.1922 16.4874 10.6574 16.6395C9.12259 16.7916 7.58257 16.4068 6.29967 15.5508C5.01677 14.6947 4.07037 13.4202 3.62171 11.9447C3.17306 10.469 3.2499 8.8835 3.83916 7.45822C4.42842 6.03292 5.49363 4.85602 6.85331 4.12803C8.213 3.40005 9.783 3.16601 11.2959 3.46579C12.8088 3.76558 14.1709 4.58064 15.1503 5.77212C16.1296 6.96359 16.6655 8.45775 16.6668 10.0001C16.6697 10.8762 16.4989 11.7441 16.1642 12.5537C15.8294 13.3633 15.3375 14.0985 14.7168 14.7168Z" fill="currentColor"/>
</svg>
