<svg>
  <path d="M12.15 9.41667C12.5287 8.9433 12.7371 8.35623 12.7417 7.75001C12.7417 7.02287 12.4528 6.32552 11.9387 5.81135C11.4245 5.29719 10.7271 5.00834 10 5.00834C9.27286 5.00834 8.57551 5.29719 8.06135 5.81135C7.54719 6.32552 7.25833 7.02287 7.25833 7.75001C7.26285 8.35623 7.47126 8.9433 7.85 9.41667C7.10719 9.86871 6.52441 10.5418 6.18333 11.3417C6.13559 11.4432 6.10883 11.5532 6.10465 11.6653C6.10047 11.7774 6.11895 11.8891 6.15899 11.9939C6.19903 12.0987 6.25981 12.1943 6.33767 12.275C6.41554 12.3557 6.5089 12.4199 6.61216 12.4636C6.71542 12.5074 6.82645 12.5299 6.9386 12.5297C7.05075 12.5296 7.16172 12.5068 7.26485 12.4627C7.36798 12.4186 7.46115 12.3542 7.53879 12.2733C7.61643 12.1923 7.67693 12.0965 7.71667 11.9917C7.90819 11.544 8.22631 11.1619 8.63193 10.8925C9.03756 10.6231 9.51305 10.478 10 10.475V10.475C10.4884 10.4763 10.9657 10.6207 11.3729 10.8902C11.7802 11.1597 12.0996 11.5427 12.2917 11.9917C12.3555 12.1423 12.4622 12.2708 12.5985 12.3612C12.7348 12.4516 12.8948 12.4999 13.0583 12.5C13.1698 12.4979 13.28 12.4753 13.3833 12.4333C13.5866 12.347 13.7472 12.1836 13.83 11.9789C13.9128 11.7742 13.911 11.545 13.825 11.3417C13.4817 10.5406 12.8959 9.86738 12.15 9.41667V9.41667ZM10 8.80834C9.78703 8.80833 9.57886 8.74507 9.4019 8.62657C9.22495 8.50808 9.08717 8.33969 9.00606 8.14278C8.92494 7.94586 8.90415 7.72929 8.94631 7.52053C8.98846 7.31178 9.09168 7.12025 9.24286 6.97025C9.39403 6.82024 9.58636 6.71852 9.79543 6.67799C10.0045 6.63745 10.2209 6.65994 10.4172 6.74258C10.6135 6.82522 10.7808 6.9643 10.8979 7.14218C11.015 7.32006 11.0767 7.52871 11.075 7.74167C11.0728 8.02533 10.9586 8.29663 10.7572 8.49643C10.5558 8.69623 10.2837 8.80835 10 8.80834V8.80834ZM15 1.66667H5C4.33696 1.66667 3.70107 1.93006 3.23223 2.3989C2.76339 2.86775 2.5 3.50363 2.5 4.16667V13.3333C2.5 13.9964 2.76339 14.6323 3.23223 15.1011C3.70107 15.5699 4.33696 15.8333 5 15.8333H7.15833L9.40833 18.0917C9.4862 18.1689 9.57855 18.23 9.68008 18.2715C9.78161 18.313 9.89033 18.334 10 18.3333C10.1986 18.3334 10.3907 18.2624 10.5417 18.1333L13.225 15.8333H15C15.663 15.8333 16.2989 15.5699 16.7678 15.1011C17.2366 14.6323 17.5 13.9964 17.5 13.3333V4.16667C17.5 3.50363 17.2366 2.86775 16.7678 2.3989C16.2989 1.93006 15.663 1.66667 15 1.66667ZM15.8333 13.3333C15.8333 13.5544 15.7455 13.7663 15.5893 13.9226C15.433 14.0789 15.221 14.1667 15 14.1667H12.9167C12.718 14.1667 12.526 14.2376 12.375 14.3667L10.0417 16.3667L8.09167 14.4083C8.0138 14.3311 7.92145 14.27 7.81992 14.2285C7.71839 14.1871 7.60967 14.166 7.5 14.1667H5C4.77899 14.1667 4.56702 14.0789 4.41074 13.9226C4.25446 13.7663 4.16667 13.5544 4.16667 13.3333V4.16667C4.16667 3.94566 4.25446 3.7337 4.41074 3.57742C4.56702 3.42114 4.77899 3.33334 5 3.33334H15C15.221 3.33334 15.433 3.42114 15.5893 3.57742C15.7455 3.7337 15.8333 3.94566 15.8333 4.16667V13.3333Z" fill="currentColor"/>
</svg>
