<svg>
  <path
    d="M13.0904 10.5897C13.9074 9.94695 14.5038 9.0655 14.7965 8.06802C15.0892 7.07054 15.0637 6.00662 14.7236 5.02429C14.3835 4.04196 13.7457 3.19006 12.8988 2.58712C12.052 1.98417 11.0383 1.66016 9.99878 1.66016C8.95923 1.66016 7.94554 1.98417 7.09872 2.58712C6.2519 3.19006 5.61406 4.04196 5.27395 5.02429C4.93384 6.00662 4.90837 7.07054 5.20108 8.06802C5.49378 9.0655 6.09012 9.94695 6.90711 10.5897C5.50717 11.1506 4.28568 12.0809 3.37285 13.2813C2.46002 14.4818 1.89008 15.9075 1.72378 17.4064C1.71174 17.5158 1.72137 17.6266 1.75213 17.7323C1.78289 17.838 1.83417 17.9366 1.90304 18.0225C2.04213 18.196 2.24443 18.3071 2.46544 18.3314C2.68646 18.3557 2.90808 18.2912 3.08155 18.1521C3.25502 18.0131 3.36613 17.8108 3.39044 17.5897C3.57343 15.9607 4.35018 14.4562 5.57229 13.3637C6.7944 12.2712 8.37619 11.6673 10.0154 11.6673C11.6547 11.6673 13.2365 12.2712 14.4586 13.3637C15.6807 14.4562 16.4575 15.9607 16.6404 17.5897C16.6631 17.7945 16.7608 17.9836 16.9147 18.1206C17.0686 18.2575 17.2678 18.3327 17.4738 18.3314H17.5654C17.7839 18.3063 17.9835 18.1958 18.1209 18.0241C18.2583 17.8524 18.3222 17.6334 18.2988 17.4147C18.1317 15.9116 17.5587 14.4822 16.6412 13.2799C15.7236 12.0776 14.4962 11.1476 13.0904 10.5897ZM9.99878 9.99807C9.33951 9.99807 8.69504 9.80257 8.14688 9.4363C7.59871 9.07003 7.17147 8.54944 6.91918 7.94035C6.66689 7.33126 6.60087 6.66104 6.72949 6.01444C6.85811 5.36783 7.17558 4.77389 7.64175 4.30771C8.10793 3.84154 8.70187 3.52407 9.34848 3.39545C9.99508 3.26683 10.6653 3.33285 11.2744 3.58514C11.8835 3.83743 12.4041 4.26467 12.7703 4.81284C13.1366 5.361 13.3321 6.00547 13.3321 6.66474C13.3321 7.54879 12.9809 8.39664 12.3558 9.02176C11.7307 9.64688 10.8828 9.99807 9.99878 9.99807Z"
    fill="currentColor"
  />
</svg>
