<svg>
<path d="M10.25 10.1833C10.6947 9.79841 11.0513 9.32241 11.2957 8.7875C11.5402 8.25263 11.6667 7.67142 11.6667 7.08333C11.6667 5.97826 11.2277 4.91846 10.4462 4.13706C9.66491 3.35565 8.60508 2.91666 7.49999 2.91666C6.39493 2.91666 5.33512 3.35565 4.55372 4.13706C3.77231 4.91846 3.33333 5.97826 3.33333 7.08333C3.33332 7.67142 3.45983 8.25263 3.70427 8.7875C3.9487 9.32241 4.30534 9.79841 4.74999 10.1833C3.58344 10.7116 2.59372 11.5646 1.89914 12.6404C1.20458 13.7163 0.834553 14.9694 0.833328 16.25C0.833328 16.471 0.921128 16.683 1.0774 16.8392C1.23369 16.9955 1.44564 17.0833 1.66666 17.0833C1.88768 17.0833 2.09964 16.9955 2.25592 16.8392C2.41219 16.683 2.49999 16.471 2.49999 16.25C2.49999 14.9239 3.02678 13.6522 3.96446 12.7145C4.90214 11.7767 6.17391 11.25 7.49999 11.25C8.82608 11.25 10.0978 11.7767 11.0355 12.7145C11.9732 13.6522 12.5 14.9239 12.5 16.25C12.5 16.471 12.5878 16.683 12.7441 16.8392C12.9003 16.9955 13.1123 17.0833 13.3333 17.0833C13.5543 17.0833 13.7663 16.9955 13.9226 16.8392C14.0788 16.683 14.1667 16.471 14.1667 16.25C14.1654 14.9694 13.7954 13.7163 13.1008 12.6404C12.4062 11.5646 11.4166 10.7116 10.25 10.1833ZM7.49999 9.58333C7.00554 9.58333 6.52219 9.43675 6.11107 9.162C5.69994 8.88733 5.37951 8.49683 5.19029 8.04004C5.00108 7.58322 4.95157 7.08056 5.04803 6.59561C5.14449 6.11066 5.3826 5.6652 5.73223 5.31556C6.08186 4.96593 6.52732 4.72783 7.01227 4.63136C7.49722 4.53491 7.99989 4.58441 8.45674 4.77363C8.91349 4.96285 9.30399 5.28328 9.57866 5.69441C9.85341 6.10553 9.99999 6.58888 9.99999 7.08333C9.99999 7.74637 9.73658 8.38225 9.26774 8.85108C8.79891 9.31991 8.16304 9.58333 7.49999 9.58333ZM15.6167 9.85C16.15 9.24941 16.4983 8.50758 16.6198 7.71361C16.7413 6.91968 16.6307 6.10756 16.3015 5.375C15.9722 4.64244 15.4382 4.02066 14.7637 3.58451C14.0892 3.14837 13.3032 2.91645 12.5 2.91666C12.279 2.91666 12.067 3.00446 11.9107 3.16074C11.7545 3.31702 11.6667 3.52898 11.6667 3.75C11.6667 3.97101 11.7545 4.18297 11.9107 4.33926C12.067 4.49553 12.279 4.58333 12.5 4.58333C13.163 4.58333 13.7989 4.84672 14.2677 5.31556C14.7366 5.78441 15 6.42029 15 7.08333C14.9988 7.52103 14.8827 7.95075 14.6634 8.32951C14.444 8.70825 14.1291 9.02283 13.75 9.24166C13.6264 9.31291 13.5232 9.41475 13.4503 9.53725C13.3773 9.65983 13.3371 9.79908 13.3333 9.94166C13.3298 10.0832 13.3624 10.2232 13.4281 10.3486C13.4937 10.4739 13.5901 10.5806 13.7083 10.6583L14.0333 10.875L14.1417 10.9333C15.1462 11.4097 15.9936 12.1633 16.5842 13.1052C17.1747 14.0472 17.4837 15.1382 17.475 16.25C17.475 16.471 17.5628 16.683 17.7191 16.8392C17.8753 16.9955 18.0873 17.0833 18.3083 17.0833C18.5293 17.0833 18.7413 16.9955 18.8976 16.8392C19.0538 16.683 19.1417 16.471 19.1417 16.25C19.1485 14.9712 18.8282 13.7119 18.2112 12.5917C17.5942 11.4716 16.7011 10.5277 15.6167 9.85Z" fill="currentColor"/>
</svg>
