<svg>
<path d="M8.60339 16.7186C7.26423 18.5951 4.65011 19.0665 2.76061 17.7611C0.880277 16.4557 0.440004 13.854 1.76082 11.9594C2.41836 11.0257 3.3686 10.449 4.38575 10.2445C4.74458 10.1723 5.05507 10.4626 5.06801 10.8284C5.08051 11.1817 4.80799 11.4747 4.46951 11.5769C3.86743 11.7588 3.31695 12.1374 2.92571 12.6937C2.00848 13.9991 2.29282 15.7577 3.54943 16.6371C4.81521 17.5073 6.58548 17.1719 7.50271 15.8756C7.78705 15.4676 7.95216 15.0234 8.01636 14.5702V13.6546L13.1345 13.6183L13.1987 13.5186C13.6849 12.6846 14.7397 12.3945 15.5652 12.8659C16.3907 13.3373 16.6751 14.3889 16.1889 15.2229C15.7028 16.0478 14.6388 16.3379 13.8133 15.8665C13.4372 15.658 13.1712 15.3226 13.052 14.9419L9.31884 14.96C9.21794 15.5674 8.97946 16.1566 8.60339 16.7186ZM15.2809 10.2461C17.6015 10.5271 19.2525 12.5849 18.9681 14.8421C18.6838 17.1084 16.5742 18.713 14.2536 18.432C13.1346 18.2984 12.1755 17.7576 11.5072 16.9789C11.2641 16.6957 11.3744 16.2754 11.698 16.0896C12.0044 15.9138 12.3902 16.0161 12.6424 16.2635C13.0886 16.7014 13.6871 17.0022 14.3728 17.0903C15.978 17.2807 17.3997 16.2019 17.5923 14.688C17.7849 13.1742 16.6475 11.7872 15.0607 11.5968C14.5654 11.5424 14.0885 11.6059 13.6574 11.76L12.8777 12.1589L10.5112 7.83477H10.3094C9.33718 7.7985 8.58505 7.00983 8.61257 6.06706C8.64008 5.12428 9.46559 4.39 10.4287 4.42626C11.3918 4.48065 12.1531 5.25119 12.1256 6.19397C12.1072 6.59284 11.9513 6.95544 11.7036 7.23646L13.4464 10.4183C14.0151 10.237 14.6388 10.1736 15.2809 10.2461ZM6.5763 7.78038C5.65907 5.65006 6.63134 3.21153 8.75015 2.32314C10.8781 1.43475 13.3363 2.44099 14.2536 4.5713C14.6979 5.59098 14.7032 6.6901 14.3507 7.65292C14.2237 7.99986 13.8092 8.1111 13.4888 7.92721C13.1783 7.74907 13.0732 7.35794 13.1647 7.01192C13.3225 6.4151 13.2877 5.75923 13.0153 5.13334C12.3916 3.68292 10.7314 2.9849 9.30966 3.57413C7.87878 4.17244 7.23671 5.84043 7.86043 7.29086C8.11726 7.88916 8.54836 8.35148 9.07118 8.6597L9.4289 8.85006L6.61299 13.3736C6.64051 13.4189 6.6772 13.4733 6.70472 13.5458C7.15416 14.3708 6.8423 15.4133 5.99845 15.8574C5.16376 16.3016 4.10894 15.9753 3.65033 15.1232C3.20088 14.2801 3.51274 13.2376 4.3566 12.7934C4.71432 12.603 5.10873 12.5577 5.4848 12.6393L7.60361 9.22174C7.17251 8.83193 6.80561 8.34242 6.5763 7.78038Z" fill="currentColor"/>
</svg>
