<svg width="24" height="24" viewBox="0 0 24 24" fill="none" xmlns="http://www.w3.org/2000/svg">
<path d="M19.4728 17.3329V4H5.22852V18.6662C5.22852 19.4217 5.80719 19.9995 6.56392 19.9995H16.802C18.2709 19.9995 19.4728 18.7995 19.4728 17.3329Z" fill="#AFDCEE"/>
<path d="M16.5692 20.0002C16.4802 20.0002 16.4357 20.0002 16.3468 20.0002H5.66935C4.20121 20.0002 3 18.8041 3 17.3421V16.4561H14.1223V17.3421C14.1223 18.7155 15.19 19.8673 16.5692 20.0002Z" fill="url(#paint0_linear)"/>
<path d="M11.1578 8.5739C11.0938 8.45757 11.0938 8.31641 11.1578 8.20008L11.1885 8.14432C11.2887 7.96215 11.2275 7.73324 11.0495 7.62558L10.995 7.59255C10.8814 7.52366 10.8108 7.40159 10.808 7.26886L10.8066 7.20513C10.8024 6.99719 10.6349 6.82967 10.427 6.82545L10.3632 6.82405C10.2304 6.82135 10.1082 6.75071 10.0395 6.63708L10.0065 6.58261C9.89885 6.40466 9.66995 6.34339 9.48778 6.44355L9.43202 6.47424C9.31569 6.53832 9.17453 6.53832 9.0582 6.47424L9.00256 6.44367C8.82039 6.3435 8.5916 6.40477 8.48394 6.58272L8.45091 6.6372C8.38202 6.75083 8.25996 6.82135 8.12723 6.82417L8.0635 6.82557C7.85556 6.82979 7.68804 6.99731 7.68382 7.20525L7.68242 7.26898C7.67972 7.40183 7.60908 7.52401 7.49545 7.59266L7.44098 7.6257C7.26315 7.73336 7.20176 7.96227 7.30192 8.14443L7.33261 8.2002C7.39669 8.31653 7.39669 8.45769 7.33261 8.57402L7.30204 8.62967C7.20188 8.81183 7.26303 9.04074 7.44109 9.1484L7.49557 9.18144C7.6092 9.25032 7.67972 9.37239 7.68253 9.50512L7.68394 9.56885C7.68816 9.77679 7.85568 9.94431 8.06362 9.94853L8.12734 9.94993C8.26019 9.95263 8.38238 10.0233 8.45102 10.1369L8.48406 10.1914C8.59172 10.3692 8.82062 10.4306 9.00279 10.3304L9.05855 10.2997C9.17488 10.2357 9.31604 10.2357 9.43237 10.2997L9.48813 10.3304C9.6703 10.4306 9.8992 10.3694 10.0069 10.1914L10.0399 10.1369C10.1088 10.0233 10.2308 9.95274 10.3636 9.94993L10.4273 9.94853C10.6352 9.94431 10.8028 9.77679 10.807 9.56885L10.8084 9.50512C10.8111 9.37227 10.8817 9.25009 10.9954 9.18144L11.0498 9.1484C11.2277 9.04074 11.289 8.81183 11.1889 8.62967L11.1578 8.5739Z" fill="url(#paint1_linear)"/>
<defs>
<linearGradient id="paint0_linear" x1="8.63485" y1="18.6863" x2="11.4001" y2="15.0422" gradientUnits="userSpaceOnUse">
<stop stop-color="#38A3BB"/>
<stop offset="1" stop-color="#A8BDC2"/>
</linearGradient>
<linearGradient id="paint1_linear" x1="8.38442" y1="9.86858" x2="8.88627" y2="5.97407" gradientUnits="userSpaceOnUse">
<stop stop-color="#FFF6C6"/>
<stop offset="1" stop-color="#FFE8DF"/>
</linearGradient>
</defs>
</svg>
