<svg width="24" height="24" viewBox="0 0 24 24" fill="none" xmlns="http://www.w3.org/2000/svg">
<path d="M16.9999 14.6592C16.2619 14.6592 15.6239 15.0642 15.2769 15.6592H9.99997V16.6592C9.99997 18.3132 8.65397 19.6591 6.99998 19.6591C5.34599 19.6591 3.99999 18.3132 3.99999 16.6592C3.99999 15.0052 5.34599 13.6592 6.99998 13.6592V11.6592C4.24299 11.6592 2 13.9022 2 16.6592C2 19.4162 4.24299 21.6591 6.99998 21.6591C9.41497 21.6591 11.435 19.9381 11.899 17.6592H15.2769C15.6229 18.2542 16.2609 18.6592 16.9999 18.6592C18.1049 18.6592 18.9999 17.7642 18.9999 16.6592C18.9999 15.5542 18.1049 14.6592 16.9999 14.6592Z" fill="url(#paint0_angular)"/>
<path d="M10.27 9.00069C10.639 9.63969 11.309 9.98969 11.997 9.99269L14.636 14.5627L15.502 14.0627C16.935 13.2357 18.773 13.7277 19.6 15.1607C20.427 16.5937 19.935 18.4317 18.502 19.2587C17.069 20.0856 15.231 19.5936 14.404 18.1607L12.672 19.1607C14.05 21.5476 17.115 22.3696 19.502 20.9906C21.8889 19.6117 22.7109 16.5477 21.332 14.1607C20.125 12.0697 17.624 11.1797 15.418 11.9177L13.729 8.99269C14.071 8.3947 14.103 7.6407 13.734 7.0007C13.182 6.0437 11.959 5.71571 11.002 6.2687C10.046 6.8207 9.718 8.0437 10.27 9.00069Z" fill="url(#paint1_angular)"/>
<path d="M8.73252 17.6595C9.10151 17.0205 9.07051 16.2655 8.72752 15.6675L11.3665 11.0975L10.5005 10.5975C9.06851 9.76954 8.57552 7.93154 9.40251 6.49855C10.2295 5.06555 12.0675 4.57356 13.5005 5.40055C14.9335 6.22755 15.4255 8.06554 14.5985 9.49854L16.3305 10.4985C17.7085 8.11154 16.8875 5.04655 14.5005 3.66856C12.1135 2.29056 9.04851 3.11156 7.67052 5.49855C6.46352 7.58954 6.94352 10.2005 8.68552 11.7415L6.99652 14.6665C6.30752 14.6695 5.63753 15.0195 5.26853 15.6595C4.71653 16.6155 5.04453 17.8385 6.00053 18.3915C6.95752 18.9435 8.18052 18.6155 8.73252 17.6595Z" fill="url(#paint2_angular)"/>
<defs>
<radialGradient id="paint0_angular" cx="0" cy="0" r="1" gradientUnits="userSpaceOnUse" gradientTransform="translate(10.5 16.6592) rotate(90) scale(4.99998 8.49997)">
<stop stop-color="#FDC2C6"/>
<stop offset="1" stop-color="#F3A3BB"/>
</radialGradient>
<radialGradient id="paint1_angular" cx="0" cy="0" r="1" gradientUnits="userSpaceOnUse" gradientTransform="translate(16.0015 13.8298) rotate(90) scale(7.82982 5.9995)">
<stop stop-color="#FDC2C6"/>
<stop offset="1" stop-color="#F3A3BB"/>
</radialGradient>
<radialGradient id="paint2_angular" cx="0" cy="0" r="1" gradientUnits="userSpaceOnUse" gradientTransform="translate(10.9998 10.8298) rotate(90) scale(7.82977 5.99928)">
<stop stop-color="#F5CFB9"/>
<stop offset="1" stop-color="#F49375"/>
</radialGradient>
</defs>
</svg>
