<svg width="16" height="16" viewBox="0 0 16 16" fill="none" xmlns="http://www.w3.org/2000/svg">
<path d="M15.5467 8.01409C15.5467 12.1736 12.1736 15.5467 8.01409 15.5467C3.85456 15.5467 0.481445 12.1736 0.481445 8.01409C0.481445 3.85456 3.85456 0.481445 8.01409 0.481445C12.1736 0.481445 15.5467 3.85456 15.5467 8.01409Z" fill="url(#paint0_linear)"/>
<g style="mix-blend-mode:multiply" opacity="0.322917">
<path d="M7.86715 10.7784C7.59317 10.7784 7.36668 10.8665 7.18993 11.0461C7.01318 11.2242 6.92499 11.4505 6.92499 11.7258C6.92499 11.9965 7.01167 12.2201 7.18428 12.3964C7.35801 12.573 7.58488 12.6611 7.86866 12.6611C8.15131 12.6611 8.37818 12.573 8.55191 12.3964C8.72414 12.2198 8.81119 11.9961 8.81119 11.7258C8.81119 11.4509 8.72301 11.2242 8.54626 11.0461C8.37064 10.8695 8.13925 10.7784 7.86715 10.7784ZM9.91201 4.54347C9.45412 4.14472 8.81232 3.94629 7.98473 3.94629C7.16468 3.94629 6.51685 4.15677 6.04314 4.57585C5.59429 4.97309 5.35574 5.51868 5.32634 6.20547H5.32031V6.582H7.0162L7.01921 6.3173C7.02675 6.00704 7.11795 5.76267 7.29168 5.58645C7.46391 5.40835 7.69643 5.32025 7.98511 5.32025C8.5945 5.32025 8.89787 5.6482 8.89787 6.30562C8.89787 6.52326 8.84059 6.73073 8.72263 6.92614C8.60618 7.12194 8.37064 7.3761 8.01752 7.68937C7.66402 8.00114 7.42132 8.31893 7.28867 8.64086C7.15488 8.96279 7.08855 9.4263 7.08855 9.97039H8.58847L8.61221 9.5852C8.6548 9.20415 8.82438 8.87318 9.12173 8.58927L9.59733 8.14083C9.96666 7.7835 10.2274 7.45818 10.3748 7.16562C10.5237 6.87155 10.5987 6.55978 10.5987 6.23032C10.5964 5.50399 10.3684 4.94221 9.91201 4.54347Z" fill="#7798C8"/>
</g>
<path d="M7.97653 10.586C7.70255 10.586 7.47606 10.6741 7.29931 10.8537C7.12256 11.0318 7.03437 11.2581 7.03437 11.5334C7.03437 11.8041 7.12105 12.0278 7.29365 12.204C7.46739 12.3806 7.69426 12.4687 7.97804 12.4687C8.26068 12.4687 8.48756 12.3806 8.66129 12.204C8.83352 12.0274 8.92057 11.8037 8.92057 11.5334C8.92057 11.2585 8.83239 11.0318 8.65564 10.8537C8.48002 10.6772 8.24863 10.586 7.97653 10.586ZM10.0214 4.35108C9.5635 3.95234 8.9217 3.75391 8.09411 3.75391C7.27406 3.75391 6.62623 3.96439 6.15251 4.38346C5.70367 4.7807 5.46511 5.32629 5.43572 6.01308H5.42969V6.38961H7.12557L7.12859 6.12491C7.13612 5.81465 7.22733 5.57028 7.40106 5.39407C7.57329 5.21597 7.80581 5.12786 8.09449 5.12786C8.70388 5.12786 9.00725 5.45582 9.00725 6.11324C9.00725 6.33087 8.94997 6.53834 8.83201 6.73376C8.71556 6.92956 8.48002 7.18371 8.1269 7.49699C7.7734 7.80875 7.5307 8.12654 7.39804 8.44848C7.26426 8.77041 7.19793 9.23392 7.19793 9.778H8.69785L8.72159 9.39281C8.76417 9.01176 8.93376 8.68079 9.23111 8.39689L9.70671 7.94844C10.076 7.59112 10.3368 7.2658 10.4842 6.97323C10.633 6.67916 10.708 6.3674 10.708 6.03793C10.7058 5.31161 10.4778 4.74983 10.0214 4.35108Z" fill="url(#paint1_linear)"/>
<defs>
<linearGradient id="paint0_linear" x1="8.01409" y1="0.481445" x2="8.01409" y2="15.5467" gradientUnits="userSpaceOnUse">
<stop stop-color="#84BFD7"/>
<stop offset="1" stop-color="#94CBE1"/>
</linearGradient>
<linearGradient id="paint1_linear" x1="5.55959" y1="11.05" x2="8.24748" y2="11.6075" gradientUnits="userSpaceOnUse">
<stop stop-color="#FCFDFD" stop-opacity="0.532288"/>
<stop offset="1" stop-color="#F8F9FA"/>
</linearGradient>
</defs>
</svg>
