<svg width="24" height="24" viewBox="0 0 24 24" fill="none" xmlns="http://www.w3.org/2000/svg">
<path d="M12.6948 16.5343C12.7427 16.3426 12.7427 16.1031 12.7427 15.8635C12.7427 15.6239 12.7427 15.4323 12.6948 15.1927L14.0374 14.2345C14.1812 14.1386 14.2292 13.947 14.1333 13.8032L12.8386 11.5993C12.7427 11.4555 12.5989 11.4076 12.455 11.4555L10.9686 12.1742C10.6329 11.8867 10.2493 11.6951 9.81778 11.5034L9.67393 9.87439C9.67393 9.73065 9.53008 9.58691 9.38623 9.58691H6.84489C6.70104 9.58691 6.55719 9.73065 6.55719 9.87439L6.36539 11.5513C5.93384 11.6951 5.59819 11.9346 5.21459 12.2221L3.72814 11.5513C3.58429 11.5034 3.39249 11.5513 3.34454 11.6951L2.04989 13.8991C1.95399 14.0428 2.00194 14.2345 2.14579 14.3303L3.48839 15.2885C3.44044 15.4802 3.44044 15.7198 3.44044 15.9593C3.44044 16.1989 3.44044 16.3905 3.48839 16.6301L2.14579 17.5884C2.00194 17.6842 1.95399 17.8758 2.04989 18.0196L3.34454 20.2236C3.44044 20.3673 3.58429 20.4152 3.72814 20.3673L5.21459 19.6965C5.55024 19.984 5.93384 20.1757 6.36539 20.3673L6.50924 21.9964C6.50924 22.1401 6.65309 22.2838 6.79694 22.2838H9.33828C9.48213 22.2838 9.62598 22.1401 9.62598 21.9964L9.76983 20.3673C10.2014 20.2236 10.537 19.984 10.9206 19.6965L12.4071 20.3673C12.5509 20.4152 12.7427 20.3673 12.7907 20.2236L14.0853 18.0196C14.1812 17.8758 14.1333 17.6842 13.9894 17.5884L12.6948 16.5343ZM8.09158 18.2591C6.74899 18.2591 5.69409 17.2051 5.69409 15.8635C5.69409 14.5219 6.74899 13.4679 8.09158 13.4679C9.43418 13.4679 10.4891 14.5219 10.4891 15.8635C10.4891 17.2051 9.43418 18.2591 8.09158 18.2591Z" fill="url(#paint0_linear)"/>
<path d="M20.512 7.38546C20.5599 7.1454 20.5599 6.95336 20.5599 6.76132C20.5599 6.56927 20.5599 6.37723 20.512 6.13717L21.7104 5.27298C21.8542 5.17695 21.8542 5.03292 21.8063 4.88889L20.6079 2.82442C20.512 2.68038 20.3682 2.63237 20.2244 2.72839L18.8343 3.35254C18.4987 3.11248 18.1632 2.92044 17.7797 2.72839L17.6359 1.24005C17.6838 1.09602 17.5879 1 17.4441 1H15.0953C14.9515 1 14.8077 1.09602 14.8077 1.24005L14.6639 2.72839C14.2804 2.87243 13.9448 3.06447 13.6093 3.35254L12.2192 2.72839C12.0753 2.68038 11.9315 2.72839 11.8357 2.82442L10.6373 4.88889C10.5414 5.03292 10.5893 5.17695 10.7332 5.27298L11.9315 6.13717C11.9315 6.37723 11.9315 6.56927 11.9315 6.76132C11.9315 6.95336 11.9315 7.1454 11.9795 7.38546L10.7811 8.24966C10.6373 8.34568 10.6373 8.48971 10.6852 8.63374L11.8836 10.6982C11.9795 10.8422 12.1233 10.8903 12.2671 10.7942L13.6572 10.1701C13.9928 10.4102 14.3283 10.6022 14.7118 10.7942L14.8556 12.2826C14.8556 12.4266 14.9994 12.5226 15.1432 12.5226H17.4921C17.6359 12.5226 17.7797 12.4266 17.7797 12.2826L17.9235 10.7942C18.307 10.6502 18.6425 10.4582 18.9781 10.1701L20.3682 10.7942C20.512 10.8422 20.6558 10.7942 20.7517 10.6982L21.9501 8.63374C22.0459 8.48971 21.998 8.34568 21.8542 8.24966L20.512 7.38546ZM16.2457 9.16187C14.9035 9.16187 13.849 8.10562 13.849 6.76132C13.849 5.41701 14.9035 4.36077 16.2457 4.36077C17.5879 4.36077 18.6425 5.41701 18.6425 6.76132C18.6425 8.10562 17.5879 9.16187 16.2457 9.16187Z" fill="#84BFD7"/>
<defs>
<linearGradient id="paint0_linear" x1="2.48299" y1="22.2838" x2="13.2819" y2="8.48155" gradientUnits="userSpaceOnUse">
<stop stop-color="#38A3BB"/>
<stop offset="1" stop-color="#A8BDC2"/>
</linearGradient>
</defs>
</svg>
