<svg width="24" height="24" viewBox="0 0 24 24" fill="none" xmlns="http://www.w3.org/2000/svg">
<path d="M12 1C7.64702 1 4.14438 4.50263 4.00266 8.97709C3.88118 13.1681 7.95071 18.7561 10.4005 21.6919C10.8055 22.1778 11.3926 22.441 12 22.441C12.6074 22.441 13.2148 22.1575 13.5995 21.6919C16.0493 18.7359 20.1188 13.1681 19.9973 8.97709C19.8556 4.50263 16.353 1 12 1Z" fill="url(#paint0_linear)"/>
<g filter="url(#filter0_f)">
<path d="M12.0986 3.22754C11.3187 3.22754 10.5464 3.38115 9.82588 3.67961C9.10534 3.97808 8.45063 4.41553 7.89915 4.96702C7.34766 5.5185 6.9102 6.17321 6.61174 6.89375C6.31328 7.6143 6.15967 8.38658 6.15967 9.16649C6.15967 9.94641 6.31328 10.7187 6.61174 11.4392C6.9102 12.1598 7.34766 12.8145 7.89915 13.366C8.45063 13.9175 9.10534 14.3549 9.82588 14.6534C10.5464 14.9518 11.3187 15.1054 12.0986 15.1054C12.8785 15.1054 13.6508 14.9518 14.3714 14.6534C15.0919 14.3549 15.7466 13.9175 16.2981 13.366C16.8496 12.8145 17.287 12.1598 17.5855 11.4392C17.884 10.7187 18.0376 9.94641 18.0376 9.16649C18.0376 8.38658 17.884 7.6143 17.5855 6.89375C17.287 6.17321 16.8496 5.5185 16.2981 4.96702C15.7466 4.41553 15.0919 3.97808 14.3714 3.67961C13.6508 3.38115 12.8785 3.22754 12.0986 3.22754Z" fill="#F1CE66"/>
</g>
<g filter="url(#filter1_d)">
<path d="M12.0984 4.30664C11.4603 4.30664 10.8284 4.43233 10.2389 4.67652C9.64935 4.92072 9.11368 5.27864 8.66247 5.72985C8.21125 6.18106 7.85333 6.71673 7.60914 7.30627C7.36494 7.89581 7.23926 8.52767 7.23926 9.16578C7.23926 9.8039 7.36494 10.4358 7.60914 11.0253C7.85333 11.6148 8.21125 12.1505 8.66247 12.6017C9.11368 13.0529 9.64935 13.4109 10.2389 13.655C10.8284 13.8992 11.4603 14.0249 12.0984 14.0249C12.7365 14.0249 13.3684 13.8992 13.9579 13.655C14.5475 13.4109 15.0831 13.0529 15.5343 12.6017C15.9855 12.1505 16.3435 11.6148 16.5877 11.0253C16.8319 10.4358 16.9575 9.8039 16.9575 9.16578C16.9575 8.52767 16.8319 7.89581 16.5877 7.30627C16.3435 6.71673 15.9855 6.18106 15.5343 5.72985C15.0831 5.27864 14.5475 4.92072 13.9579 4.67652C13.3684 4.43233 12.7365 4.30664 12.0984 4.30664Z" fill="#FFF6CB"/>
</g>
<defs>
<filter id="filter0_f" x="4.15967" y="1.22754" width="15.8779" height="15.8779" filterUnits="userSpaceOnUse" color-interpolation-filters="sRGB">
<feFlood flood-opacity="0" result="BackgroundImageFix"/>
<feBlend mode="normal" in="SourceGraphic" in2="BackgroundImageFix" result="shape"/>
<feGaussianBlur stdDeviation="1" result="effect1_foregroundBlur"/>
</filter>
<filter id="filter1_d" x="3.23926" y="0.306641" width="17.7183" height="17.7183" filterUnits="userSpaceOnUse" color-interpolation-filters="sRGB">
<feFlood flood-opacity="0" result="BackgroundImageFix"/>
<feColorMatrix in="SourceAlpha" type="matrix" values="0 0 0 0 0 0 0 0 0 0 0 0 0 0 0 0 0 0 127 0"/>
<feOffset/>
<feGaussianBlur stdDeviation="2"/>
<feColorMatrix type="matrix" values="0 0 0 0 0.945098 0 0 0 0 0.807843 0 0 0 0 0.403922 0 0 0 1 0"/>
<feBlend mode="normal" in2="BackgroundImageFix" result="effect1_dropShadow"/>
<feBlend mode="normal" in="SourceGraphic" in2="effect1_dropShadow" result="shape"/>
</filter>
<linearGradient id="paint0_linear" x1="12" y1="1" x2="12" y2="22.441" gradientUnits="userSpaceOnUse">
<stop stop-color="#FBEFC7"/>
<stop offset="1" stop-color="#F3CF68"/>
</linearGradient>
</defs>
</svg>
