<svg width="24" height="24" viewBox="0 0 24 24" fill="none" xmlns="http://www.w3.org/2000/svg">
<path d="M18.1579 8.19336H21V19.5861H18.1579V8.19336ZM14.3684 11.9909H17.2105V19.5861H14.3684V11.9909ZM10.5789 10.0922H13.4211V19.5861H10.5789V10.0922ZM6.78947 14.8391H9.63158V19.5861H6.78947V14.8391ZM3 12.9403H5.84211V19.5861H3V12.9403Z" fill="url(#paint0_linear)"/>
<path d="M4.41455 7.21288L8.2212 8.19173L12.0007 5.06485L15.7801 6.53312L19.5868 3.92285" stroke="#6CC399" stroke-width="3" stroke-linecap="round" stroke-linejoin="round"/>
<path d="M4.42732 7.94938C4.9454 7.94938 5.36539 7.52939 5.36539 7.01131C5.36539 6.49323 4.9454 6.07324 4.42732 6.07324C3.90924 6.07324 3.48926 6.49323 3.48926 7.01131C3.48926 7.52939 3.90924 7.94938 4.42732 7.94938Z" fill="#BCDE6B"/>
<path d="M8.23348 9.14566C8.75156 9.14566 9.17154 8.72568 9.17154 8.2076C9.17154 7.68952 8.75156 7.26953 8.23348 7.26953C7.7154 7.26953 7.29541 7.68952 7.29541 8.2076C7.29541 8.72568 7.7154 9.14566 8.23348 9.14566Z" fill="#BCDE6B"/>
<path d="M12.0138 6.07242C12.5318 6.07242 12.9518 5.65244 12.9518 5.13436C12.9518 4.61628 12.5318 4.19629 12.0138 4.19629C11.4957 4.19629 11.0757 4.61628 11.0757 5.13436C11.0757 5.65244 11.4957 6.07242 12.0138 6.07242Z" fill="#BCDE6B"/>
<path d="M15.8219 7.26773C16.3399 7.26773 16.7599 6.84775 16.7599 6.32967C16.7599 5.81159 16.3399 5.3916 15.8219 5.3916C15.3038 5.3916 14.8838 5.81159 14.8838 6.32967C14.8838 6.84775 15.3038 7.26773 15.8219 7.26773Z" fill="#BCDE6B"/>
<path d="M19.6002 4.87613C20.1183 4.87613 20.5382 4.45615 20.5382 3.93807C20.5382 3.41999 20.1183 3 19.6002 3C19.0821 3 18.6621 3.41999 18.6621 3.93807C18.6621 4.45615 19.0821 4.87613 19.6002 4.87613Z" fill="#BCDE6B"/>
<defs>
<linearGradient id="paint0_linear" x1="13.0343" y1="16.4439" x2="14.6747" y2="8.62118" gradientUnits="userSpaceOnUse">
<stop stop-color="#38A3BB"/>
<stop offset="1" stop-color="#A8BDC2"/>
</linearGradient>
</defs>
</svg>
