<?xml version="1.0" encoding="UTF-8"?>
<svg width="874px" height="873px" viewBox="0 0 874 873" version="1.1" xmlns="http://www.w3.org/2000/svg" xmlns:xlink="http://www.w3.org/1999/xlink">
    <!-- Generator: Sketch 58 (84663) - https://sketch.com -->
    <title>icon_partnership@2x</title>
    <desc>Created with Sketch.</desc>
    <defs>
        <linearGradient x1="0%" y1="17.2618022%" x2="19.5333124%" y2="106.671114%" id="linearGradient-1">
            <stop stop-color="#FFF6C6" offset="0%"></stop>
            <stop stop-color="#EBB572" offset="100%"></stop>
        </linearGradient>
        <linearGradient x1="50%" y1="1.08477618%" x2="50%" y2="100%" id="linearGradient-2">
            <stop stop-color="#D1AA77" offset="0%"></stop>
            <stop stop-color="#D99980" offset="100%"></stop>
        </linearGradient>
    </defs>
    <g id="icon_partnership" stroke="none" stroke-width="1" fill="none" fill-rule="evenodd" transform="translate(1.000000, 0.000000)">
        <g id="icons8-helping-hand-2" transform="translate(46.000000, 46.000000)" fill-rule="nonzero">
            <g id="icons8-helping-hand" transform="translate(391.000000, 391.000000) rotate(-315.000000) translate(-391.000000, -391.000000) translate(126.000000, 104.000000)">
                <path d="M478.698,309.499 L427,309.499 L427,309.5 L478.576923,309.5 L478.698,309.499 Z M478.698,309.499 L493.269231,309.5 C513.559308,309.5 530,325.9493 530,346.25 L530,346.25 L529.99508,346.857853 C529.670801,366.878041 513.356407,383 493.269231,383 L493.269231,383 L478.576923,383 C498.867,383 515.307692,399.4493 515.307692,419.75 L515.307692,419.75 L515.302773,420.357853 C514.978494,440.378041 498.664099,456.5 478.576923,456.5 L478.576923,456.5 L449.192308,456.5 C469.482385,456.5 485.923077,472.9493 485.923077,493.25 L485.923077,493.25 L485.918157,493.857853 C485.593878,513.878041 469.279484,530 449.192308,530 L449.192308,530 L427,529.999 L427,530 L0.0147241379,530 L0,294.159174 L117.793103,279.420043 L206.137931,191 L427,235.202652 L427,236 L478.576923,236 C498.664099,236 514.978494,252.121959 515.302773,272.142147 L515.307692,272.75 L515.302773,273.357853 C514.978494,293.378041 498.664099,309.5 478.576923,309.5 L478.698,309.499 Z" id="Combined-Shape" fill="url(#linearGradient-1)"></path>
                <path d="M486,309 L427.333333,309 C419.237333,309 412.666667,315.59325 412.666667,323.75 C412.666667,331.90675 419.237333,338.5 427.333333,338.5 L486,309 Z M486,382.75 L427.333333,382.75 C419.237333,382.75 412.666667,389.34325 412.666667,397.5 C412.666667,405.65675 419.237333,412.25 427.333333,412.25 L486,382.75 Z M456.666667,456.5 L412.666667,456.5 C404.570667,456.5 398,463.09325 398,471.25 C398,479.40675 404.570667,486 412.666667,486 L456.666667,456.5 Z" id="Shape"></path>
                <g id="Group" transform="translate(132.000000, 0.000000)" fill="url(#linearGradient-2)">
                    <path d="M221.111111,0.0147179487 L398,132.461538 L357.61037,226.862462 L353.777778,235.487179 L163.261,235.486718 L136.853037,292.533949 C123.778,321.572462 101.68163,344.503026 76.0622222,363.709949 L63.4736296,373.144154 C51.74,381.930769 25.5751852,384.756615 13.473037,368.640462 L8.87392593,362.532513 C4.92340741,357.292923 5.11503704,349.948667 9.38985185,344.767949 L31.2356296,318.172615 C41.2151111,305.971436 48.0695556,291.547846 51.1208889,276.197026 L58.962963,191.333333 L79.4231111,152.021692 C91.4662963,125.720718 106.85563,107.529333 132.666667,103.040359 L132.701809,103.040006 C133.845926,103.022697 162.737778,102.157282 191.62963,58.8865128 L221.111111,0.0147179487 Z M221.111111,538.706359 C221.111111,558.207641 204.630963,574 184.259259,574 L184.259259,574 L183.649726,573.995274 C163.574341,573.683782 147.422148,558.012628 147.422148,538.706359 L147.422148,538.706359 L147.407,521.044718 L147.407407,538.706359 C147.407407,558.012628 131.255214,573.683782 111.165527,573.995274 L110.555556,574 L109.946022,573.995274 C89.8706376,573.683782 73.7184444,558.012628 73.7184444,538.706359 L73.7184444,538.706359 L73.703,521.044718 L73.7037037,538.706359 C73.7037037,558.012628 57.5515105,573.683782 37.4618229,573.995274 L36.8518519,574 L36.2423186,573.995274 C16.1669339,573.683782 0.0147407407,558.012628 0.0147407407,538.706359 L0.0147407407,538.706359 L8.52651283e-14,521.030103 C0.0147407407,501.514103 16.5243704,485.707026 36.8518519,485.707026 C57.2235556,485.736462 73.7037037,501.514103 73.7037037,521.044821 L73.7037037,521.030103 C73.7184444,501.514103 90.2280741,485.707026 110.555556,485.707026 C130.927259,485.736462 147.407407,501.514103 147.407407,521.044821 L147.407407,521.030103 C147.422148,501.514103 163.931778,485.707026 184.259259,485.707026 C204.630963,485.736462 221.111111,501.514103 221.111111,521.044821 L221.111111,521.030103 C221.125852,501.514103 237.635481,485.707026 257.962963,485.707026 C278.334667,485.736462 294.814815,501.514103 294.814815,521.044821 L294.814815,521.044821 L294.814815,538.706359 C294.814815,558.207641 278.334667,574 257.962963,574 L257.962963,574 L257.35343,573.995274 C237.278045,573.683782 221.125852,558.012628 221.125852,538.706359 L221.125852,538.706359 L221.111,521.044718 Z" id="Combined-Shape"></path>
                </g>
                <path d="M367.843756,521.294257 C367.976559,509.973573 377.943961,500.885137 390.178689,501.001097 C402.354525,501.146049 412.159974,510.422922 411.998022,521.729111 C411.865516,533.049795 367.711547,532.600446 367.843756,521.294257 M220.614783,521.294257 C220.747586,509.973573 230.714988,500.885137 242.949716,501.001097 C255.125552,501.146049 264.931001,510.422922 264.769049,521.729111 C264.636543,533.049795 220.482574,532.600446 220.614783,521.294257 M147.000296,521.294257 C147.1331,509.973573 157.100501,500.885137 169.335229,501.001097 C181.511065,501.146049 191.316515,510.422922 191.154563,521.729111 C191.022057,533.049795 146.868088,532.600446 147.000296,521.294257 M294.229269,521.294257 C294.362073,509.973573 304.329474,500.885137 316.564202,501.001097 C328.740038,501.146049 338.545488,510.422922 338.383536,521.729111 C338.25103,533.049795 294.097061,532.600446 294.229269,521.294257" id="Shape" fill="#FFCCCD"></path>
            </g>
        </g>
    </g>
</svg>
