<svg width="24" height="24" viewBox="0 0 24 24" fill="none" xmlns="http://www.w3.org/2000/svg">
<path fill-rule="evenodd" clip-rule="evenodd" d="M11.5967 13.654C11.8215 13.8788 12.1586 13.8788 12.3834 13.654L20.8502 5.78673C21 5.48702 20.9625 5 20.3631 5L3.617 5.03746C3.16744 5.03746 2.7928 5.44956 3.12997 5.82419L11.5967 13.654ZM21 8.85756C21 8.48293 20.5504 8.25815 20.2507 8.52039L13.6197 14.6269C13.1702 15.039 12.6082 15.2638 12.0088 15.2638C11.4094 15.2638 10.8474 15.039 10.3979 14.6644L3.80431 8.52039C3.5046 8.25815 3.05504 8.44546 3.05504 8.85756C3.01758 8.74517 3.01758 17.3617 3.01758 17.3617C3.01758 18.1859 3.69192 18.8603 4.51611 18.8603H19.5015C20.3257 18.8603 21 18.1859 21 17.3617V8.85756Z" fill="url(#paint0_linear)"/>
<defs>
<linearGradient id="paint0_linear" x1="12" y1="5" x2="12" y2="18.8603" gradientUnits="userSpaceOnUse">
<stop stop-color="#84BBD7"/>
<stop offset="0.505208" stop-color="#9FCEE2"/>
<stop offset="1" stop-color="#BAE1ED"/>
</linearGradient>
</defs>
</svg>
