<svg width="24" height="24" viewBox="0 0 24 24" fill="none" xmlns="http://www.w3.org/2000/svg">
<path d="M9.89996 5.09668L4.08545 16.1971V17.7829C4.08545 17.7829 7.78559 22.0116 15.7145 22.0116L21.0004 9.85401C13.0715 9.85401 10.3535 6.11845 9.89996 5.09668Z" fill="url(#paint0_linear)"/>
<path d="M4.08545 16.7291C4.08545 16.7291 8.94885 20.0298 14.9699 18.8749L20.4944 7.22302C20.4944 7.22302 15.2012 8.80737 9.90798 5.63867L4.08545 15.6708V16.7291Z" fill="url(#paint1_linear)"/>
<path d="M3 15.6836H4.08429V17.7799H3V15.6836Z" fill="#B78B69"/>
<path d="M3 15.6806H4.0602C6.00884 16.1741 10.908 17.2873 14.1321 15.6806L20.4932 3C20.4932 3 15.7223 5.11343 9.89127 4.58508H8.83108L3 15.6806Z" fill="url(#paint2_linear)"/>
<path d="M3 15.6838H4.06205L9.90332 4.58789H8.84127L3 15.6838Z" fill="#DD2C00"/>
<path opacity="0.83424" d="M14.4516 10.9183L14.9414 10.1371C15.161 9.41694 15.0206 9.10656 14.3703 9.10656C14.0446 9.10656 13.3773 9.07605 13.4692 8.77567C13.5621 8.47267 13.5621 8.44163 13.7737 8.30012C13.9717 8.16808 14.2504 8.03499 14.5165 7.3085C14.9029 6.24376 14.3175 5.71349 13.2701 5.74979C12.1151 5.78925 11.8459 6.59148 11.6342 7.16068C11.5044 7.50577 11.6833 7.96607 11.8924 8.12547C12.0138 8.21963 11.876 8.35378 11.7863 8.59524C11.6538 8.94243 10.9976 8.92823 10.6956 9.04659C9.90697 9.3596 9.80984 9.45271 9.4097 10.1792C9.06657 10.7973 8.42624 11.9588 8.42624 11.9588C9.80562 12.0593 12.8151 12.4118 14.4516 10.9183ZM9.36325 14.244C9.5063 14.0662 9.79717 13.9521 9.99302 14.1288C10.0843 14.2104 10.059 14.3477 10.1387 14.4371C10.2248 14.5297 10.3319 14.5323 10.4533 14.5265C10.7484 14.5129 10.8851 14.2367 11.0525 14.0357C11.175 13.8916 11.4173 13.5349 11.6295 13.6554C11.81 13.7585 11.8137 13.9894 12.0328 14.0594C12.2218 14.1199 12.3775 14.0747 12.5454 13.9884C12.7866 13.8637 12.8061 13.8027 12.9207 13.5707C13.1334 13.1367 13.3488 12.7032 13.571 12.2498C13.3525 12.3813 13.1197 12.4696 12.8874 12.5759C12.7306 12.6464 12.5622 12.709 12.4519 12.8495C12.3543 12.9715 12.2571 13.0815 12.0919 13.0488C11.8718 13.002 12.0608 12.8147 11.905 12.7485C11.7699 12.6922 11.4627 12.7948 11.3265 12.8195C11.091 12.8595 10.9105 12.8863 10.779 13.1141C10.656 13.3255 10.4676 13.7474 10.1498 13.5812C9.89747 13.4497 10.2543 13.0872 9.97771 12.9526C9.78292 12.8579 9.41603 12.931 9.28353 13.0904C9.12094 13.2887 9.0254 13.6275 8.76673 13.729C8.46267 13.8495 8.33017 13.5949 8.38137 13.3371C8.41938 13.1509 8.63159 12.8695 8.32542 12.8368C8.06834 12.81 7.62755 12.6301 7.47552 12.88C7.371 13.0525 7.29129 13.2493 7.20102 13.4318C7.03104 13.7737 6.85947 14.1183 6.68896 14.4592C6.70163 14.4324 7.22794 14.5465 7.29287 14.5402C7.53992 14.5197 7.66556 14.2867 7.83923 14.1457C7.98335 14.0273 8.3365 13.9184 8.49804 14.0389C8.69441 14.1872 8.5408 14.4934 8.8285 14.5849C9.10089 14.6733 9.22652 14.4197 9.36325 14.244Z" fill="url(#paint3_linear)"/>
<defs>
<linearGradient id="paint0_linear" x1="12.5429" y1="5.09668" x2="12.5429" y2="22.0116" gradientUnits="userSpaceOnUse">
<stop stop-color="#F9F9F9"/>
<stop offset="1" stop-color="#CBC5A0"/>
</linearGradient>
<linearGradient id="paint1_linear" x1="12.2899" y1="5.7351" x2="12.2899" y2="19.12" gradientUnits="userSpaceOnUse">
<stop stop-color="#FFFDF0"/>
<stop offset="1" stop-color="#FFF6C6"/>
</linearGradient>
<linearGradient id="paint2_linear" x1="11.7466" y1="3" x2="11.7466" y2="16.5175" gradientUnits="userSpaceOnUse">
<stop stop-color="#F7D669"/>
<stop offset="1" stop-color="#EBB572"/>
</linearGradient>
<linearGradient id="paint3_linear" x1="10.8635" y1="5.74805" x2="10.8635" y2="14.6031" gradientUnits="userSpaceOnUse">
<stop stop-color="white" stop-opacity="0.395569"/>
<stop offset="1" stop-color="white"/>
</linearGradient>
</defs>
</svg>
