<?xml version="1.0" encoding="UTF-8"?>
<svg width="873px" height="873px" viewBox="0 0 873 873" version="1.1" xmlns="http://www.w3.org/2000/svg" xmlns:xlink="http://www.w3.org/1999/xlink">
    <!-- Generator: Sketch 58 (84663) - https://sketch.com -->
    <title>icon_lookUp</title>
    <desc>Created with Sketch.</desc>
    <defs>
        <linearGradient x1="28.3834445%" y1="53.3087482%" x2="41.0843255%" y2="44.5416424%" id="linearGradient-1">
            <stop stop-color="#FFCCCD" offset="0%"></stop>
            <stop stop-color="#D99980" offset="100%"></stop>
        </linearGradient>
        <linearGradient x1="23.5601794%" y1="96.3686436%" x2="50%" y2="25.6498676%" id="linearGradient-2">
            <stop stop-color="#D99980" offset="0%"></stop>
            <stop stop-color="#FFCCCD" offset="100%"></stop>
        </linearGradient>
        <linearGradient x1="50%" y1="0%" x2="50%" y2="100%" id="linearGradient-3">
            <stop stop-color="#EAF0F7" offset="0%"></stop>
            <stop stop-color="#87CEF6" offset="100%"></stop>
        </linearGradient>
    </defs>
    <g id="icon_lookUp" stroke="none" stroke-width="1" fill="none" fill-rule="evenodd">
        <g id="icons8-search-folder" transform="translate(154.000000, 180.000000)">
            <polygon id="Path" fill="#5484A8" fill-rule="nonzero" transform="translate(516.476721, 464.592545) rotate(-45.001000) translate(-516.476721, -464.592545) " points="500.410216 413.592545 532.420492 413.606635 532.543225 515.592545 500.53295 515.578455"></polygon>
            <path d="M461.7,51 L230.85,51 L179.55,0 L51.3,0 C23.085,0 0,22.95 0,51 L0,153 L513,153 L513,102 C513,73.95 489.915,51 461.7,51 Z" id="Path" fill="url(#linearGradient-1)" fill-rule="nonzero"></path>
            <rect id="Rectangle" fill="url(#linearGradient-2)" x="0" y="51" width="513" height="358"></rect>
            <path d="M397,217 C467.692448,217 525,274.307552 525,345 C525,415.692448 467.692448,473 397,473 C326.307552,473 269,415.692448 269,345 C269,274.307552 326.307552,217 397,217 Z M397.5,243 C340.890813,243 295,288.890813 295,345.5 C295,402.109187 340.890813,448 397.5,448 C454.109187,448 500,402.109187 500,345.5 C500,288.890813 454.109187,243 397.5,243 Z" id="Combined-Shape" fill="#5484A8" fill-rule="nonzero"></path>
            <path d="M397.5,243 C340.890813,243 295,288.890813 295,345.5 C295,402.109187 340.890813,448 397.5,448 C454.109187,448 500,402.109187 500,345.5 C500,288.890813 454.109187,243 397.5,243 Z" id="Path" fill="url(#linearGradient-3)" fill-rule="nonzero" opacity="0.703311012"></path>
            <polygon id="Path" fill="#366684" fill-rule="nonzero" transform="translate(527.340446, 475.407012) rotate(-45.001000) translate(-527.340446, -475.407012) " points="511.309364 439.748719 543.319639 439.772017 543.371528 511.065305 511.361253 511.042007"></polygon>
        </g>
    </g>
</svg>
