<?xml version="1.0" encoding="UTF-8"?>
<svg width="873px" height="873px" viewBox="0 0 873 873" version="1.1" xmlns="http://www.w3.org/2000/svg" xmlns:xlink="http://www.w3.org/1999/xlink">
    <!-- Generator: Sketch 58 (84663) - https://sketch.com -->
    <title>icon_marketer</title>
    <desc>Created with Sketch.</desc>
    <defs>
        <linearGradient x1="28.3834445%" y1="79.9703106%" x2="41.0843255%" y2="0.558742004%" id="linearGradient-1">
            <stop stop-color="#FFCCCD" offset="0%"></stop>
            <stop stop-color="#D99980" offset="100%"></stop>
        </linearGradient>
        <linearGradient x1="109.825057%" y1="16.824733%" x2="8.89256869%" y2="62.1487898%" id="linearGradient-2">
            <stop stop-color="#F4FFAE" offset="0%"></stop>
            <stop stop-color="#F38D6F" offset="41.8320036%"></stop>
            <stop stop-color="#F48B6C" offset="82.1312581%"></stop>
            <stop stop-color="#FF2929" offset="100%"></stop>
        </linearGradient>
        <linearGradient x1="28.3834445%" y1="81.3389057%" x2="41.0843255%" y2="-1.69899449%" id="linearGradient-3">
            <stop stop-color="#FFCCCD" offset="0%"></stop>
            <stop stop-color="#D99980" offset="100%"></stop>
        </linearGradient>
        <linearGradient x1="28.3834445%" y1="87.1976566%" x2="28.3834445%" y2="125.109409%" id="linearGradient-4">
            <stop stop-color="#FFCCCD" offset="0%"></stop>
            <stop stop-color="#D99980" offset="100%"></stop>
        </linearGradient>
    </defs>
    <g id="icon_marketer" stroke="none" stroke-width="1" fill="none" fill-rule="evenodd">
        <g id="icons8-commercial" transform="translate(123.000000, 143.000000)" fill-rule="nonzero">
            <path d="M215.509091,432.892857 L177,432.892857 L177,368.75 L241.181818,368.75 L247.6,392.803571 C252.413636,413.65 236.368182,432.892857 215.509091,432.892857 Z" id="Shape" fill="url(#linearGradient-1)"></path>
            <path d="M80.2564103,177 C124.580802,177 160.512821,212.81722 160.512821,257 C160.512821,281.505496 149.459251,303.43754 132.050943,318.112316 C169.247902,305.756352 208.573626,307.322684 208.573626,369.162431 C208.573626,457.564076 232.705495,504.175852 243.967033,521.856181 C252.010989,533.1073 252.010989,547.573024 243.967033,558.824142 C240.749451,562.038747 237.531868,563.64605 234.314286,565.253353 C219.835165,574.897168 194.094505,584.540984 160.30989,587.75559 C150.657143,589.362892 141.004396,582.933682 137.786813,571.682563 L67,351.482102 C67,351.482102 77.1270436,344.353741 91.9640809,336.154812 C88.1450374,336.71149 84.2345244,337 80.2564103,337 C35.9320188,337 0,301.18278 0,257 C0,212.81722 35.9320188,177 80.2564103,177 Z M577.846154,209 C605.133333,209 626,229.8 626,257 C626,284.2 605.133333,305 577.846154,305 L577.846154,305 L529.692308,305 L529.692308,209 Z" id="Combined-Shape" fill="url(#linearGradient-2)"></path>
            <path d="M530,32 L530,481 C530,481 340.663636,368.75 241.181818,368.75 L241.181293,368.221 L241,369 L80.1666667,369 C71.0684178,369 40.5709495,314.307984 40.8289202,256.5 C41.0757806,201.899586 71.5732489,144 80.1666667,144 L80.1666667,144 L248.965794,144.0073 C344.708477,138.250271 530,32 530,32 Z" id="Combined-Shape" fill="url(#linearGradient-3)"></path>
            <path d="M546,514 C514,514 514,514 514,481.875 C505.391888,382.073307 501.087831,306.948307 501.087831,256.5 C501.087831,207.003863 505.391888,132.212196 514,32.125 C514,0 514,0 546,0 C578,0 578,0 578,32.125 C567.049287,131.46112 561.573931,206.419453 561.573931,257 C561.573931,306.363898 567.049287,381.322231 578,481.875 C577.846154,514 578,514 546,514 Z" id="Path" fill="url(#linearGradient-4)"></path>
        </g>
    </g>
</svg>
